<svg width="104" height="41" viewBox="0 0 104 41" fill="none" xmlns="http://www.w3.org/2000/svg">
<path d="M54.8021 20.7572C52.1252 20.7572 50.1816 21.7473 48.8615 23.4341V13.9365H44.131V39.6059H48.8615V37.4423C50.1816 39.1292 52.1252 40.1193 54.8021 40.1193C59.716 40.1193 63.7498 35.9022 63.7498 30.4382C63.7498 24.9743 59.716 20.7572 54.8021 20.7572ZM53.922 35.6088C51.0251 35.6088 48.8615 33.5186 48.8615 30.4382C48.8615 27.3579 51.0251 25.2677 53.922 25.2677C56.8557 25.2677 59.0193 27.3579 59.0193 30.4382C59.0193 33.5186 56.8557 35.6088 53.922 35.6088Z" fill="#052013"/>
<path d="M74.2931 40.1193C79.6836 40.1193 84.0108 35.9022 84.0108 30.4382C84.0108 24.9743 79.6836 20.7572 74.2931 20.7572C68.9025 20.7572 64.612 24.9743 64.612 30.4382C64.612 35.9022 68.9025 40.1193 74.2931 40.1193ZM74.2931 35.4988C71.5061 35.4988 69.3425 33.4086 69.3425 30.4382C69.3425 27.4679 71.5061 25.3777 74.2931 25.3777C77.1167 25.3777 79.2803 27.4679 79.2803 30.4382C79.2803 33.4086 77.1167 35.4988 74.2931 35.4988Z" fill="#052013"/>
<path d="M85.8181 39.6059H90.5486V12.8363H85.8181V39.6059Z" fill="#052013"/>
<path d="M103.846 25.8177V21.2706H99.7019V16.1367L94.9714 17.5668V21.2706H91.781V25.8177H94.9714V33.4452C94.9714 38.3958 97.2083 40.3393 103.846 39.6059V35.3154C101.132 35.4621 99.7019 35.4254 99.7019 33.4452V25.8177H103.846Z" fill="#052013"/>
<path fill-rule="evenodd" clip-rule="evenodd" d="M29.0125 0.0595551L18.4288 10.6984C17.3692 10.4602 16.267 10.3346 15.1355 10.3346C6.87645 10.3346 0.181152 17.0299 0.181152 25.2889C0.181152 33.548 6.87645 40.2433 15.1355 40.2433C23.3946 40.2433 30.0899 33.548 30.0899 25.2889C30.0899 21.6195 28.7683 18.2588 26.5751 15.6567L15.9346 26.3526L22.8402 12.4695C22.8401 12.4694 22.8399 12.4694 22.8398 12.4693L29.0125 0.0595551Z" fill="url(#paint0_linear_1349_18060)"/>
<defs>
<linearGradient id="paint0_linear_1349_18060" x1="0.181152" y1="40.2433" x2="38.6742" y2="11.593" gradientUnits="userSpaceOnUse">
<stop stop-color="#03C17D"/>
<stop offset="1" stop-color="#97E81C"/>
</linearGradient>
</defs>
</svg>
