<svg width="32" height="32" viewBox="0 0 32 32" fill="none" xmlns="http://www.w3.org/2000/svg">
<g clip-path="url(#clip0_9246_11662)">
<mask id="mask0_9246_11662" style="mask-type:alpha" maskUnits="userSpaceOnUse" x="0" y="0" width="32" height="32">
<path d="M32 16C32 7.16344 24.8366 0 16 0C7.16344 0 0 7.16344 0 16C0 24.8366 7.16344 32 16 32C24.8366 32 32 24.8366 32 16Z" fill="white"/>
</mask>
<g mask="url(#mask0_9246_11662)">
<path d="M32 0H0V32H32V0Z" fill="#FFDD8C"/>
<path d="M44.6297 20.038L29.2232 -0.407043C27.096 -3.22992 23.0832 -3.79388 20.2603 -1.66669L-0.184756 13.7398C-3.00763 15.867 -3.5716 19.8798 -1.44441 22.7027L13.9621 43.1477C16.0893 45.9706 20.1021 46.5346 22.9249 44.4074L43.37 29.0009C46.1929 26.8737 46.7569 22.8609 44.6297 20.038Z" fill="#CC4E00"/>
<path d="M16.3086 14.9678C18.0374 15.9485 19.8128 16.0415 21.6346 15.2469" stroke="white" stroke-width="2.22222" stroke-linecap="round"/>
<path d="M14.3685 9.52557C14.3942 9.03532 14.1169 8.62228 13.7492 8.60301C13.3816 8.58374 13.0627 8.96554 13.037 9.45579C13.0113 9.94603 13.2885 10.3591 13.6562 10.3783C14.0239 10.3976 14.3428 10.0158 14.3685 9.52557Z" fill="white"/>
<path d="M25.0206 10.0839C25.0463 9.59367 24.769 9.18063 24.4013 9.16136C24.0337 9.14209 23.7148 9.52389 23.6891 10.0141C23.6634 10.5044 23.9406 10.9174 24.3083 10.9367C24.676 10.956 24.9949 10.5742 25.0206 10.0839Z" fill="white"/>
</g>
</g>
<defs>
<clipPath id="clip0_9246_11662">
<rect width="32" height="32" fill="white"/>
</clipPath>
</defs>
</svg>
