<svg width="32" height="32" viewBox="0 0 32 32" fill="none" xmlns="http://www.w3.org/2000/svg">
<path d="M32 0H0V32H32V0Z" fill="#FEF0A5"/>
<path d="M5.88737 10.6272C-0.0254441 17.194 0.504752 27.3108 7.07159 33.2236C13.6384 39.1364 23.7552 38.6062 29.668 32.0394C35.5808 25.4725 35.0506 15.3558 28.4838 9.44296C21.9169 3.53015 11.8002 4.06035 5.88737 10.6272Z" fill="#E3B18B"/>
<path d="M6.25586 17.9321C6.28671 18.8156 6.78427 19.6466 7.63907 20.2423C8.49388 20.8379 9.63591 21.1495 10.8139 21.1083C11.9919 21.0672 13.1095 20.6768 13.9206 20.0229C14.7318 19.3691 15.1702 18.5054 15.1393 17.6219" fill="black"/>
<path d="M6.57594 14.3633C6.55881 13.8727 6.24663 13.4854 5.87866 13.4982C5.5107 13.5111 5.22629 13.9192 5.24342 14.4098C5.26056 14.9005 5.57274 15.2878 5.94071 15.2749C6.30867 15.2621 6.59308 14.8539 6.57594 14.3633Z" fill="black"/>
<path d="M15.4595 14.053C15.4424 13.5624 15.1302 13.1751 14.7622 13.1879C14.3942 13.2008 14.1098 13.6089 14.127 14.0995C14.1441 14.5902 14.4563 14.9775 14.8243 14.9646C15.1922 14.9518 15.4766 14.5436 15.4595 14.053Z" fill="black"/>
</svg>
