<svg width="32" height="32" viewBox="0 0 32 32" fill="none" xmlns="http://www.w3.org/2000/svg">
<g clip-path="url(#clip0_9254_5052)">
<mask id="mask0_9254_5052" style="mask-type:alpha" maskUnits="userSpaceOnUse" x="0" y="0" width="32" height="32">
<path d="M32 16C32 7.16344 24.8366 0 16 0C7.16344 0 0 7.16344 0 16C0 24.8366 7.16344 32 16 32C24.8366 32 32 24.8366 32 16Z" fill="white"/>
</mask>
<g mask="url(#mask0_9254_5052)">
<path d="M32 0H0V32H32V0Z" fill="#32B9BE"/>
<path d="M15.8693 -0.942804L0.785181 17.0337C-1.2975 19.5157 -0.97375 23.2162 1.50829 25.2989L19.4848 40.3829C21.9668 42.4656 25.6673 42.1419 27.7499 39.6598L42.834 21.6833C44.9167 19.2013 44.593 15.5008 42.1109 13.4182L24.1344 -1.66591C21.6524 -3.74859 17.9519 -3.42484 15.8693 -0.942804Z" fill="#FDF4B0"/>
<path d="M18.6665 13.3333C20.4443 14.2221 22.2221 14.2221 23.9998 13.3333" stroke="black" stroke-width="2.22222" stroke-linecap="round"/>
<path d="M19.1109 8.88889C19.1109 8.39797 18.8124 8 18.4443 8C18.0761 8 17.7776 8.39797 17.7776 8.88889C17.7776 9.37981 18.0761 9.77778 18.4443 9.77778C18.8124 9.77778 19.1109 9.37981 19.1109 8.88889Z" fill="black"/>
<path d="M24.4442 8.88889C24.4442 8.39797 24.1457 8 23.7775 8C23.4093 8 23.1108 8.39797 23.1108 8.88889C23.1108 9.37981 23.4093 9.77778 23.7775 9.77778C24.1457 9.77778 24.4442 9.37981 24.4442 8.88889Z" fill="black"/>
</g>
</g>
<defs>
<clipPath id="clip0_9254_5052">
<rect width="32" height="32" fill="white"/>
</clipPath>
</defs>
</svg>
