<svg width="32" height="32" viewBox="0 0 32 32" fill="none" xmlns="http://www.w3.org/2000/svg">
<g clip-path="url(#clip0_9254_5033)">
<mask id="mask0_9254_5033" style="mask-type:alpha" maskUnits="userSpaceOnUse" x="0" y="0" width="32" height="32">
<path d="M32 16C32 7.16344 24.8366 0 16 0C7.16344 0 0 7.16344 0 16C0 24.8366 7.16344 32 16 32C24.8366 32 32 24.8366 32 16Z" fill="white"/>
</mask>
<g mask="url(#mask0_9254_5033)">
<path d="M32 0H0V32H32V0Z" fill="#FDF4B0"/>
<path d="M27.9489 -0.305318L5.34544 11.7132C2.22456 13.3726 1.03979 17.2478 2.6992 20.3686L14.7177 42.9721C16.3771 46.093 20.2523 47.2777 23.3732 45.6183L45.9766 33.5999C49.0975 31.9405 50.2823 28.0653 48.6229 24.9444L36.6044 2.34093C34.945 -0.779959 31.0698 -1.96472 27.9489 -0.305318Z" fill="#5BCEBF"/>
<path d="M15.2068 21.4868C15.2376 22.3703 15.7352 23.2013 16.59 23.797C17.4448 24.3926 18.5868 24.7041 19.7649 24.663C20.9429 24.6219 22.0604 24.2314 22.8716 23.5776C23.6827 22.9238 24.1211 22.0601 24.0903 21.1766" fill="black"/>
<path d="M15.4649 16.1411C15.4477 15.6505 15.1355 15.2632 14.7676 15.2761C14.3996 15.2889 14.1152 15.697 14.1323 16.1877C14.1495 16.6783 14.4617 17.0656 14.8296 17.0527C15.1976 17.0399 15.482 16.6318 15.4649 16.1411Z" fill="black"/>
<path d="M24.3484 15.8308C24.3313 15.3402 24.0191 14.9529 23.6511 14.9657C23.2832 14.9786 22.9988 15.3867 23.0159 15.8774C23.033 16.368 23.3452 16.7553 23.7132 16.7424C24.0811 16.7296 24.3655 16.3215 24.3484 15.8308Z" fill="black"/>
</g>
</g>
<defs>
<clipPath id="clip0_9254_5033">
<rect width="32" height="32" fill="white"/>
</clipPath>
</defs>
</svg>
