<svg width="32" height="32" viewBox="0 0 32 32" fill="none" xmlns="http://www.w3.org/2000/svg">
<g clip-path="url(#clip0_9254_4995)">
<mask id="mask0_9254_4995" style="mask-type:alpha" maskUnits="userSpaceOnUse" x="0" y="0" width="32" height="32">
<path d="M32 16C32 7.16344 24.8366 0 16 0C7.16344 0 0 7.16344 0 16C0 24.8366 7.16344 32 16 32C24.8366 32 32 24.8366 32 16Z" fill="white"/>
</mask>
<g mask="url(#mask0_9254_4995)">
<path d="M32 0H0V32H32V0Z" fill="#FF8030"/>
<path d="M-4.24761 21.497C-5.62995 30.2248 0.32469 38.4206 9.05245 39.803C17.7802 41.1853 25.9761 35.2307 27.3584 26.5029C28.7408 17.7751 22.7861 9.57927 14.0584 8.19693C5.33059 6.81459 -2.86527 12.7692 -4.24761 21.497Z" fill="#700808"/>
<path d="M7.30469 21.5732C7.44298 22.4464 8.0381 23.2106 8.95913 23.6976C9.88015 24.1846 11.0516 24.3547 12.2159 24.1703C13.3801 23.9859 14.4417 23.4622 15.1671 22.7144C15.8926 21.9665 16.2224 21.0559 16.0841 20.1827" fill="white"/>
<path d="M5.43156 18.27C5.35476 17.7851 4.9977 17.4387 4.63404 17.4963C4.27039 17.5539 4.03784 17.9937 4.11464 18.4785C4.19144 18.9634 4.54849 19.3098 4.91215 19.2522C5.27581 19.1946 5.50835 18.7548 5.43156 18.27Z" fill="white"/>
<path d="M17.7228 16.3232C17.646 15.8383 17.289 15.4919 16.9253 15.5495C16.5616 15.6071 16.3291 16.0469 16.4059 16.5318C16.4827 17.0166 16.8398 17.363 17.2034 17.3054C17.5671 17.2478 17.7996 16.8081 17.7228 16.3232Z" fill="white"/>
</g>
</g>
<defs>
<clipPath id="clip0_9254_4995">
<rect width="32" height="32" fill="white"/>
</clipPath>
</defs>
</svg>
