<svg width="32" height="32" viewBox="0 0 32 32" fill="none" xmlns="http://www.w3.org/2000/svg">
<g clip-path="url(#clip0_9254_5014)">
<mask id="mask0_9254_5014" style="mask-type:alpha" maskUnits="userSpaceOnUse" x="0" y="0" width="32" height="32">
<path d="M32 16C32 7.16344 24.8366 0 16 0C7.16344 0 0 7.16344 0 16C0 24.8366 7.16344 32 16 32C24.8366 32 32 24.8366 32 16Z" fill="white"/>
</mask>
<g mask="url(#mask0_9254_5014)">
<path d="M32 0H0V32H32V0Z" fill="#B7E1A1"/>
<path d="M5.64134 17.277L22.2205 30.7025C24.5096 32.5561 27.8679 32.2032 29.7216 29.9141L43.1471 13.3349C45.0008 11.0458 44.6478 7.68746 42.3587 5.83379L25.7796 -7.59171C23.4905 -9.44539 20.1321 -9.09241 18.2784 -6.80331L4.85294 9.7758C2.99927 12.0649 3.35224 15.4233 5.64134 17.277Z" fill="#FDF5A4"/>
<path d="M17.2273 12.905C18.8441 14.0611 20.6 14.3392 22.495 13.7393" stroke="black" stroke-width="2.22222" stroke-linecap="round"/>
<path d="M14.7106 8.90659C14.7874 8.42172 14.5548 7.98196 14.1912 7.92436C13.8275 7.86676 13.4705 8.21314 13.3937 8.69801C13.3169 9.18289 13.5494 9.62265 13.9131 9.68025C14.2767 9.73785 14.6338 9.39147 14.7106 8.90659Z" fill="black"/>
<path d="M27.0018 10.8534C27.0786 10.3685 26.8461 9.92873 26.4824 9.87114C26.1188 9.81354 25.7617 10.1599 25.6849 10.6448C25.6081 11.1297 25.8407 11.5694 26.2043 11.627C26.568 11.6846 26.925 11.3382 27.0018 10.8534Z" fill="black"/>
</g>
</g>
<defs>
<clipPath id="clip0_9254_5014">
<rect width="32" height="32" fill="white"/>
</clipPath>
</defs>
</svg>
