<svg width="24" height="24" viewBox="0 0 24 24" fill="none" xmlns="http://www.w3.org/2000/svg">
<path d="M2.25 12.5034L2.25 20.2502C2.25 21.0786 2.92157 21.7502 3.75 21.7502L9.75 21.7502C9.33579 21.7502 9 21.4144 9 21.0002L9 14.2502C9 13.836 9.33579 13.5002 9.75 13.5002L14.25 13.5002C14.6642 13.5002 15 13.836 15 14.2502L15 21.0002C15 21.4144 14.6642 21.7502 14.25 21.7502H20.25C21.0784 21.7502 21.75 21.0786 21.75 20.2502V12.5034C21.75 11.7502 21.4667 11.0245 20.9563 10.4706L14.2063 3.14466C13.0181 1.8551 10.9819 1.8551 9.79373 3.14466L3.04374 10.4705C2.53334 11.0245 2.25 11.7501 2.25 12.5034Z" fill="url(#paint0_linear_9246_11818)"/>
<defs>
<linearGradient id="paint0_linear_9246_11818" x1="5.80075" y1="17.1906" x2="26.4688" y2="-8.07431" gradientUnits="userSpaceOnUse">
<stop stop-color="#03C17D"/>
<stop offset="1" stop-color="#97E81C"/>
</linearGradient>
</defs>
</svg>
