<svg width="24" height="24" viewBox="0 0 24 24" fill="none" xmlns="http://www.w3.org/2000/svg">
<path d="M13.75 1.5C13.5511 1.50002 13.3603 1.57904 13.2197 1.71969C13.079 1.86034 13 2.05109 13 2.25V10.25C13 10.4489 13.079 10.6397 13.2197 10.7803C13.3603 10.921 13.5511 11 13.75 11H21.75C21.9489 11 22.1397 10.921 22.2803 10.7803C22.421 10.6397 22.5 10.4489 22.5 10.25C22.5 5.42622 18.5738 1.5 13.75 1.5ZM14.5 3.0752C17.9037 3.42788 20.5721 6.09634 20.9248 9.5H14.5V3.0752ZM10.75 4.5C5.92622 4.5 2 8.42622 2 13.25C2 18.0738 5.92622 22 10.75 22C15.5738 22 19.5 18.0738 19.5 13.25C19.5 13.0511 19.421 12.8603 19.2803 12.7197C19.1397 12.579 18.9489 12.5 18.75 12.5H11.5V5.25C11.5 5.05109 11.421 4.86034 11.2803 4.71969C11.1397 4.57904 10.9489 4.50002 10.75 4.5ZM10 6.0752V13.25C10 13.4489 10.079 13.6397 10.2197 13.7803C10.3603 13.921 10.5511 14 10.75 14H17.9248C17.5462 17.6537 14.5062 20.5 10.75 20.5C6.73678 20.5 3.5 17.2632 3.5 13.25C3.5 9.49381 6.34633 6.45379 10 6.0752Z" fill="#5C606B"/>
</svg>
