<svg width="146" height="148" viewBox="0 0 146 148" fill="none" xmlns="http://www.w3.org/2000/svg">
<g clip-path="url(#clip0_3596_20074)">
<g opacity="0.05">
<path d="M66.7949 42.1531C65.6413 42.1531 64.712 41.2245 64.712 40.0717C64.712 38.9189 65.6413 37.9902 66.7949 37.9902H78.0744C79.228 37.9902 80.1573 38.9189 80.1573 40.0717C80.1573 41.2245 79.228 42.1531 78.0744 42.1531H66.7949Z" fill="#77C9F4"/>
<path d="M55.6755 116.99C50.5805 116.99 46.4468 112.859 46.4468 107.767V40.2322C46.4468 35.1406 50.5805 31.0098 55.6755 31.0098H89.1617C94.2568 31.0098 98.3905 35.1406 98.3905 40.2322V107.735C98.3905 112.827 94.2568 116.958 89.1617 116.958H55.6755V116.99ZM56.4446 36.1974C54.0092 36.1974 52.0225 38.1828 52.0225 40.6164V107.383C52.0225 109.817 54.0092 111.802 56.4446 111.802H88.3927C90.828 111.802 92.8148 109.817 92.8148 107.383V40.6164C92.8148 38.1828 90.828 36.1974 88.3927 36.1974H56.4446Z" fill="#77C9F4"/>
</g>
<g opacity="0.05">
<path d="M66.7949 42.9226C65.2247 42.9226 63.9429 41.6417 63.9429 40.0726C63.9429 38.5035 65.2247 37.2227 66.7949 37.2227H78.0744C79.6446 37.2227 80.9264 38.5035 80.9264 40.0726C80.9264 41.6417 79.6446 42.9226 78.0744 42.9226H66.7949Z" fill="#77C9F4"/>
<path d="M55.6755 117.726C50.1639 117.726 45.6778 113.243 45.6778 107.735V40.2324C45.7098 34.7245 50.1639 30.2734 55.6755 30.2734H89.1617C94.6733 30.2734 99.1595 34.7566 99.1595 40.2644V107.767C99.1595 113.275 94.6733 117.758 89.1617 117.758H55.6755V117.726ZM56.4446 36.9341C54.4258 36.9341 52.7916 38.5672 52.7916 40.5846V107.351C52.7916 109.368 54.4258 111.002 56.4446 111.002H88.3927C90.4115 111.002 92.0457 109.368 92.0457 107.351V40.6166C92.0457 38.5992 90.4115 36.9661 88.3927 36.9661H56.4446V36.9341Z" fill="#77C9F4"/>
</g>
<g opacity="0.05">
<path d="M66.7949 43.6589C64.8081 43.6589 63.1739 42.0578 63.1739 40.0404C63.1739 38.023 64.7761 36.4219 66.7949 36.4219H78.0744C80.0612 36.4219 81.6954 38.023 81.6954 40.0404C81.6954 42.0578 80.0932 43.6589 78.0744 43.6589H66.7949Z" fill="#77C9F4"/>
<path d="M55.6755 118.495C49.7474 118.495 44.9407 113.691 44.9407 107.767V40.2323C44.9407 34.3082 49.7474 29.5049 55.6755 29.5049H89.1617C95.0899 29.5049 99.8965 34.3082 99.8965 40.2323V107.735C99.8965 113.659 95.0899 118.463 89.1617 118.463H55.6755V118.495ZM56.4446 37.7026C54.8424 37.7026 53.5286 39.0155 53.5286 40.6166V107.383C53.5286 108.984 54.8424 110.297 56.4446 110.297H88.3927C89.9949 110.297 91.3087 108.984 91.3087 107.383V40.6166C91.3087 39.0155 89.9949 37.7026 88.3927 37.7026H56.4446Z" fill="#77C9F4"/>
</g>
<g opacity="0.05">
<path d="M66.7949 45.1641C63.975 45.1641 61.6678 42.8585 61.6678 40.0406C61.6678 37.2226 63.975 34.917 66.7949 34.917H78.0744C80.8943 34.917 83.2015 37.2226 83.2015 40.0406C83.2015 42.8585 80.8943 45.1641 78.0744 45.1641H66.7949Z" fill="#77C9F4"/>
<path d="M55.6755 120C48.9142 120 43.4347 114.492 43.4347 107.767V40.2325C43.4347 33.5078 48.9463 28 55.6755 28H89.1617C95.9231 28 101.403 33.5078 101.403 40.2325V107.735C101.403 114.492 95.891 119.968 89.1617 119.968H55.6755V120ZM56.4446 39.2078C55.6755 39.2078 55.0347 39.8482 55.0347 40.6168V107.383C55.0347 108.152 55.6755 108.792 56.4446 108.792H88.3927C89.1617 108.792 89.8026 108.152 89.8026 107.383V40.6168C89.8026 39.8482 89.1617 39.2078 88.3927 39.2078H56.4446Z" fill="#77C9F4"/>
</g>
<g style="mix-blend-mode:multiply" opacity="0.44">
<path d="M66.7949 41.0969C66.2181 41.0969 65.7374 40.6165 65.7374 40.0401C65.7374 39.4637 66.2181 38.9834 66.7949 38.9834H78.0744C78.6512 38.9834 79.1319 39.4637 79.1319 40.0401C79.1319 40.6165 78.6512 41.0969 78.0744 41.0969H66.7949Z" fill="#202020"/>
<path d="M55.6755 115.933C51.1573 115.933 47.5043 112.25 47.5043 107.767V40.2321C47.5043 35.7169 51.1894 32.0664 55.6755 32.0664H89.1617C93.68 32.0664 97.333 35.749 97.333 40.2321V107.735C97.333 112.25 93.6479 115.901 89.1617 115.901H55.6755V115.933ZM56.4446 35.1405C53.4325 35.1405 50.965 37.6063 50.965 40.6164V107.383C50.965 110.393 53.4325 112.859 56.4446 112.859H88.3927C91.4048 112.859 93.8722 110.393 93.8722 107.383V40.6164C93.8722 37.6063 91.4048 35.1405 88.3927 35.1405H56.4446Z" fill="#202020"/>
</g>
<path d="M66.7949 40.6489H78.0744C78.3949 40.6489 78.6512 40.3927 78.6512 40.0725C78.6512 39.7523 78.3949 39.4961 78.0744 39.4961H66.7949C66.4744 39.4961 66.2181 39.7523 66.2181 40.0725C66.2181 40.3927 66.4744 40.6489 66.7949 40.6489Z" fill="#77C9F4"/>
<path d="M89.1617 115.485C93.4236 115.485 96.8844 112.027 96.8844 107.768V40.233C96.8844 35.974 93.4236 32.5156 89.1617 32.5156H55.6755C51.4137 32.5156 47.9529 35.974 47.9529 40.233V107.736C47.9529 111.995 51.4137 115.453 55.6755 115.453H89.1617V115.485ZM50.5164 107.384V40.6173C50.5164 37.351 53.1761 34.6931 56.4446 34.6931H88.3927C91.6612 34.6931 94.3208 37.351 94.3208 40.6173V107.384C94.3208 110.65 91.6612 113.308 88.3927 113.308H56.4446C53.1761 113.308 50.5164 110.65 50.5164 107.384Z" fill="#77C9F4"/>
<g style="mix-blend-mode:screen" opacity="0.5">
<path d="M66.7949 40.6489H78.0744C78.3949 40.6489 78.6512 40.3927 78.6512 40.0725C78.6512 39.7523 78.3949 39.4961 78.0744 39.4961H66.7949C66.4744 39.4961 66.2181 39.7523 66.2181 40.0725C66.2181 40.3927 66.4744 40.6489 66.7949 40.6489Z" fill="#77C9F4"/>
<path d="M55.6755 114.812C51.7982 114.812 48.6258 111.642 48.6258 107.767V40.2324C48.6258 36.3577 51.7982 33.1875 55.6755 33.1875H89.1617C93.0391 33.1875 96.2115 36.3577 96.2115 40.2324V107.735C96.2115 111.61 93.0391 114.78 89.1617 114.78H55.6755V114.812ZM56.4446 34.0201C52.7916 34.0201 49.8435 36.9661 49.8435 40.6167V107.383C49.8435 111.034 52.7916 113.98 56.4446 113.98H88.3927C92.0457 113.98 94.9938 111.034 94.9938 107.383V40.6167C94.9938 36.9661 92.0457 34.0201 88.3927 34.0201H56.4446Z" fill="#77C9F4"/>
</g>
<g style="mix-blend-mode:screen" opacity="0.5">
<path d="M66.7949 40.6489H78.0744C78.3949 40.6489 78.6512 40.3927 78.6512 40.0725C78.6512 39.7523 78.3949 39.4961 78.0744 39.4961H66.7949C66.4744 39.4961 66.2181 39.7523 66.2181 40.0725C66.2181 40.3927 66.4744 40.6489 66.7949 40.6489Z" fill="#77C9F4"/>
<path d="M91.501 113.82C93.9043 112.667 95.5385 110.201 95.5385 107.383V40.6169C95.5385 37.799 93.8722 35.3333 91.501 34.1805C93.9363 35.1091 95.6667 37.4788 95.6667 40.2647V107.768C95.6667 110.522 93.9363 112.891 91.501 113.852V113.82ZM53.3363 113.82C50.901 112.891 49.1706 110.522 49.1706 107.736V40.2327C49.1706 37.4788 50.901 35.1091 53.3363 34.1484C50.933 35.3012 49.2988 37.767 49.2988 40.5849V107.351C49.2988 110.169 50.965 112.635 53.3363 113.788V113.82Z" fill="#77C9F4"/>
</g>
<g style="mix-blend-mode:screen" opacity="0.5">
<path d="M66.7949 40.6489H78.0744C78.3949 40.6489 78.6512 40.3927 78.6512 40.0725C78.6512 39.7523 78.3949 39.4961 78.0744 39.4961H66.7949C66.4744 39.4961 66.2181 39.7523 66.2181 40.0725C66.2181 40.3927 66.4744 40.6489 66.7949 40.6489Z" fill="#77C9F4"/>
<path d="M89.1617 115.485C93.4236 115.485 96.8844 112.027 96.8844 107.768V40.233C96.8844 35.974 93.4236 32.5156 89.1617 32.5156H55.6755C51.4137 32.5156 47.9529 35.974 47.9529 40.233V107.736C47.9529 111.995 51.4137 115.453 55.6755 115.453H89.1617V115.485ZM50.5164 107.384V40.6173C50.5164 37.351 53.1761 34.6931 56.4446 34.6931H88.3927C91.6612 34.6931 94.3208 37.351 94.3208 40.6173V107.384C94.3208 110.65 91.6612 113.308 88.3927 113.308H56.4446C53.1761 113.308 50.5164 110.65 50.5164 107.384Z" fill="#77C9F4"/>
</g>
<g style="mix-blend-mode:soft-light">
<path d="M66.7949 40.6489H78.0744C78.3949 40.6489 78.6512 40.3927 78.6512 40.0725C78.6512 39.7523 78.3949 39.4961 78.0744 39.4961H66.7949C66.4744 39.4961 66.2181 39.7523 66.2181 40.0725C66.2181 40.3927 66.4744 40.6489 66.7949 40.6489Z" fill="url(#paint0_linear_3596_20074)"/>
<path d="M89.1617 115.485C93.4236 115.485 96.8844 112.027 96.8844 107.768V40.233C96.8844 35.974 93.4236 32.5156 89.1617 32.5156H55.6755C51.4137 32.5156 47.9529 35.974 47.9529 40.233V107.736C47.9529 111.995 51.4137 115.453 55.6755 115.453H89.1617V115.485ZM50.5164 107.384V40.6173C50.5164 37.351 53.1761 34.6931 56.4446 34.6931H88.3927C91.6612 34.6931 94.3208 37.351 94.3208 40.6173V107.384C94.3208 110.65 91.6612 113.308 88.3927 113.308H56.4446C53.1761 113.308 50.5164 110.65 50.5164 107.384Z" fill="url(#paint1_linear_3596_20074)"/>
</g>
<g style="mix-blend-mode:soft-light">
<path d="M66.7949 40.6489H78.0744C78.3949 40.6489 78.6512 40.3927 78.6512 40.0725C78.6512 39.7523 78.3949 39.4961 78.0744 39.4961H66.7949C66.4744 39.4961 66.2181 39.7523 66.2181 40.0725C66.2181 40.3927 66.4744 40.6489 66.7949 40.6489Z" fill="url(#paint2_linear_3596_20074)"/>
<path d="M89.1617 115.485C93.4236 115.485 96.8844 112.027 96.8844 107.768V40.233C96.8844 35.974 93.4236 32.5156 89.1617 32.5156H55.6755C51.4137 32.5156 47.9529 35.974 47.9529 40.233V107.736C47.9529 111.995 51.4137 115.453 55.6755 115.453H89.1617V115.485ZM50.5164 107.384V40.6173C50.5164 37.351 53.1761 34.6931 56.4446 34.6931H88.3927C91.6612 34.6931 94.3208 37.351 94.3208 40.6173V107.384C94.3208 110.65 91.6612 113.308 88.3927 113.308H56.4446C53.1761 113.308 50.5164 110.65 50.5164 107.384Z" fill="url(#paint3_linear_3596_20074)"/>
</g>
<path d="M62.8187 75.344L61.8267 76.736V80H59.4267V68.832H61.8267V73.504H61.9547L63.1707 71.648L65.1387 68.832H67.8267L64.4827 73.552L67.9867 80H65.2827L62.8187 75.344ZM69.2124 80V68.832H76.3484V70.8H71.6124V73.36H76.1884V75.328H71.6124V78.032H76.3484V80H69.2124ZM81.1262 80V76.048L77.5902 68.832H80.2622L81.4462 71.424L82.3102 73.616H82.4382L83.3022 71.424L84.4862 68.832H87.0622L83.5262 76.048V80H81.1262Z" fill="white"/>
</g>
<g clip-path="url(#clip1_3596_20074)">
<path d="M71.6144 144.198C32.6832 144.198 1 112.498 1 73.4866C1 34.4752 32.6832 2.80176 71.6144 2.80176C110.546 2.80176 142.229 34.5286 142.229 73.5133C142.229 112.498 110.546 144.225 71.6144 144.225V144.198ZM71.6144 6.13721C34.5218 6.13721 4.33087 36.3431 4.33087 73.4866C4.33087 110.63 34.4952 140.836 71.5877 140.836C108.68 140.836 138.845 110.63 138.845 73.4866C138.845 36.3431 108.707 6.13721 71.6144 6.13721Z" fill="#061A3D"/>
<path d="M71.6144 147C54.8534 147 38.4656 141.21 25.4619 130.67L31.0577 123.732C42.4893 132.991 56.8786 138.088 71.5877 138.088C107.135 138.088 136.073 109.109 136.073 73.5133C136.073 37.9174 107.161 8.91232 71.6144 8.91232V0C112.091 0 145 32.9809 145 73.4867C145 113.992 112.064 146.973 71.6144 146.973V147Z" fill="#061A3D"/>
</g>
<defs>
<linearGradient id="paint0_linear_3596_20074" x1="47.9529" y1="40.0725" x2="96.8844" y2="40.0725" gradientUnits="userSpaceOnUse">
<stop stop-color="white"/>
<stop offset="1"/>
</linearGradient>
<linearGradient id="paint1_linear_3596_20074" x1="47.9529" y1="73.9845" x2="96.8844" y2="73.9845" gradientUnits="userSpaceOnUse">
<stop stop-color="white"/>
<stop offset="1"/>
</linearGradient>
<linearGradient id="paint2_linear_3596_20074" x1="72.4347" y1="32.5152" x2="72.4347" y2="115.485" gradientUnits="userSpaceOnUse">
<stop stop-color="white"/>
<stop offset="1"/>
</linearGradient>
<linearGradient id="paint3_linear_3596_20074" x1="72.4347" y1="32.5156" x2="72.4347" y2="115.485" gradientUnits="userSpaceOnUse">
<stop stop-color="white"/>
<stop offset="1"/>
</linearGradient>
<clipPath id="clip0_3596_20074">
<rect width="58" height="92" fill="white" transform="translate(43.4347 28)"/>
</clipPath>
<clipPath id="clip1_3596_20074">
<rect width="144" height="147" fill="white" transform="translate(1)"/>
</clipPath>
</defs>
</svg>
