<svg width="146" height="148" viewBox="0 0 146 148" fill="none" xmlns="http://www.w3.org/2000/svg">
<g clip-path="url(#clip0_3596_20116)">
<g filter="url(#filter0_d_3596_20116)">
<path d="M72.4347 42.5C61.0806 42.5 52.1847 47.9366 52.1847 54.875V93.125C52.1847 100.063 61.0806 105.5 72.4347 105.5C83.7888 105.5 92.6847 100.063 92.6847 93.125V54.875C92.6847 47.9366 83.7888 42.5 72.4347 42.5ZM72.4347 101C64.045 101 56.6847 97.3213 56.6847 93.125V59.7772C59.7559 62.8906 65.6566 65 72.4347 65C79.2128 65 85.1134 62.8906 88.1847 59.7772V93.125C88.1847 97.3213 80.8244 101 72.4347 101Z" fill="url(#paint0_linear_3596_20116)"/>
</g>
<path d="M69.1645 76.832H73.0845C74.1831 76.832 75.0205 77.0987 75.5965 77.632C76.1831 78.1653 76.4765 78.8907 76.4765 79.808C76.4765 80.448 76.3165 80.96 75.9965 81.344C75.6871 81.7173 75.2391 81.9893 74.6525 82.16V82.256C75.3458 82.4267 75.8791 82.7253 76.2525 83.152C76.6365 83.5787 76.8285 84.1707 76.8285 84.928C76.8285 85.8667 76.5298 86.6133 75.9325 87.168C75.3458 87.7227 74.5191 88 73.4525 88H69.1645V76.832ZM72.7165 86.32C73.2925 86.32 73.7138 86.224 73.9805 86.032C74.2471 85.84 74.3805 85.488 74.3805 84.976V84.512C74.3805 84 74.2471 83.648 73.9805 83.456C73.7138 83.264 73.2925 83.168 72.7165 83.168H71.5005V86.32H72.7165ZM72.4125 81.568C72.9778 81.568 73.3885 81.4773 73.6445 81.296C73.9005 81.104 74.0285 80.7627 74.0285 80.272V79.792C74.0285 79.3013 73.9005 78.9653 73.6445 78.784C73.3885 78.6027 72.9778 78.512 72.4125 78.512H71.5005V81.568H72.4125Z" fill="white"/>
</g>
<g clip-path="url(#clip1_3596_20116)">
<path d="M71.6144 144.198C32.6832 144.198 1 112.498 1 73.4866C1 34.4752 32.6832 2.80176 71.6144 2.80176C110.546 2.80176 142.229 34.5286 142.229 73.5133C142.229 112.498 110.546 144.225 71.6144 144.225V144.198ZM71.6144 6.13721C34.5218 6.13721 4.33087 36.3431 4.33087 73.4866C4.33087 110.63 34.4952 140.836 71.5877 140.836C108.68 140.836 138.845 110.63 138.845 73.4866C138.845 36.3431 108.707 6.13721 71.6144 6.13721Z" fill="#061A3D"/>
<path d="M71.6144 147C54.8534 147 38.4656 141.21 25.4619 130.67L31.0577 123.732C42.4893 132.991 56.8786 138.088 71.5877 138.088C107.135 138.088 136.073 109.109 136.073 73.5133C136.073 37.9174 107.161 8.91232 71.6144 8.91232V0C112.091 0 145 32.9809 145 73.4867C145 113.992 112.064 146.973 71.6144 146.973V147Z" fill="#061A3D"/>
</g>
<defs>
<filter id="filter0_d_3596_20116" x="48.1847" y="38.5" width="48.5" height="71" filterUnits="userSpaceOnUse" color-interpolation-filters="sRGB">
<feFlood flood-opacity="0" result="BackgroundImageFix"/>
<feColorMatrix in="SourceAlpha" type="matrix" values="0 0 0 0 0 0 0 0 0 0 0 0 0 0 0 0 0 0 127 0" result="hardAlpha"/>
<feOffset/>
<feGaussianBlur stdDeviation="2"/>
<feComposite in2="hardAlpha" operator="out"/>
<feColorMatrix type="matrix" values="0 0 0 0 0.741176 0 0 0 0 0.858824 0 0 0 0 0.909804 0 0 0 0.5 0"/>
<feBlend mode="normal" in2="BackgroundImageFix" result="effect1_dropShadow_3596_20116"/>
<feBlend mode="normal" in="SourceGraphic" in2="effect1_dropShadow_3596_20116" result="shape"/>
</filter>
<linearGradient id="paint0_linear_3596_20116" x1="72.4347" y1="42.5" x2="72.4347" y2="105.5" gradientUnits="userSpaceOnUse">
<stop stop-color="#CCE0E9"/>
<stop offset="1" stop-color="#67BBE2"/>
</linearGradient>
<clipPath id="clip0_3596_20116">
<rect width="72" height="72" fill="white" transform="translate(36.4347 38)"/>
</clipPath>
<clipPath id="clip1_3596_20116">
<rect width="144" height="147" fill="white" transform="translate(1)"/>
</clipPath>
</defs>
</svg>
