<svg width="13" height="13" viewBox="0 0 13 13" fill="none" xmlns="http://www.w3.org/2000/svg">
<path d="M12.3566 4.61668L5.83579 11.137C5.76033 11.2125 5.67076 11.2723 5.57217 11.3132C5.47358 11.354 5.36791 11.375 5.2612 11.375C5.15448 11.375 5.04881 11.354 4.95022 11.3132C4.85163 11.2723 4.76206 11.2125 4.68661 11.137L1.04965 7.48074C0.897549 7.3284 0.812119 7.12193 0.812119 6.90666C0.812119 6.69139 0.897549 6.48491 1.04965 6.33257L2.2684 5.11382C2.42025 4.96194 2.62607 4.87635 2.84084 4.87578C3.05562 4.87521 3.26188 4.9597 3.41454 5.11078L5.27516 6.90183L5.28075 6.90742L9.98969 2.26754C10.142 2.1159 10.3481 2.03076 10.563 2.03076C10.7779 2.03076 10.9841 2.1159 11.1363 2.26754L12.3551 3.46394C12.4312 3.53936 12.4916 3.62908 12.5329 3.72794C12.5742 3.8268 12.5955 3.93285 12.5957 4.03999C12.5958 4.14713 12.5748 4.25324 12.5337 4.35221C12.4927 4.45118 12.4325 4.54106 12.3566 4.61668Z" fill="#0C5338"/>
</svg>
