<svg width="72" height="67" viewBox="0 0 72 67" fill="none" xmlns="http://www.w3.org/2000/svg">
<g filter="url(#filter0_bdi_4887_23411)">
<g clip-path="url(#clip0_4887_23411)">
<path d="M19.7267 34.3282C16.9075 35.7213 14.3447 36.999 11.772 38.2503C10.7078 38.7691 9.99511 39.4921 9.99999 40.7338C10.0049 41.9779 10.7469 42.6864 11.7989 43.2028C20.2124 47.3339 28.6234 51.465 37.0272 55.6129C38.0108 56.098 38.9506 56.1436 39.9318 55.6585C48.4112 51.4794 56.8906 47.3051 65.3724 43.1308C66.3951 42.6288 67.0444 41.8915 67.042 40.7074C67.0395 39.5233 66.3805 38.7907 65.3602 38.2888C63.039 37.1503 60.7178 36.0095 58.4015 34.8614C58.1012 34.7125 57.8205 34.5252 57.4178 34.2874C60.1027 32.9592 62.6265 31.6911 65.1698 30.459C66.2682 29.9258 67.0493 29.2148 67.042 27.9179C67.0346 26.6161 66.2267 25.922 65.1381 25.3936C62.5948 24.1615 60.0685 22.8981 57.369 21.5628C57.8547 21.3106 58.1989 21.1232 58.5503 20.9479C60.7959 19.8359 63.0366 18.7166 65.2894 17.6214C66.3536 17.105 67.0639 16.3773 67.0566 15.1356C67.0493 13.9491 66.3756 13.231 65.3578 12.729C56.8735 8.5667 48.4087 4.36358 39.8903 0.266134C39.1409 -0.0941335 37.8986 -0.0845264 37.1444 0.278143C28.6259 4.37559 20.1587 8.58111 11.6768 12.7506C10.6517 13.255 9.99999 13.9875 9.99999 15.1692C9.99999 16.3533 10.6615 17.0882 11.6817 17.5878C14.0029 18.7262 16.3242 19.8671 18.6405 21.0151C18.9407 21.1641 19.2214 21.3514 19.6412 21.5964C16.9856 22.9054 14.496 24.1519 11.9917 25.3624C10.8689 25.9028 9.99511 26.5825 9.99999 27.9515C10.0049 29.3205 10.8909 29.993 12.0088 30.5334C14.5131 31.7463 17.0051 32.988 19.7267 34.3306V34.3282Z" fill="url(#paint0_linear_4887_23411)"/>
</g>
<g filter="url(#filter1_bdi_4887_23411)">
<path d="M13.717 37.3242C10.9958 35.9818 8.50862 34.7403 6.00682 33.5276C4.89004 32.9872 4.0049 32.3172 4.00002 30.9485C3.99515 29.5797 4.86809 28.9001 5.98732 28.3573C8.49155 27.147 10.9787 25.9007 13.6292 24.5919C13.2123 24.347 12.9294 24.1597 12.6295 24.0108C10.3155 22.8653 7.99655 21.7223 5.67764 20.584C4.66083 20.0845 4.00002 19.3521 4.00002 18.1682C4.00002 16.9867 4.64864 16.2543 5.67276 15.7524C14.1486 11.5812 22.6074 7.37631 31.1174 3.27712C31.8684 2.91451 33.112 2.90491 33.8606 3.26512C42.3706 7.3619 50.8294 11.5644 59.3028 15.7356C60.3196 16.2351 60.9926 16.9555 60.9999 18.1418C61.0073 19.3809 60.2953 20.1085 59.2346 20.6272C56.9839 21.7223 54.7455 22.8413 52.5021 23.9532C52.151 24.1261 51.8072 24.3134 51.322 24.5679C54.0188 25.9007 56.5426 27.1662 59.0834 28.3982C60.1733 28.9265 60.9804 29.6181 60.9853 30.922C60.9926 32.2212 60.2123 32.932 59.1151 33.4627C56.5743 34.6946 54.053 35.9626 51.3707 37.2905C51.7731 37.5259 52.0535 37.7156 52.3534 37.8645C54.6674 39.0099 56.9864 40.153 59.3053 41.2913C60.3245 41.7908 60.9829 42.5256 60.9853 43.7095C60.9878 44.891 60.3391 45.6282 59.3175 46.1325C50.844 50.3037 42.373 54.4798 33.9021 58.6582C32.9194 59.1433 31.983 59.0977 31.0004 58.6126C22.605 54.4654 14.1998 50.3349 5.79712 46.2045C4.74617 45.6786 4.0049 44.9702 4.00002 43.7287C3.99515 42.4896 4.70716 41.7644 5.7703 41.2481C8.34281 39.9969 10.9007 38.7194 13.717 37.3266V37.3242ZM12.4344 18.125C12.7612 18.3267 12.888 18.4203 13.0294 18.49C19.2888 21.5782 25.5432 24.6736 31.8245 27.7162C32.2293 27.9131 32.9243 27.8338 33.3534 27.6249C39.4153 24.6832 45.4552 21.6983 51.4975 18.7205C51.8145 18.5644 52.1193 18.3795 52.5363 18.149C52.0681 17.904 51.7219 17.7095 51.3658 17.5342C46.5183 15.1448 41.6732 12.753 36.8233 10.3709C35.4114 9.67685 33.9874 8.46655 32.5756 8.47375C31.115 8.48096 29.6446 9.65524 28.2035 10.3613C22.9902 12.9163 17.7843 15.4882 12.4344 18.1226V18.125ZM12.4393 43.6807C12.7465 43.8704 12.9026 43.9856 13.0757 44.0697C19.2985 47.1339 25.514 50.2101 31.7636 53.219C32.2269 53.4424 33.0218 53.3439 33.5192 53.1038C39.5079 50.2053 45.4674 47.2515 51.4341 44.3074C51.7682 44.1417 52.0852 43.9424 52.5582 43.6735C50.4441 42.6337 48.4764 41.7091 46.5573 40.6957C45.8014 40.2947 45.2089 40.2803 44.4311 40.6741C41.1246 42.3527 37.7572 43.916 34.458 45.6114C33.1096 46.3054 31.944 46.3438 30.5761 45.633C27.2135 43.8896 23.79 42.2566 20.3763 40.6093C20.0105 40.4316 19.4594 40.2491 19.1498 40.3932C16.926 41.4234 14.7436 42.5352 12.4369 43.6783L12.4393 43.6807ZM52.5607 30.91C50.3832 29.8318 48.3617 28.8616 46.372 27.829C45.7307 27.4952 45.2211 27.5024 44.5774 27.8266C41.1148 29.5652 37.6182 31.2318 34.1605 32.9776C33.0072 33.5588 31.9733 33.5516 30.8224 32.9704C27.3647 31.2246 23.8803 29.5316 20.3909 27.8458C20.0276 27.6705 19.4814 27.4784 19.1766 27.6201C16.9601 28.6431 14.785 29.7502 12.4442 30.9052C12.7807 31.1117 12.9343 31.2246 13.1026 31.3087C19.3253 34.3752 25.5432 37.4562 31.7929 40.4724C32.2293 40.6837 32.9779 40.5901 33.4436 40.3643C39.4348 37.461 45.4015 34.5097 51.3707 31.568C51.717 31.3975 52.0486 31.1982 52.5607 30.9148V30.91Z" fill="white" fill-opacity="0.5" shape-rendering="crispEdges"/>
</g>
</g>
<defs>
<filter id="filter0_bdi_4887_23411" x="0" y="-4" width="71.0566" height="71" filterUnits="userSpaceOnUse" color-interpolation-filters="sRGB">
<feFlood flood-opacity="0" result="BackgroundImageFix"/>
<feGaussianBlur in="BackgroundImageFix" stdDeviation="2"/>
<feComposite in2="SourceAlpha" operator="in" result="effect1_backgroundBlur_4887_23411"/>
<feColorMatrix in="SourceAlpha" type="matrix" values="0 0 0 0 0 0 0 0 0 0 0 0 0 0 0 0 0 0 127 0" result="hardAlpha"/>
<feOffset dy="4"/>
<feGaussianBlur stdDeviation="2"/>
<feComposite in2="hardAlpha" operator="out"/>
<feColorMatrix type="matrix" values="0 0 0 0 0 0 0 0 0 0 0 0 0 0 0 0 0 0 0.25 0"/>
<feBlend mode="normal" in2="effect1_backgroundBlur_4887_23411" result="effect2_dropShadow_4887_23411"/>
<feBlend mode="normal" in="SourceGraphic" in2="effect2_dropShadow_4887_23411" result="shape"/>
<feColorMatrix in="SourceAlpha" type="matrix" values="0 0 0 0 0 0 0 0 0 0 0 0 0 0 0 0 0 0 127 0" result="hardAlpha"/>
<feOffset dy="4"/>
<feGaussianBlur stdDeviation="2"/>
<feComposite in2="hardAlpha" operator="arithmetic" k2="-1" k3="1"/>
<feColorMatrix type="matrix" values="0 0 0 0 1 0 0 0 0 1 0 0 0 0 1 0 0 0 0.6 0"/>
<feBlend mode="normal" in2="shape" result="effect3_innerShadow_4887_23411"/>
</filter>
<filter id="filter1_bdi_4887_23411" x="0" y="-1" width="65" height="68" filterUnits="userSpaceOnUse" color-interpolation-filters="sRGB">
<feFlood flood-opacity="0" result="BackgroundImageFix"/>
<feGaussianBlur in="BackgroundImageFix" stdDeviation="2"/>
<feComposite in2="SourceAlpha" operator="in" result="effect1_backgroundBlur_4887_23411"/>
<feColorMatrix in="SourceAlpha" type="matrix" values="0 0 0 0 0 0 0 0 0 0 0 0 0 0 0 0 0 0 127 0" result="hardAlpha"/>
<feOffset dy="4"/>
<feGaussianBlur stdDeviation="2"/>
<feComposite in2="hardAlpha" operator="out"/>
<feColorMatrix type="matrix" values="0 0 0 0 0 0 0 0 0 0 0 0 0 0 0 0 0 0 0.25 0"/>
<feBlend mode="normal" in2="effect1_backgroundBlur_4887_23411" result="effect2_dropShadow_4887_23411"/>
<feBlend mode="normal" in="SourceGraphic" in2="effect2_dropShadow_4887_23411" result="shape"/>
<feColorMatrix in="SourceAlpha" type="matrix" values="0 0 0 0 0 0 0 0 0 0 0 0 0 0 0 0 0 0 127 0" result="hardAlpha"/>
<feOffset dy="2"/>
<feGaussianBlur stdDeviation="2"/>
<feComposite in2="hardAlpha" operator="arithmetic" k2="-1" k3="1"/>
<feColorMatrix type="matrix" values="0 0 0 0 0 0 0 0 0 0 0 0 0 0 0 0 0 0 0.25 0"/>
<feBlend mode="normal" in2="shape" result="effect3_innerShadow_4887_23411"/>
</filter>
<linearGradient id="paint0_linear_4887_23411" x1="9.99997" y1="56.0003" x2="65.9895" y2="-1.04637" gradientUnits="userSpaceOnUse">
<stop offset="0.126828" stop-color="#135124"/>
<stop offset="0.743451" stop-color="#447612"/>
</linearGradient>
<clipPath id="clip0_4887_23411">
<rect width="57.0566" height="56" fill="white" transform="translate(10)"/>
</clipPath>
</defs>
</svg>
