<svg width="87" height="77" viewBox="0 0 87 77" fill="none" xmlns="http://www.w3.org/2000/svg">
<path d="M60.6668 9.85059C60.6668 11.96 58.991 13.9053 56.1668 15.4756C52.7566 17.3623 47.6707 18.6982 41.8347 19.0967C41.4011 18.8857 40.9675 18.6865 40.5105 18.5107C35.8933 16.5771 29.7527 15.4756 23.1668 15.4756C22.1941 15.4756 21.2449 15.499 20.2957 15.5459L20.1668 15.4756C17.3425 13.9053 15.6668 11.96 15.6668 9.85059C15.6668 4.6709 25.7449 0.475586 38.1668 0.475586C50.5886 0.475586 60.6668 4.6709 60.6668 9.85059ZM19.4988 19.3545C20.6941 19.2725 21.9246 19.2256 23.1668 19.2256C30.4558 19.2256 36.9246 20.667 41.0378 22.9053C43.9441 24.4873 45.6668 26.4561 45.6668 28.6006C45.6668 29.0693 45.5847 29.5264 45.4207 29.9717C44.8816 31.5186 43.4285 32.9365 41.3191 34.1318C41.3074 34.1436 41.2839 34.1436 41.2722 34.1553C41.2371 34.1787 41.2019 34.1904 41.1668 34.2139C37.0652 36.4873 30.5261 37.9639 23.1668 37.9639C16.1824 37.9639 9.93629 36.6396 5.79957 34.5537C5.57691 34.4482 5.36597 34.3311 5.15504 34.2139C2.34254 32.6553 0.666756 30.71 0.666756 28.6006C0.666756 24.5225 6.92457 21.042 15.6668 19.7646C16.8972 19.5889 18.1746 19.4482 19.4988 19.3545ZM49.4168 28.6006C49.4168 26.0342 48.1746 23.9248 46.5925 22.3428C49.9089 21.8271 52.9441 21.0068 55.5222 19.9404C57.4324 19.1436 59.2136 18.1592 60.6668 16.9521V21.1006C60.6668 23.3623 58.7332 25.4482 55.5339 27.0654C53.823 27.9326 51.7371 28.6709 49.3933 29.2334C49.405 29.0225 49.4168 28.8232 49.4168 28.6123V28.6006ZM45.6668 39.8506C45.6668 41.96 43.991 43.9053 41.1668 45.4756C40.9558 45.5928 40.7449 45.6982 40.5222 45.8154C36.3972 47.9014 30.1511 49.2256 23.1668 49.2256C15.8074 49.2256 9.26832 47.749 5.16676 45.4756C2.34254 43.9053 0.666756 41.96 0.666756 39.8506V35.7021C2.1316 36.9092 3.90113 37.8936 5.81129 38.6904C10.4402 40.624 16.5808 41.7256 23.1668 41.7256C29.7527 41.7256 35.8933 40.624 40.5222 38.6904C41.4363 38.3154 42.3152 37.8818 43.1472 37.4131C43.8621 37.0146 44.53 36.5693 45.1628 36.1006C45.3386 35.9717 45.5027 35.8311 45.6668 35.7021V39.8506ZM49.4168 39.8506V33.0654C51.6433 32.5732 53.6941 31.9521 55.5222 31.1904C57.4324 30.3936 59.2136 29.4092 60.6668 28.2021V32.3506C60.6668 33.5811 60.0808 34.8115 58.9207 35.9717C57.0105 37.8818 53.6472 39.4521 49.3933 40.4717C49.405 40.2725 49.4168 40.0615 49.4168 39.8506ZM23.1668 52.9756C29.7527 52.9756 35.8933 51.874 40.5222 49.9404C42.4324 49.1436 44.2136 48.1592 45.6668 46.9521V51.1006C45.6668 56.2803 35.5886 60.4756 23.1668 60.4756C10.7449 60.4756 0.666756 56.2803 0.666756 51.1006V46.9521C2.1316 48.1592 3.90113 49.1436 5.81129 49.9404C10.4402 51.874 16.5808 52.9756 23.1668 52.9756Z" fill="url(#paint0_linear_3528_19811)"/>
<g filter="url(#filter0_bdi_3528_19811)">
<path d="M38.9 34.7778V44.1111H57.8V59.6667H38.9V69L20 51.8889L38.9 34.7778ZM83 30.1111L64.1 13V22.3333H45.2V37.8889H64.1V47.2222L83 30.1111Z" fill="white" fill-opacity="0.5" shape-rendering="crispEdges"/>
</g>
<defs>
<filter id="filter0_bdi_3528_19811" x="16" y="9" width="71" height="68" filterUnits="userSpaceOnUse" color-interpolation-filters="sRGB">
<feFlood flood-opacity="0" result="BackgroundImageFix"/>
<feGaussianBlur in="BackgroundImageFix" stdDeviation="2"/>
<feComposite in2="SourceAlpha" operator="in" result="effect1_backgroundBlur_3528_19811"/>
<feColorMatrix in="SourceAlpha" type="matrix" values="0 0 0 0 0 0 0 0 0 0 0 0 0 0 0 0 0 0 127 0" result="hardAlpha"/>
<feOffset dy="4"/>
<feGaussianBlur stdDeviation="2"/>
<feComposite in2="hardAlpha" operator="out"/>
<feColorMatrix type="matrix" values="0 0 0 0 0 0 0 0 0 0 0 0 0 0 0 0 0 0 0.25 0"/>
<feBlend mode="normal" in2="effect1_backgroundBlur_3528_19811" result="effect2_dropShadow_3528_19811"/>
<feBlend mode="normal" in="SourceGraphic" in2="effect2_dropShadow_3528_19811" result="shape"/>
<feColorMatrix in="SourceAlpha" type="matrix" values="0 0 0 0 0 0 0 0 0 0 0 0 0 0 0 0 0 0 127 0" result="hardAlpha"/>
<feOffset dy="4"/>
<feGaussianBlur stdDeviation="2"/>
<feComposite in2="hardAlpha" operator="arithmetic" k2="-1" k3="1"/>
<feColorMatrix type="matrix" values="0 0 0 0 1 0 0 0 0 1 0 0 0 0 1 0 0 0 0.7 0"/>
<feBlend mode="normal" in2="shape" result="effect3_innerShadow_3528_19811"/>
</filter>
<linearGradient id="paint0_linear_3528_19811" x1="0.666756" y1="60.4756" x2="60.6668" y2="0.475586" gradientUnits="userSpaceOnUse">
<stop stop-color="#00432B"/>
<stop offset="1" stop-color="#53820C"/>
</linearGradient>
</defs>
</svg>
