<svg width="128" height="130" viewBox="0 0 128 130" fill="none" xmlns="http://www.w3.org/2000/svg">
<g filter="url(#filter0_d_3528_19827)">
<g filter="url(#filter1_d_3528_19827)">
<path d="M95.8964 40.7575C91.5208 69.0189 78.0188 81.4038 68.3392 84.3866C68.0882 84.464 67.829 84.464 67.578 84.3866C57.8984 81.4038 44.3965 69.0189 40.0208 40.7575C39.911 40.0485 40.3564 39.365 41.0497 39.1807C43.6491 38.49 49.8394 36.7954 53.8961 35.2809C58.8211 33.4423 65.1358 29.8846 67.2404 28.6688C67.6865 28.4112 68.2308 28.4112 68.6768 28.6688C70.7814 29.8846 77.0961 33.4423 82.0211 35.2809C86.0778 36.7954 92.2681 38.49 94.8675 39.1807C95.5609 39.365 96.0062 40.0485 95.8964 40.7575Z" fill="url(#paint0_linear_3528_19827)"/>
</g>
<g filter="url(#filter2_bi_3528_19827)">
<path fill-rule="evenodd" clip-rule="evenodd" d="M57.0892 97.6278C66.7688 94.645 80.2708 82.2601 84.6464 53.9987C84.7562 53.2897 84.3109 52.6062 83.6175 52.422C81.0181 51.7312 74.8278 50.0366 70.7711 48.5221C65.8461 46.6835 59.5314 43.1258 57.4268 41.91C56.9808 41.6524 56.4365 41.6524 55.9904 41.91C53.8858 43.1258 47.5711 46.6835 42.6461 48.5221C38.5894 50.0366 32.3991 51.7312 29.7997 52.422C29.1064 52.6062 28.661 53.2897 28.7708 53.9987C33.1465 82.2601 46.6484 94.645 56.328 97.6278C56.579 97.7052 56.8382 97.7052 57.0892 97.6278ZM69.2248 65.9988C70.3338 64.9112 70.3511 63.1305 69.2634 62.0215C68.1758 60.9126 66.3951 60.8953 65.2862 61.9829L55.068 72.0046L50.9436 67.9595C49.8346 66.8718 48.0539 66.8891 46.9663 67.9981C45.8787 69.1071 45.8959 70.8877 47.0049 71.9754L53.0987 77.9519C54.1924 79.0247 55.9436 79.0247 57.0373 77.9519L69.2248 65.9988Z" fill="white" fill-opacity="0.5"/>
</g>
</g>
<defs>
<filter id="filter0_d_3528_19827" x="-10.6667" y="-11" width="150" height="150" filterUnits="userSpaceOnUse" color-interpolation-filters="sRGB">
<feFlood flood-opacity="0" result="BackgroundImageFix"/>
<feColorMatrix in="SourceAlpha" type="matrix" values="0 0 0 0 0 0 0 0 0 0 0 0 0 0 0 0 0 0 127 0" result="hardAlpha"/>
<feOffset dx="2" dy="2"/>
<feGaussianBlur stdDeviation="15"/>
<feColorMatrix type="matrix" values="0 0 0 0 0 0 0 0 0 0 0 0 0 0 0 0 0 0 0.3 0"/>
<feBlend mode="normal" in2="BackgroundImageFix" result="effect1_dropShadow_3528_19827"/>
<feBlend mode="normal" in="SourceGraphic" in2="effect1_dropShadow_3528_19827" result="shape"/>
</filter>
<filter id="filter1_d_3528_19827" x="16.0042" y="8.47559" width="103.909" height="103.969" filterUnits="userSpaceOnUse" color-interpolation-filters="sRGB">
<feFlood flood-opacity="0" result="BackgroundImageFix"/>
<feColorMatrix in="SourceAlpha" type="matrix" values="0 0 0 0 0 0 0 0 0 0 0 0 0 0 0 0 0 0 127 0" result="hardAlpha"/>
<feOffset dy="4"/>
<feGaussianBlur stdDeviation="12"/>
<feComposite in2="hardAlpha" operator="out"/>
<feColorMatrix type="matrix" values="0 0 0 0 0 0 0 0 0 0 0 0 0 0 0 0 0 0 0.35 0"/>
<feBlend mode="normal" in2="BackgroundImageFix" result="effect1_dropShadow_3528_19827"/>
<feBlend mode="normal" in="SourceGraphic" in2="effect1_dropShadow_3528_19827" result="shape"/>
</filter>
<filter id="filter2_bi_3528_19827" x="24.7542" y="37.7168" width="63.9088" height="63.9688" filterUnits="userSpaceOnUse" color-interpolation-filters="sRGB">
<feFlood flood-opacity="0" result="BackgroundImageFix"/>
<feGaussianBlur in="BackgroundImageFix" stdDeviation="2"/>
<feComposite in2="SourceAlpha" operator="in" result="effect1_backgroundBlur_3528_19827"/>
<feBlend mode="normal" in="SourceGraphic" in2="effect1_backgroundBlur_3528_19827" result="shape"/>
<feColorMatrix in="SourceAlpha" type="matrix" values="0 0 0 0 0 0 0 0 0 0 0 0 0 0 0 0 0 0 127 0" result="hardAlpha"/>
<feOffset dy="4"/>
<feGaussianBlur stdDeviation="4"/>
<feComposite in2="hardAlpha" operator="arithmetic" k2="-1" k3="1"/>
<feColorMatrix type="matrix" values="0 0 0 0 1 0 0 0 0 1 0 0 0 0 1 0 0 0 1 0"/>
<feBlend mode="normal" in2="shape" result="effect2_innerShadow_3528_19827"/>
</filter>
<linearGradient id="paint0_linear_3528_19827" x1="40.0042" y1="84.4446" x2="95.9732" y2="28.5359" gradientUnits="userSpaceOnUse">
<stop stop-color="#00432B"/>
<stop offset="1" stop-color="#53820C"/>
</linearGradient>
</defs>
</svg>
