<svg width="22" height="21" viewBox="0 0 22 21" fill="none" xmlns="http://www.w3.org/2000/svg">
<path id="Vector" d="M16.4981 1.45423L15.8527 10.8205L5.82369 19.5589L6.46904 10.1752L16.4806 1.45423C15.081 0.618946 13.5026 0.128701 11.876 0.0239994C9.30799 -0.149875 6.76557 0.625555 4.7317 2.20299C2.69783 3.78042 1.3142 6.04995 0.843662 8.58047C0.373122 11.111 0.848446 13.7262 2.17934 15.9293C3.51024 18.1324 5.60398 19.7699 8.06285 20.5308C10.5217 21.2916 13.1744 21.1228 15.517 20.0564C17.8596 18.99 19.7289 17.1003 20.7698 14.7463C21.8107 12.3923 21.9507 9.7379 21.1632 7.28744C20.3756 4.83698 18.7155 2.76113 16.4981 1.45423Z" fill="#90939E"/>
</svg>
