<svg width="41" height="40" viewBox="0 0 41 40" fill="none" xmlns="http://www.w3.org/2000/svg">
<g id="discord">
<path id="Vector" d="M32.4124 10.0092C30.2373 9.07026 27.9117 8.38781 25.4804 7.99927C25.1817 8.4974 24.8329 9.16739 24.5925 9.70039C22.0078 9.34174 19.447 9.34174 16.91 9.70039C16.6695 9.16739 16.3127 8.4974 16.0115 7.99927C13.5775 8.38781 11.2492 9.07275 9.07422 10.0142C4.68725 16.1313 3.49802 22.0965 4.09263 27.9769C7.0023 29.9819 9.82212 31.1998 12.5944 31.9968C13.2788 31.1276 13.8893 30.2036 14.4152 29.2297C13.4136 28.8785 12.4543 28.4452 11.5478 27.942C11.7883 27.7777 12.0235 27.6058 12.2508 27.429C17.7795 29.815 23.7864 29.815 29.249 27.429C29.4789 27.6058 29.7141 27.7777 29.952 27.942C29.0428 28.4476 28.0809 28.881 27.0793 29.2322C27.6052 30.2036 28.213 31.1301 28.9001 31.9993C31.675 31.2023 34.4975 29.9844 37.4071 27.9769C38.1049 21.16 36.2153 15.2496 32.4124 10.0092ZM15.1684 24.3605C13.5088 24.3605 12.1477 22.9308 12.1477 21.1899C12.1477 19.4489 13.4797 18.0168 15.1684 18.0168C16.8571 18.0168 18.2181 19.4464 18.189 21.1899C18.1917 22.9308 16.8571 24.3605 15.1684 24.3605ZM26.3314 24.3605C24.6718 24.3605 23.3107 22.9308 23.3107 21.1899C23.3107 19.4489 24.6427 18.0168 26.3314 18.0168C28.0201 18.0168 29.3811 19.4464 29.3521 21.1899C29.3521 22.9308 28.0201 24.3605 26.3314 24.3605Z" fill="#90939E"/>
</g>
</svg>
