<svg width="65" height="64" viewBox="0 0 65 64" fill="none" xmlns="http://www.w3.org/2000/svg">
<path d="M51.1599 16.0148C47.6798 14.5124 43.9588 13.4205 40.0688 12.7988C39.5909 13.5958 39.0328 14.6678 38.648 15.5206C34.5126 14.9468 30.4152 14.9468 26.356 15.5206C25.9713 14.6678 25.4003 13.5958 24.9184 12.7988C21.024 13.4205 17.2988 14.5164 13.8188 16.0227C6.79968 25.8101 4.8969 35.3543 5.84829 44.763C10.5038 47.971 15.0155 49.9196 19.451 51.1948C20.5462 49.8041 21.523 48.3257 22.3644 46.7675C20.7619 46.2055 19.227 45.5123 17.7766 44.7071C18.1614 44.4443 18.5377 44.1692 18.9014 43.8863C27.7473 47.7039 37.3583 47.7039 46.0985 43.8863C46.4662 44.1692 46.8426 44.4443 47.2232 44.7071C45.7686 45.5161 44.2295 46.2095 42.6269 46.7715C43.4684 48.3257 44.4409 49.8081 45.5402 51.1988C49.98 49.9236 54.496 47.975 59.1515 44.763C60.2679 33.8559 57.2445 24.3993 51.1599 16.0148ZM23.5695 38.9767C20.9141 38.9767 18.7365 36.6892 18.7365 33.9038C18.7365 31.1182 20.8676 28.8268 23.5695 28.8268C26.2715 28.8268 28.449 31.1142 28.4025 33.9038C28.4069 36.6892 26.2715 38.9767 23.5695 38.9767ZM41.4303 38.9767C38.7749 38.9767 36.5972 36.6892 36.5972 33.9038C36.5972 31.1182 38.7284 28.8268 41.4303 28.8268C44.1322 28.8268 46.3099 31.1142 46.2634 33.9038C46.2634 36.6892 44.1322 38.9767 41.4303 38.9767Z" fill="white"/>
</svg>
