<svg width="54" height="45" viewBox="0 0 54 45" fill="none" xmlns="http://www.w3.org/2000/svg">
<g clip-path="url(#clip0_8859_1210)">
<path fill-rule="evenodd" clip-rule="evenodd" d="M30.2308 27.9945H45.6005C47.1204 27.9944 48.6061 27.5436 49.8698 26.6992C51.1335 25.8547 52.1184 24.6545 52.7 23.2502C53.2816 21.846 53.4337 20.3009 53.1371 18.8102C52.8405 17.3195 52.1085 15.9503 51.0338 14.8756C49.959 13.8009 48.5897 13.0691 47.099 12.7726C45.6083 12.4761 44.0632 12.6284 42.659 13.21C41.2549 13.7917 40.0547 14.7767 39.2103 16.0405C38.3659 17.3042 37.9153 18.79 37.9153 20.3099C37.9138 22.3475 37.1037 24.3012 35.663 25.742C34.2222 27.1829 32.2684 27.993 30.2308 27.9945Z" fill="white"/>
<path fill-rule="evenodd" clip-rule="evenodd" d="M10.4702 27.9943H30.2309C29.1846 27.9935 28.1554 27.8268 27.1787 27.5088L26.9359 27.9943H18.7041L22.4722 24.2262C21.1065 22.4933 20.3524 20.3427 20.3505 18.114C20.3505 16.1598 19.7711 14.2496 18.6854 12.6248C17.5997 11 16.0566 9.73356 14.2512 8.98574C12.4458 8.23792 10.4592 8.04226 8.54263 8.4235C6.62603 8.80473 4.86552 9.74574 3.48373 11.1275C2.10194 12.5093 1.16093 14.2698 0.779696 16.1864C0.398461 18.103 0.594125 20.0896 1.34194 21.895C2.08976 23.7004 3.35615 25.2435 4.98097 26.3292C6.60578 27.4149 8.51604 27.9943 10.4702 27.9943Z" fill="white"/>
<path fill-rule="evenodd" clip-rule="evenodd" d="M30.2313 0C22.5009 0 16.2341 6.26674 16.2341 13.9972C16.2341 18.4918 18.3527 22.4917 21.6457 25.0527L35.1713 11.5271L27.1105 27.6451C27.2353 27.6735 27.3607 27.7003 27.4867 27.7253L31.6036 31.425L37.8159 25.7633C39.1233 24.9188 40.2809 23.8623 41.2402 22.6425C43.112 20.2622 44.2284 17.2601 44.2284 13.9972C44.2284 6.26674 37.9617 0 30.2313 0Z" fill="white"/>
<path d="M18.7039 44.4616L39.4251 24.5637L27.3492 27.171L18.7039 44.4616Z" fill="white"/>
</g>
<defs>
<clipPath id="clip0_8859_1210">
<rect width="52.6952" height="44.4615" fill="white" transform="translate(0.589844)"/>
</clipPath>
</defs>
</svg>
