<svg width="87" height="34" viewBox="0 0 87 34" fill="none" xmlns="http://www.w3.org/2000/svg">
<path d="M45.6685 17.733C43.4377 17.733 41.818 18.5581 40.7179 19.9638V12.0491H36.7758V33.4403H40.7179V31.6373C41.818 33.043 43.4377 33.8681 45.6685 33.8681C49.7633 33.8681 53.1248 30.3539 53.1248 25.8006C53.1248 21.2473 49.7633 17.733 45.6685 17.733ZM44.935 30.1094C42.5209 30.1094 40.7179 28.3675 40.7179 25.8006C40.7179 23.2336 42.5209 21.4918 44.935 21.4918C47.3798 21.4918 49.1827 23.2336 49.1827 25.8006C49.1827 28.3675 47.3798 30.1094 44.935 30.1094Z" fill="white"/>
<path d="M61.9109 33.8681C66.403 33.8681 70.009 30.3539 70.009 25.8006C70.009 21.2473 66.403 17.733 61.9109 17.733C57.4187 17.733 53.8433 21.2473 53.8433 25.8006C53.8433 30.3539 57.4187 33.8681 61.9109 33.8681ZM61.9109 30.0177C59.5884 30.0177 57.7854 28.2758 57.7854 25.8006C57.7854 23.3253 59.5884 21.5835 61.9109 21.5835C64.2639 21.5835 66.0669 23.3253 66.0669 25.8006C66.0669 28.2758 64.2639 30.0177 61.9109 30.0177Z" fill="white"/>
<path d="M71.5151 33.4403H75.4572V11.1323H71.5151V33.4403Z" fill="white"/>
<path d="M86.5381 21.9502V18.1609H83.0849V13.8826L79.1428 15.0744V18.1609H76.4842V21.9502H79.1428V28.3064C79.1428 32.4319 81.0069 34.0515 86.5381 33.4403V29.8649C84.2767 29.9871 83.0849 29.9566 83.0849 28.3064V21.9502H86.5381Z" fill="white"/>
<path fill-rule="evenodd" clip-rule="evenodd" d="M24.1771 0.485352L15.3573 9.35105C14.4743 9.1526 13.5559 9.04787 12.6129 9.04787C5.73037 9.04787 0.150963 14.6273 0.150963 21.5098C0.150963 28.3924 5.73037 33.9718 12.6129 33.9718C19.4955 33.9718 25.0749 28.3924 25.0749 21.5098C25.0749 18.452 23.9735 15.6514 22.1459 13.483L13.2789 22.3962L19.0335 10.827C19.0334 10.8269 19.0333 10.8268 19.0332 10.8268L24.1771 0.485352Z" fill="url(#paint0_linear_3488_20239)"/>
<defs>
<linearGradient id="paint0_linear_3488_20239" x1="0.150963" y1="33.9718" x2="32.2285" y2="10.0965" gradientUnits="userSpaceOnUse">
<stop stop-color="#03C17D"/>
<stop offset="1" stop-color="#97E81C"/>
</linearGradient>
</defs>
</svg>
