<svg width="65" height="64" viewBox="0 0 65 64" fill="none" xmlns="http://www.w3.org/2000/svg">
<g id="Frame 1160444059">
<g id="Vector">
<path d="M36.34 32.0006C36.34 40.4837 29.4631 47.3606 20.98 47.3606C12.4969 47.3606 5.62 40.4837 5.62 32.0006C5.62 23.5175 12.4969 16.6406 20.98 16.6406C29.4631 16.6406 36.34 23.5175 36.34 32.0006Z" fill="white"/>
<path d="M52.98 32.0006C52.98 39.0699 49.5415 44.8006 45.3 44.8006C41.0584 44.8006 37.62 39.0699 37.62 32.0006C37.62 24.9314 41.0584 19.2006 45.3 19.2006C49.5415 19.2006 52.98 24.9314 52.98 32.0006Z" fill="white"/>
<path d="M59.38 32.0006C59.38 39.0699 58.2338 44.8006 56.82 44.8006C55.4062 44.8006 54.26 39.0699 54.26 32.0006C54.26 24.9314 55.4062 19.2006 56.82 19.2006C58.2338 19.2006 59.38 24.9314 59.38 32.0006Z" fill="white"/>
</g>
</g>
</svg>
