<svg width="41" height="40" viewBox="0 0 41 40" fill="none" xmlns="http://www.w3.org/2000/svg">
<g id="Frame 1160444059">
<g id="Vector">
<path d="M24.6433 21.3337C24.6433 26.9891 20.0587 31.5737 14.4033 31.5737C8.74793 31.5737 4.16333 26.9891 4.16333 21.3337C4.16333 15.6784 8.74793 11.0938 14.4033 11.0938C20.0587 11.0938 24.6433 15.6784 24.6433 21.3337Z" fill="#90939E"/>
<path d="M35.7367 21.3337C35.7367 26.0466 33.4444 29.8671 30.6167 29.8671C27.789 29.8671 25.4967 26.0466 25.4967 21.3337C25.4967 16.6209 27.789 12.8004 30.6167 12.8004C33.4444 12.8004 35.7367 16.6209 35.7367 21.3337Z" fill="#90939E"/>
<path d="M40.0033 21.3337C40.0033 26.0466 39.2392 29.8671 38.2967 29.8671C37.3541 29.8671 36.59 26.0466 36.59 21.3337C36.59 16.6209 37.3541 12.8004 38.2967 12.8004C39.2392 12.8004 40.0033 16.6209 40.0033 21.3337Z" fill="#90939E"/>
</g>
</g>
</svg>
