<svg width="19" height="20" viewBox="0 0 19 20" fill="none" xmlns="http://www.w3.org/2000/svg">
<g id="Group 1160443939">
<path id="Subtract" fill-rule="evenodd" clip-rule="evenodd" d="M2.45231 0.5C1.53832 0.5 0.817513 1.27761 0.886707 2.18897L1.57819 11.2966L6.97224 11.0363L12.4605 5.47828L9.76429 10.9016L14.1757 10.6888L13.5401 1.95612C13.4803 1.13537 12.797 0.5 11.9741 0.5H2.45231Z" fill="#90939E"/>
<path id="Subtract_2" d="M6.36151 3.49756C5.8127 3.49756 5.30922 3.8021 5.05442 4.28817L1.70639 10.6752C1.30783 11.4355 1.8593 12.3472 2.71775 12.3472H5.67782L12.4604 5.47844L9.04557 12.3472H13.5565C13.9811 12.3472 14.3707 12.1116 14.5678 11.7355L17.9736 5.23837C18.3885 4.44678 17.8144 3.49756 16.9206 3.49756H6.36151Z" fill="#90939E"/>
<path id="Vector 267" d="M12.4915 12.268L5.65196 19.1665L9.08332 12.268H12.4915Z" fill="#90939E"/>
</g>
</svg>
