<svg width="25" height="13" viewBox="0 0 25 13" fill="none" xmlns="http://www.w3.org/2000/svg">
<g id="Blimp Logo">
<path id="Vector" fill-rule="evenodd" clip-rule="evenodd" d="M16.5008 9.19775H8.83289C8.77621 9.19772 8.72009 9.20886 8.66771 9.23056C8.61534 9.25226 8.56775 9.28408 8.52767 9.3242C8.48758 9.36433 8.45578 9.41197 8.43408 9.46441C8.41238 9.51685 8.40121 9.57306 8.40121 9.62983V11.6855C8.40121 11.8002 8.44669 11.9102 8.52765 11.9913C8.6086 12.0723 8.7184 12.1179 8.83289 12.1179H16.5008C16.6153 12.1179 16.7251 12.0723 16.806 11.9913C16.887 11.9102 16.9325 11.8002 16.9325 11.6855V9.62983C16.9325 9.57306 16.9213 9.51685 16.8996 9.46441C16.8779 9.41197 16.8461 9.36433 16.806 9.3242C16.7659 9.28408 16.7183 9.25226 16.666 9.23056C16.6136 9.20886 16.5575 9.19772 16.5008 9.19775ZM10.3755 11.4884C10.274 11.4884 10.1748 11.4582 10.0904 11.4017C10.006 11.3453 9.94019 11.265 9.90135 11.171C9.8625 11.0771 9.85234 10.9737 9.87214 10.874C9.89194 10.7743 9.94083 10.6827 10.0126 10.6108C10.0844 10.5389 10.1758 10.49 10.2754 10.4701C10.375 10.4503 10.4782 10.4605 10.5719 10.4994C10.6657 10.5383 10.7459 10.6042 10.8023 10.6887C10.8587 10.7733 10.8888 10.8726 10.8888 10.9743C10.8888 11.1107 10.8347 11.2414 10.7384 11.3378C10.6422 11.4342 10.5116 11.4884 10.3755 11.4884ZM12.6663 11.4884C12.5647 11.4884 12.4655 11.4582 12.3811 11.4017C12.2967 11.3453 12.2309 11.265 12.1921 11.171C12.1532 11.0771 12.1431 10.9737 12.1629 10.874C12.1827 10.7743 12.2316 10.6827 12.3033 10.6108C12.3751 10.5389 12.4666 10.49 12.5661 10.4701C12.6657 10.4503 12.7689 10.4605 12.8627 10.4994C12.9564 10.5383 13.0366 10.6042 13.093 10.6887C13.1494 10.7733 13.1795 10.8726 13.1795 10.9743C13.1795 11.0418 13.1662 11.1087 13.1404 11.171C13.1146 11.2334 13.0768 11.2901 13.0292 11.3378C12.9815 11.3856 12.9249 11.4234 12.8627 11.4493C12.8004 11.4751 12.7337 11.4884 12.6663 11.4884ZM14.957 11.4884C14.8556 11.488 14.7566 11.4576 14.6724 11.401C14.5883 11.3443 14.5228 11.264 14.4842 11.1701C14.4456 11.0762 14.4356 10.973 14.4555 10.8734C14.4754 10.7738 14.5243 10.6824 14.596 10.6106C14.6677 10.5388 14.7591 10.49 14.8585 10.4701C14.958 10.4503 15.061 10.4604 15.1547 10.4992C15.2484 10.538 15.3286 10.6037 15.385 10.6881C15.4415 10.7724 15.4717 10.8716 15.472 10.9732C15.472 11.1095 15.4179 11.2402 15.3216 11.3367C15.2254 11.4331 15.0949 11.4872 14.9587 11.4872" fill="#90939E"/>
<path id="Vector_2" d="M24.6668 5.41774C22.6966 7.48448 17.8989 9.95364 12.4575 9.95364C7.01621 9.95364 2.50355 7.48652 0.66684 5.41774C2.50355 3.35041 7.01679 0.881836 12.4575 0.881836C17.8983 0.881836 22.6966 3.35158 24.6668 5.41774Z" fill="#90939E"/>
<path id="Vector_3" d="M24.6668 5.41772C22.6966 6.29001 17.8989 7.32978 12.4575 7.32978C7.01621 7.32978 2.50355 6.29001 0.66684 5.41772C2.50355 4.54543 7.01679 3.50537 12.4575 3.50537C17.8983 3.50537 22.6966 4.54717 24.6668 5.41772Z" fill="#90939E"/>
<path id="Vector_4" d="M12.4575 3.50684C17.8989 3.50684 22.6966 4.54719 24.6668 5.41832C22.6966 3.35332 17.8989 0.881836 12.4575 0.881836C7.01621 0.881836 2.50355 3.35041 0.66684 5.41774C2.50355 4.54545 7.01679 3.50626 12.4575 3.50626" fill="#90939E"/>
<path id="Vector_5" fill-rule="evenodd" clip-rule="evenodd" d="M5.98421 3.30896V2.8542C5.98434 2.74454 5.94283 2.63893 5.86809 2.55879L4.44709 1.66498C4.4067 1.62185 4.35791 1.58747 4.30374 1.56397C4.24956 1.54047 4.19116 1.52833 4.13212 1.52832H2.8641C2.79448 1.52812 2.72585 1.54479 2.66406 1.5769C2.60226 1.60901 2.54914 1.65562 2.50922 1.71274C2.46929 1.76986 2.44376 1.83581 2.43478 1.90496C2.42581 1.97411 2.43367 2.0444 2.45769 2.10985L3.24062 4.25452C3.30274 4.4249 3.45352 4.31596 3.60726 4.27807L5.85749 3.61381C5.93471 3.57672 5.98392 3.42275 5.98392 3.30808" fill="#90939E"/>
<path id="Vector_6" fill-rule="evenodd" clip-rule="evenodd" d="M5.98421 7.52796V7.98271C5.98434 8.09238 5.94283 8.19798 5.86809 8.27813L4.44709 9.17193C4.4067 9.21506 4.35791 9.24944 4.30374 9.27294C4.24956 9.29645 4.19116 9.30858 4.13212 9.30859H2.8641C2.79448 9.30879 2.72585 9.29213 2.66406 9.26002C2.60226 9.2279 2.54914 9.1813 2.50922 9.12417C2.46929 9.06705 2.44376 9.0011 2.43478 8.93196C2.42581 8.86281 2.43367 8.79251 2.45769 8.72707L3.24062 6.5824C3.30274 6.41201 3.45352 6.52095 3.60726 6.55885L5.85749 7.2231C5.93471 7.26019 5.98392 7.41416 5.98392 7.52883" fill="#90939E"/>
</g>
</svg>
