<svg width="23" height="19" viewBox="0 0 23 19" fill="none" xmlns="http://www.w3.org/2000/svg">
<g id="Union">
<mask id="path-1-outside-1_8598_951" maskUnits="userSpaceOnUse" x="0.139984" y="0.172363" width="23" height="19" fill="black">
<rect fill="white" x="0.139984" y="0.172363" width="23" height="19"/>
<path d="M7.91078 3.01166L7.91159 3.00648V3.01927C7.91116 3.01675 7.91089 3.0142 7.91078 3.01166Z"/>
<path fill-rule="evenodd" clip-rule="evenodd" d="M21.0133 8.76044C21.047 8.52262 21.0148 8.29009 20.9138 8.07228C20.6278 7.46736 19.9184 7.35878 19.4139 7.34682L19.3603 7.24128C19.8789 6.54922 20.4665 5.64943 20.0235 5.09932C19.6036 4.57789 18.6011 4.76594 17.7196 5.05744C17.6549 5.00832 17.5875 4.95888 17.5172 4.90931C17.8285 3.94254 18.1362 2.76849 17.3498 2.44361C16.8868 2.26451 16.0706 2.56896 14.8911 3.37745C14.8297 1.9626 14.5483 1.28206 13.9854 1.17972C13.3433 1.08761 12.7062 1.87562 12.1356 2.71481C11.693 1.62489 11.1302 1.11064 10.4675 1.17972C9.80486 1.24879 9.6181 2.0368 9.5439 2.77109C9.36022 2.64128 9.16788 2.52417 8.96824 2.42058C8.7446 2.29834 8.50652 2.20466 8.25955 2.1417C8.00642 2.06655 7.73502 2.08194 7.49201 2.1852C7.36826 2.25356 7.26224 2.34994 7.18242 2.46663C7.10347 2.58205 7.05265 2.71436 7.03403 2.85296C7.00075 3.08459 7.00075 3.3198 7.03403 3.55144C7.03502 3.61746 7.04101 3.68331 7.05194 3.74843C6.88539 3.67995 6.71444 3.62269 6.54024 3.57702C6.29 3.50987 6.03177 3.47716 5.7727 3.47979C5.51305 3.4753 5.25866 3.55323 5.04608 3.70238C4.93889 3.78944 4.85164 3.8985 4.79023 4.02219C4.73003 4.14155 4.69602 4.27239 4.69046 4.40596C4.66607 4.66404 4.69036 4.9244 4.76209 5.17351C4.80573 5.32791 4.86155 5.4785 4.92897 5.62387C4.86554 5.68368 4.80766 5.74133 4.75532 5.79627C4.50886 5.7742 4.26038 5.80697 4.02781 5.89244C3.7796 5.98374 3.55619 6.13181 3.3754 6.32483C3.27909 6.44168 3.2069 6.57646 3.16299 6.72137C3.11908 6.86629 3.10431 7.01847 3.11955 7.16912C3.1436 7.43505 3.21373 7.69477 3.32678 7.93667C3.35594 8.00004 3.38639 8.06277 3.41812 8.12482L3.21258 8.54178C3.17542 8.5537 3.13917 8.56865 3.1042 8.58653C3.04513 8.55266 2.97989 8.53091 2.91231 8.52257C2.80577 8.50835 2.69745 8.52804 2.60273 8.57885C1.89147 8.98309 1.47189 9.62783 1.23907 10.6742C1.06471 11.3197 1.12172 12.0058 1.40024 12.6136C1.44047 12.702 1.50764 12.7754 1.59212 12.8234C1.66195 12.86 1.73861 12.8818 1.81727 12.8873C1.83559 12.9372 1.85873 12.9852 1.88636 13.0306C1.96773 13.1564 2.08686 13.2531 2.22664 13.3069L2.7716 13.5449C2.80166 13.5582 2.83283 13.5686 2.86467 13.5759C2.92313 13.9274 3.03467 14.269 3.1963 14.5887C3.44229 15.0446 3.77622 15.4473 4.17876 15.7733C4.93298 16.4102 5.81242 16.8817 6.76027 17.1575L7.3257 17.3161C8.73227 17.6562 10.1743 17.828 11.6214 17.8278H11.6777C13.1535 17.8278 14.6241 17.6508 16.0578 17.3007L16.5362 17.1626C17.4816 16.8802 18.3593 16.4074 19.1152 15.7733C19.5097 15.4358 19.8325 15.0225 20.0644 14.558C20.2187 14.2493 20.3271 13.9208 20.3871 13.5827C20.445 13.5767 20.5018 13.5623 20.5556 13.5398L21.0673 13.3147C21.2036 13.2586 21.3208 13.1644 21.405 13.0435C21.439 12.9956 21.4657 12.943 21.4843 12.8874C21.5735 12.8848 21.661 12.862 21.7402 12.8209C21.8219 12.7746 21.8898 12.7075 21.9372 12.6264C22.2115 12.0148 22.2675 11.3275 22.0958 10.6794C21.8939 9.76962 21.5553 9.16389 21.0133 8.76044ZM20.0796 8.55345C20.0749 8.52627 20.0665 8.50058 20.0542 8.47652L20.0286 8.42791C20.0142 8.40593 19.9848 8.37949 19.9262 8.35494L20.0199 8.53931C20.04 8.54322 20.0599 8.54794 20.0796 8.55345ZM18.8914 6.30652C19.171 5.90402 19.2448 5.72941 19.261 5.65707C19.1775 5.64369 18.9738 5.64343 18.5172 5.76899C18.5711 5.82604 18.62 5.88022 18.6641 5.93093C18.7571 6.0419 18.8267 6.17299 18.8914 6.30652ZM16.6917 4.40196C16.7999 4.05213 16.8848 3.69534 16.9456 3.33396C16.808 3.35976 16.4354 3.50304 15.7125 3.95822C16.0717 4.09487 16.3975 4.24522 16.6917 4.40196ZM13.9252 3.47095C13.9308 3.03392 13.8771 2.59794 13.7654 2.17496C13.443 2.50469 13.1573 2.86842 12.9134 3.25977L12.8907 3.29192C12.9663 3.30586 13.0406 3.32591 13.113 3.35187C13.1274 3.35537 13.1418 3.35892 13.1561 3.36253C13.423 3.391 13.6792 3.42751 13.9252 3.47095ZM9.11013 3.57334C8.92448 3.43331 8.72819 3.30794 8.52307 3.19836C8.36832 3.10968 8.20219 3.04254 8.02928 2.9988C7.99031 2.99249 7.95056 2.99249 7.91159 2.9988C7.91087 3.00305 7.9106 3.00736 7.91078 3.01166C7.88805 3.15982 7.88488 3.31032 7.90136 3.45932C7.91982 3.60329 7.94227 3.74725 7.96872 3.8893C8.32246 3.76987 8.70286 3.66276 9.11013 3.57334ZM6.48464 4.52953C6.41517 4.50825 6.34497 4.48923 6.27417 4.47249C6.09436 4.43158 5.91097 4.40844 5.72665 4.4034C5.67259 4.40123 5.61865 4.40994 5.56802 4.429C5.56511 4.44679 5.56511 4.46492 5.56802 4.48271C5.55555 4.62829 5.5703 4.77492 5.61151 4.9151C5.62306 4.95783 5.63583 5.00018 5.6498 5.04208C5.89267 4.87183 6.17084 4.69814 6.48464 4.52953ZM10.4112 3.30769C10.4115 2.37917 10.5417 2.17492 10.5699 2.13915C10.7899 2.0803 11.056 2.45896 11.3604 3.27768C11.0392 3.27009 10.7104 3.28751 10.4112 3.30769Z"/>
</mask>
<path d="M7.91078 3.01166L7.91159 3.00648V3.01927C7.91116 3.01675 7.91089 3.0142 7.91078 3.01166Z" fill="#90939E"/>
<path fill-rule="evenodd" clip-rule="evenodd" d="M21.0133 8.76044C21.047 8.52262 21.0148 8.29009 20.9138 8.07228C20.6278 7.46736 19.9184 7.35878 19.4139 7.34682L19.3603 7.24128C19.8789 6.54922 20.4665 5.64943 20.0235 5.09932C19.6036 4.57789 18.6011 4.76594 17.7196 5.05744C17.6549 5.00832 17.5875 4.95888 17.5172 4.90931C17.8285 3.94254 18.1362 2.76849 17.3498 2.44361C16.8868 2.26451 16.0706 2.56896 14.8911 3.37745C14.8297 1.9626 14.5483 1.28206 13.9854 1.17972C13.3433 1.08761 12.7062 1.87562 12.1356 2.71481C11.693 1.62489 11.1302 1.11064 10.4675 1.17972C9.80486 1.24879 9.6181 2.0368 9.5439 2.77109C9.36022 2.64128 9.16788 2.52417 8.96824 2.42058C8.7446 2.29834 8.50652 2.20466 8.25955 2.1417C8.00642 2.06655 7.73502 2.08194 7.49201 2.1852C7.36826 2.25356 7.26224 2.34994 7.18242 2.46663C7.10347 2.58205 7.05265 2.71436 7.03403 2.85296C7.00075 3.08459 7.00075 3.3198 7.03403 3.55144C7.03502 3.61746 7.04101 3.68331 7.05194 3.74843C6.88539 3.67995 6.71444 3.62269 6.54024 3.57702C6.29 3.50987 6.03177 3.47716 5.7727 3.47979C5.51305 3.4753 5.25866 3.55323 5.04608 3.70238C4.93889 3.78944 4.85164 3.8985 4.79023 4.02219C4.73003 4.14155 4.69602 4.27239 4.69046 4.40596C4.66607 4.66404 4.69036 4.9244 4.76209 5.17351C4.80573 5.32791 4.86155 5.4785 4.92897 5.62387C4.86554 5.68368 4.80766 5.74133 4.75532 5.79627C4.50886 5.7742 4.26038 5.80697 4.02781 5.89244C3.7796 5.98374 3.55619 6.13181 3.3754 6.32483C3.27909 6.44168 3.2069 6.57646 3.16299 6.72137C3.11908 6.86629 3.10431 7.01847 3.11955 7.16912C3.1436 7.43505 3.21373 7.69477 3.32678 7.93667C3.35594 8.00004 3.38639 8.06277 3.41812 8.12482L3.21258 8.54178C3.17542 8.5537 3.13917 8.56865 3.1042 8.58653C3.04513 8.55266 2.97989 8.53091 2.91231 8.52257C2.80577 8.50835 2.69745 8.52804 2.60273 8.57885C1.89147 8.98309 1.47189 9.62783 1.23907 10.6742C1.06471 11.3197 1.12172 12.0058 1.40024 12.6136C1.44047 12.702 1.50764 12.7754 1.59212 12.8234C1.66195 12.86 1.73861 12.8818 1.81727 12.8873C1.83559 12.9372 1.85873 12.9852 1.88636 13.0306C1.96773 13.1564 2.08686 13.2531 2.22664 13.3069L2.7716 13.5449C2.80166 13.5582 2.83283 13.5686 2.86467 13.5759C2.92313 13.9274 3.03467 14.269 3.1963 14.5887C3.44229 15.0446 3.77622 15.4473 4.17876 15.7733C4.93298 16.4102 5.81242 16.8817 6.76027 17.1575L7.3257 17.3161C8.73227 17.6562 10.1743 17.828 11.6214 17.8278H11.6777C13.1535 17.8278 14.6241 17.6508 16.0578 17.3007L16.5362 17.1626C17.4816 16.8802 18.3593 16.4074 19.1152 15.7733C19.5097 15.4358 19.8325 15.0225 20.0644 14.558C20.2187 14.2493 20.3271 13.9208 20.3871 13.5827C20.445 13.5767 20.5018 13.5623 20.5556 13.5398L21.0673 13.3147C21.2036 13.2586 21.3208 13.1644 21.405 13.0435C21.439 12.9956 21.4657 12.943 21.4843 12.8874C21.5735 12.8848 21.661 12.862 21.7402 12.8209C21.8219 12.7746 21.8898 12.7075 21.9372 12.6264C22.2115 12.0148 22.2675 11.3275 22.0958 10.6794C21.8939 9.76962 21.5553 9.16389 21.0133 8.76044ZM20.0796 8.55345C20.0749 8.52627 20.0665 8.50058 20.0542 8.47652L20.0286 8.42791C20.0142 8.40593 19.9848 8.37949 19.9262 8.35494L20.0199 8.53931C20.04 8.54322 20.0599 8.54794 20.0796 8.55345ZM18.8914 6.30652C19.171 5.90402 19.2448 5.72941 19.261 5.65707C19.1775 5.64369 18.9738 5.64343 18.5172 5.76899C18.5711 5.82604 18.62 5.88022 18.6641 5.93093C18.7571 6.0419 18.8267 6.17299 18.8914 6.30652ZM16.6917 4.40196C16.7999 4.05213 16.8848 3.69534 16.9456 3.33396C16.808 3.35976 16.4354 3.50304 15.7125 3.95822C16.0717 4.09487 16.3975 4.24522 16.6917 4.40196ZM13.9252 3.47095C13.9308 3.03392 13.8771 2.59794 13.7654 2.17496C13.443 2.50469 13.1573 2.86842 12.9134 3.25977L12.8907 3.29192C12.9663 3.30586 13.0406 3.32591 13.113 3.35187C13.1274 3.35537 13.1418 3.35892 13.1561 3.36253C13.423 3.391 13.6792 3.42751 13.9252 3.47095ZM9.11013 3.57334C8.92448 3.43331 8.72819 3.30794 8.52307 3.19836C8.36832 3.10968 8.20219 3.04254 8.02928 2.9988C7.99031 2.99249 7.95056 2.99249 7.91159 2.9988C7.91087 3.00305 7.9106 3.00736 7.91078 3.01166C7.88805 3.15982 7.88488 3.31032 7.90136 3.45932C7.91982 3.60329 7.94227 3.74725 7.96872 3.8893C8.32246 3.76987 8.70286 3.66276 9.11013 3.57334ZM6.48464 4.52953C6.41517 4.50825 6.34497 4.48923 6.27417 4.47249C6.09436 4.43158 5.91097 4.40844 5.72665 4.4034C5.67259 4.40123 5.61865 4.40994 5.56802 4.429C5.56511 4.44679 5.56511 4.46492 5.56802 4.48271C5.55555 4.62829 5.5703 4.77492 5.61151 4.9151C5.62306 4.95783 5.63583 5.00018 5.6498 5.04208C5.89267 4.87183 6.17084 4.69814 6.48464 4.52953ZM10.4112 3.30769C10.4115 2.37917 10.5417 2.17492 10.5699 2.13915C10.7899 2.0803 11.056 2.45896 11.3604 3.27768C11.0392 3.27009 10.7104 3.28751 10.4112 3.30769Z" fill="#90939E"/>
<path d="M20.9138 8.07228L21.5489 7.77776L21.5466 7.77304L20.9138 8.07228ZM21.0133 8.76044L20.3202 8.66207L20.2618 9.07371L20.5953 9.32196L21.0133 8.76044ZM19.4139 7.34682L18.7899 7.66394L18.9793 8.03672L19.3974 8.04663L19.4139 7.34682ZM19.3603 7.24128L18.8001 6.82149L18.5389 7.17007L18.7363 7.5584L19.3603 7.24128ZM20.0235 5.09932L20.5687 4.66027V4.66027L20.0235 5.09932ZM17.7196 5.05744L17.2965 5.61508L17.5898 5.83766L17.9394 5.72204L17.7196 5.05744ZM17.5172 4.90931L16.8509 4.69478L16.6932 5.18452L17.1136 5.48121L17.5172 4.90931ZM17.3498 2.44361L17.6171 1.79665L17.6098 1.79361L17.6023 1.79073L17.3498 2.44361ZM14.8911 3.37745L14.1918 3.4078L14.2465 4.668L15.2869 3.95482L14.8911 3.37745ZM13.9854 1.17972L14.1107 0.491007L14.0978 0.488665L14.0848 0.486807L13.9854 1.17972ZM12.1356 2.71481L11.4871 2.97819L11.9792 4.18995L12.7145 3.10838L12.1356 2.71481ZM10.4675 1.17972L10.5401 1.87594V1.87594L10.4675 1.17972ZM9.5439 2.77109L9.13992 3.34275L10.1197 4.03516L10.2404 2.84146L9.5439 2.77109ZM8.96824 2.42058L8.63253 3.03482L8.63914 3.03843L8.64582 3.0419L8.96824 2.42058ZM8.25955 2.1417L8.06033 2.81275L8.07342 2.81664L8.08664 2.82001L8.25955 2.1417ZM7.49201 2.1852L7.21825 1.54095L7.18506 1.55505L7.1535 1.57249L7.49201 2.1852ZM7.18242 2.46663L7.76019 2.86183L7.7602 2.86182L7.18242 2.46663ZM7.03403 2.85296L7.72694 2.9525L7.7278 2.94616L7.03403 2.85296ZM7.03403 3.55144L7.73395 3.54088L7.73327 3.49617L7.72692 3.45191L7.03403 3.55144ZM7.05194 3.74843L6.78575 4.39584L7.95072 4.87483L7.74229 3.6326L7.05194 3.74843ZM6.54024 3.57702L6.35883 4.25311L6.36272 4.25413L6.54024 3.57702ZM5.7727 3.47979L5.76058 4.17969L5.77019 4.17985L5.7798 4.17976L5.7727 3.47979ZM5.04608 3.70238L4.64403 3.12936L4.62388 3.1435L4.60477 3.15901L5.04608 3.70238ZM4.79023 4.02219L5.41525 4.33742L5.41722 4.33346L4.79023 4.02219ZM4.69046 4.40596L5.38736 4.47184L5.38909 4.45349L5.38986 4.43508L4.69046 4.40596ZM4.76209 5.17351L5.43571 4.98312L5.43476 4.97981L4.76209 5.17351ZM4.92897 5.62387L5.40922 6.13315L5.77628 5.78701L5.56399 5.32933L4.92897 5.62387ZM4.75532 5.79627L4.69289 6.49348L5.02922 6.5236L5.26215 6.27911L4.75532 5.79627ZM4.02781 5.89244L3.78635 5.2354L3.78615 5.23548L4.02781 5.89244ZM3.3754 6.32483L2.86451 5.84629L2.84933 5.8625L2.8352 5.87964L3.3754 6.32483ZM3.16299 6.72137L2.49307 6.51837L2.49307 6.51837L3.16299 6.72137ZM3.11955 7.16912L3.81674 7.10606L3.81599 7.09868L3.11955 7.16912ZM3.32678 7.93667L3.96273 7.64412L3.96094 7.64028L3.32678 7.93667ZM3.41812 8.12482L4.04598 8.43434L4.2014 8.11907L4.04136 7.80612L3.41812 8.12482ZM3.21258 8.54178L3.42648 9.20829L3.70916 9.11757L3.84043 8.85129L3.21258 8.54178ZM3.1042 8.58653L2.75596 9.19376L3.08508 9.38251L3.42289 9.20978L3.1042 8.58653ZM2.91231 8.52257L2.81971 9.21645L2.82657 9.2173L2.91231 8.52257ZM2.60273 8.57885L2.27182 7.962L2.26429 7.96605L2.25685 7.97027L2.60273 8.57885ZM1.23907 10.6742L1.91484 10.8568L1.91894 10.8416L1.92236 10.8263L1.23907 10.6742ZM1.40024 12.6136L2.03738 12.3237L2.0366 12.322L1.40024 12.6136ZM1.59212 12.8234L1.24665 13.4322L1.25663 13.4379L1.26678 13.4432L1.59212 12.8234ZM1.81727 12.8873L2.47436 12.646L2.31821 12.2208L1.86638 12.1891L1.81727 12.8873ZM1.88636 13.0306L1.28833 13.3944L1.29339 13.4028L1.29868 13.4109L1.88636 13.0306ZM2.22664 13.3069L2.50675 12.6654L2.49261 12.6592L2.47822 12.6537L2.22664 13.3069ZM2.7716 13.5449L3.05557 12.9051L3.05171 12.9034L2.7716 13.5449ZM2.86467 13.5759L3.55518 13.4611L3.47826 12.9986L3.0213 12.8936L2.86467 13.5759ZM3.1963 14.5887L2.57158 14.9045L2.57581 14.9129L2.58025 14.9211L3.1963 14.5887ZM4.17876 15.7733L4.63038 15.2385L4.62492 15.2339L4.61935 15.2294L4.17876 15.7733ZM6.76027 17.1575L6.56473 17.8296L6.57119 17.8314L6.76027 17.1575ZM7.3257 17.3161L7.13662 17.9901L7.14884 17.9935L7.16117 17.9965L7.3257 17.3161ZM11.6214 17.8278V17.1278H11.6213L11.6214 17.8278ZM11.6777 17.8278V18.5278H11.6777L11.6777 17.8278ZM16.0578 17.3007L16.2239 17.9808L16.238 17.9773L16.252 17.9733L16.0578 17.3007ZM16.5362 17.1626L16.7305 17.8351L16.7366 17.8333L16.5362 17.1626ZM19.1152 15.7733L19.5651 16.3096L19.5703 16.3052L19.1152 15.7733ZM20.0644 14.558L19.4382 14.2451L19.4381 14.2453L20.0644 14.558ZM20.3871 13.5827L20.3152 12.8864L19.7902 12.9407L19.6979 13.4604L20.3871 13.5827ZM20.5556 13.5398L20.8255 14.1859L20.8375 14.1805L20.5556 13.5398ZM21.0673 13.3147L20.8008 12.6674L20.7931 12.6706L20.7854 12.674L21.0673 13.3147ZM21.405 13.0435L20.834 12.6385L20.8306 12.6435L21.405 13.0435ZM21.4843 12.8874L21.4635 12.1877L20.9757 12.2023L20.8206 12.6649L21.4843 12.8874ZM21.7402 12.8209L22.0628 13.4421L22.0742 13.4362L22.0854 13.4298L21.7402 12.8209ZM21.9372 12.6264L22.5416 12.9796L22.5606 12.9472L22.5759 12.9129L21.9372 12.6264ZM22.0958 10.6794L21.4125 10.8311L21.4155 10.845L21.4192 10.8587L22.0958 10.6794ZM20.0542 8.47652L20.6771 8.15709L20.6736 8.15056L20.0542 8.47652ZM20.0796 8.55345L19.891 9.22758L20.9547 9.52504L20.7697 8.43618L20.0796 8.55345ZM20.0286 8.42791L20.6481 8.10195L20.6326 8.0726L20.6145 8.04484L20.0286 8.42791ZM19.9262 8.35494L20.1969 7.70938L18.4383 6.97212L19.3022 8.67205L19.9262 8.35494ZM20.0199 8.53931L19.3959 8.85642L19.5506 9.16089L19.8858 9.22634L20.0199 8.53931ZM19.261 5.65707L19.944 5.81071L20.1076 5.08361L19.3716 4.96586L19.261 5.65707ZM18.8914 6.30652L18.2615 6.61181L18.7836 7.68897L19.4664 6.70582L18.8914 6.30652ZM18.5172 5.76899L18.3316 5.09405L17.2089 5.40284L18.0082 6.24953L18.5172 5.76899ZM18.6641 5.93093L19.2005 5.48106L19.1924 5.47168L18.6641 5.93093ZM16.9456 3.33396L17.6359 3.45015L17.8024 2.46111L16.8166 2.64595L16.9456 3.33396ZM16.6917 4.40196L16.3626 5.01975L17.1102 5.41806L17.3605 4.60882L16.6917 4.40196ZM15.7125 3.95822L15.3395 3.36585L14.1519 4.11355L15.4636 4.61248L15.7125 3.95822ZM13.7654 2.17496L14.4422 1.9962L14.1272 0.803658L13.2649 1.68559L13.7654 2.17496ZM13.9252 3.47095L13.8034 4.16028L14.6145 4.30353L14.6251 3.47999L13.9252 3.47095ZM12.9134 3.25977L13.4853 3.66346L13.4969 3.64707L13.5075 3.63004L12.9134 3.25977ZM12.8907 3.29192L12.3189 2.88822L11.688 3.78183L12.7637 3.9803L12.8907 3.29192ZM13.113 3.35187L12.8766 4.01075L12.9115 4.02327L12.9476 4.03204L13.113 3.35187ZM13.1561 3.36253L12.9859 4.0415L13.0333 4.05339L13.0819 4.05858L13.1561 3.36253ZM8.52307 3.19836L8.17502 3.80571L8.18406 3.81088L8.19324 3.81579L8.52307 3.19836ZM9.11013 3.57334L9.26024 4.25705L10.7465 3.93074L9.53164 3.01447L9.11013 3.57334ZM8.02928 2.9988L8.20096 2.32017L8.17129 2.31267L8.14109 2.30778L8.02928 2.9988ZM7.91159 2.9988L7.79978 2.30778L7.3049 2.38785L7.22137 2.88216L7.91159 2.9988ZM7.90136 3.45932L7.20549 3.53626L7.20704 3.54833L7.90136 3.45932ZM7.96872 3.8893L7.28054 4.01743L7.42822 4.81058L8.19262 4.55252L7.96872 3.8893ZM7.91159 3.00648H8.61159L7.21984 2.89928L7.91159 3.00648ZM7.91159 3.01927L7.22139 3.13599L8.61159 3.01927H7.91159ZM6.27417 4.47249L6.43524 3.79124L6.42946 3.78993L6.27417 4.47249ZM6.48464 4.52953L6.81597 5.14614L8.29453 4.35165L6.68959 3.8602L6.48464 4.52953ZM5.72665 4.4034L5.69854 5.10289L5.70754 5.10314L5.72665 4.4034ZM5.56802 4.429L5.32144 3.77386L4.9426 3.91645L4.87721 4.31592L5.56802 4.429ZM5.56802 4.48271L6.26547 4.54244L6.2729 4.45563L6.25883 4.36964L5.56802 4.48271ZM5.61151 4.9151L6.28725 4.73241L6.28525 4.72501L6.28309 4.71765L5.61151 4.9151ZM5.6498 5.04208L4.9857 5.26337L5.28258 6.15433L6.05159 5.61528L5.6498 5.04208ZM10.5699 2.13915L10.389 1.46291L10.1636 1.5232L10.0194 1.70666L10.5699 2.13915ZM10.4112 3.30769L9.71123 3.30746L9.71099 4.0565L10.4583 4.0061L10.4112 3.30769ZM11.3604 3.27768L11.3439 3.97748L12.3766 4.00188L12.0165 3.03369L11.3604 3.27768ZM20.2788 8.36678C20.3211 8.45798 20.3356 8.55363 20.3202 8.66207L21.7063 8.85881C21.7585 8.49162 21.7086 8.1222 21.5488 7.77777L20.2788 8.36678ZM19.3974 8.04663C19.6169 8.05183 19.8297 8.07831 19.9986 8.14207C20.1556 8.20138 20.236 8.27631 20.281 8.37152L21.5466 7.77304C21.3056 7.26332 20.8882 6.98151 20.493 6.8323C20.1096 6.68756 19.7155 6.65377 19.4305 6.64702L19.3974 8.04663ZM18.7363 7.5584L18.7899 7.66394L20.038 7.02971L19.9844 6.92417L18.7363 7.5584ZM19.4783 5.53837C19.4793 5.53965 19.4778 5.53764 19.4771 5.53553C19.4769 5.53465 19.4798 5.54289 19.4797 5.56516C19.4794 5.6159 19.4636 5.70868 19.4051 5.85087C19.2856 6.14139 19.0579 6.47758 18.8001 6.82149L19.9205 7.66107C20.1814 7.31292 20.5067 6.85318 20.6999 6.38326C20.8844 5.93466 21.0386 5.24376 20.5687 4.66027L19.4783 5.53837ZM17.9394 5.72204C18.3593 5.58318 18.7583 5.48687 19.0756 5.47285C19.2317 5.46595 19.3385 5.48063 19.4051 5.50106C19.4651 5.51944 19.4772 5.53706 19.4783 5.53837L20.5687 4.66027C20.1464 4.13597 19.5007 4.05268 19.0137 4.07421C18.5044 4.09673 17.9614 4.2402 17.4999 4.39285L17.9394 5.72204ZM17.1136 5.48121C17.1772 5.52608 17.2381 5.57076 17.2965 5.61508L18.1428 4.49981C18.0717 4.44589 17.9978 4.39168 17.9209 4.33742L17.1136 5.48121ZM17.0825 3.09056C17.1079 3.10103 17.1067 3.10297 17.1131 3.11718C17.1291 3.15275 17.1521 3.24027 17.1457 3.4088C17.1323 3.75549 17.0084 4.20558 16.8509 4.69478L18.1835 5.12385C18.3373 4.64628 18.5229 4.02595 18.5446 3.4627C18.5557 3.17626 18.5276 2.84893 18.3899 2.54278C18.2425 2.21528 17.985 1.94863 17.6171 1.79665L17.0825 3.09056ZM15.2869 3.95482C15.855 3.56544 16.3016 3.32167 16.6367 3.19494C16.9943 3.05974 17.1097 3.10126 17.0974 3.09648L17.6023 1.79073C17.1269 1.60686 16.6027 1.71106 16.1416 1.88543C15.658 2.06828 15.1068 2.38097 14.4954 2.80007L15.2869 3.95482ZM13.8602 1.86842C13.8677 1.86978 13.8677 1.86919 13.8758 1.8769C13.8908 1.89098 13.9313 1.93721 13.9792 2.0533C14.0803 2.29844 14.1621 2.7239 14.1918 3.4078L15.5905 3.34709C15.5588 2.61615 15.4691 1.99392 15.2735 1.51949C15.067 1.01896 14.7001 0.598188 14.1107 0.491007L13.8602 1.86842ZM12.7145 3.10838C12.9963 2.6939 13.2616 2.34299 13.5115 2.10956C13.6343 1.99482 13.7313 1.92985 13.8013 1.89725C13.8344 1.88183 13.8565 1.87598 13.8688 1.87378C13.88 1.87176 13.8847 1.87243 13.886 1.87263L14.0848 0.486807C13.4379 0.394026 12.9089 0.75665 12.5558 1.0865C12.184 1.43385 11.8455 1.89653 11.5568 2.32124L12.7145 3.10838ZM10.5401 1.87594C10.6435 1.86517 10.757 1.88707 10.9106 2.02816C11.0831 2.18664 11.2857 2.48237 11.4871 2.97819L12.7842 2.45142C12.5429 1.85733 12.2428 1.35097 11.8576 0.997121C11.4535 0.625868 10.9542 0.425185 10.3949 0.483489L10.5401 1.87594ZM10.2404 2.84146C10.2759 2.48982 10.3328 2.20755 10.4194 2.02197C10.4958 1.85818 10.5374 1.87622 10.5401 1.87594L10.3949 0.483489C9.73494 0.552291 9.35187 0.998875 9.15071 1.42993C8.95972 1.8392 8.88611 2.31807 8.84745 2.70071L10.2404 2.84146ZM8.64582 3.0419C8.81718 3.13082 8.98226 3.23134 9.13992 3.34275L9.94788 2.19942C9.73817 2.05122 9.51859 1.91752 9.29066 1.79925L8.64582 3.0419ZM8.08664 2.82001C8.27687 2.8685 8.46026 2.94067 8.63253 3.03482L9.30396 1.80633C9.02894 1.65602 8.73617 1.54081 8.43246 1.46339L8.08664 2.82001ZM7.76576 2.82945C7.85903 2.78982 7.96319 2.78391 8.06033 2.81275L8.45877 1.47065C8.04966 1.34919 7.61102 1.37406 7.21825 1.54095L7.76576 2.82945ZM7.7602 2.86182C7.77831 2.83534 7.80238 2.81345 7.83051 2.79791L7.1535 1.57249C6.93414 1.69368 6.74617 1.86454 6.60465 2.07143L7.7602 2.86182ZM7.7278 2.94616C7.73186 2.91592 7.74295 2.88703 7.76019 2.86183L6.60466 2.07143C6.46399 2.27707 6.37344 2.51281 6.34026 2.75976L7.7278 2.94616ZM7.72692 3.45191C7.70312 3.28629 7.70312 3.11811 7.72692 2.95249L6.34114 2.75343C6.29838 3.05108 6.29838 3.35332 6.34114 3.65097L7.72692 3.45191ZM7.74229 3.6326C7.7372 3.60226 7.73441 3.5716 7.73395 3.54088L6.33411 3.56199C6.33564 3.66332 6.34483 3.76436 6.36159 3.86426L7.74229 3.6326ZM6.36272 4.25413C6.50674 4.29189 6.64806 4.33923 6.78575 4.39584L7.31813 3.10102C7.12271 3.02067 6.92214 2.95348 6.71777 2.8999L6.36272 4.25413ZM5.7798 4.17976C5.97525 4.17777 6.17005 4.20245 6.35884 4.2531L6.72165 2.90093C6.40995 2.8173 6.0883 2.77655 5.76559 2.77983L5.7798 4.17976ZM5.44813 4.2754C5.53954 4.21127 5.64893 4.17775 5.76058 4.17969L5.78481 2.7799C5.37717 2.77284 4.97778 2.89518 4.64403 3.12936L5.44813 4.2754ZM5.41722 4.33346C5.43406 4.29954 5.45799 4.26962 5.48739 4.24574L4.60477 3.15901C4.41979 3.30925 4.26922 3.49746 4.16325 3.71092L5.41722 4.33346ZM5.38986 4.43508C5.39127 4.40105 5.39994 4.36775 5.41524 4.33741L4.16522 3.70696C4.06012 3.91535 4.00077 4.14374 3.99107 4.37684L5.38986 4.43508ZM5.43476 4.97981C5.38729 4.81496 5.37121 4.64265 5.38736 4.47184L3.99357 4.34009C3.96092 4.68543 3.99343 5.03384 4.08943 5.36721L5.43476 4.97981ZM5.56399 5.32933C5.51216 5.21758 5.46925 5.10182 5.4357 4.98312L4.08848 5.36389C4.14221 5.554 4.21094 5.73942 4.29396 5.9184L5.56399 5.32933ZM5.26215 6.27911C5.30546 6.23364 5.35444 6.1848 5.40922 6.13315L4.44873 5.11458C4.37664 5.18257 4.30987 5.24902 4.2485 5.31343L5.26215 6.27911ZM4.26927 6.54948C4.40469 6.49971 4.54937 6.48063 4.69289 6.49348L4.81776 5.09906C4.46835 5.06777 4.11608 5.11423 3.78635 5.2354L4.26927 6.54948ZM3.88628 6.80336C3.99247 6.68999 4.12369 6.60303 4.26946 6.54941L3.78615 5.23548C3.43552 5.36445 3.1199 5.57363 2.86451 5.84629L3.88628 6.80336ZM3.83291 6.92438C3.85 6.86796 3.87811 6.8155 3.91559 6.77001L2.8352 5.87964C2.68008 6.06787 2.56381 6.28495 2.49307 6.51837L3.83291 6.92438ZM3.81599 7.09868C3.81006 7.04004 3.81581 6.9808 3.83291 6.92438L2.49307 6.51837C2.42234 6.75178 2.39856 6.9969 2.4231 7.23956L3.81599 7.09868ZM3.96094 7.64028C3.88225 7.47192 3.83344 7.29115 3.8167 7.10606L2.42239 7.23218C2.45376 7.57895 2.5452 7.91763 2.69263 8.23306L3.96094 7.64028ZM4.04136 7.80612C4.01404 7.75269 3.98782 7.69868 3.96272 7.64412L2.69085 8.22922C2.72405 8.3014 2.75874 8.37285 2.79488 8.44353L4.04136 7.80612ZM3.84043 8.85129L4.04598 8.43434L2.79027 7.81531L2.58472 8.23227L3.84043 8.85129ZM3.42289 9.20978C3.42405 9.20918 3.42525 9.20869 3.42648 9.20829L2.99867 7.87526C2.92559 7.89871 2.85429 7.92811 2.7855 7.96329L3.42289 9.20978ZM2.82657 9.2173C2.8017 9.21423 2.77769 9.20623 2.75596 9.19376L3.45244 7.9793C3.31257 7.89909 3.15808 7.84759 2.99805 7.82784L2.82657 9.2173ZM2.93363 9.1957C2.89874 9.21442 2.85888 9.22165 2.81971 9.21642L3.00491 7.82872C2.75265 7.79506 2.49615 7.84166 2.27182 7.962L2.93363 9.1957ZM1.92236 10.8263C2.12632 9.90959 2.45852 9.46597 2.94861 9.18743L2.25685 7.97027C1.32442 8.50021 0.817463 9.34607 0.555776 10.5222L1.92236 10.8263ZM2.0366 12.322C1.82619 11.8628 1.78311 11.3444 1.91484 10.8568L0.563292 10.4917C0.346301 11.2949 0.417246 12.1488 0.763872 12.9052L2.0366 12.322ZM1.9376 12.2146C1.98153 12.2395 2.01646 12.2777 2.03738 12.3237L0.763098 12.9035C0.864486 13.1263 1.03374 13.3114 1.24665 13.4322L1.9376 12.2146ZM1.86638 12.1891C1.88423 12.1903 1.90162 12.1953 1.91747 12.2036L1.26678 13.4432C1.42227 13.5248 1.59299 13.5733 1.76816 13.5856L1.86638 12.1891ZM2.48438 12.6668C2.48035 12.6602 2.477 12.6532 2.47436 12.646L1.16018 13.1287C1.19419 13.2212 1.23711 13.3103 1.28833 13.3944L2.48438 12.6668ZM2.47822 12.6537C2.47647 12.653 2.47502 12.6518 2.47404 12.6503L1.29868 13.4109C1.46045 13.6609 1.69726 13.8532 1.97506 13.9602L2.47822 12.6537ZM3.05171 12.9034L2.50675 12.6654L1.94653 13.9484L2.49149 14.1864L3.05171 12.9034ZM3.0213 12.8936C3.03303 12.8963 3.04451 12.9002 3.05556 12.9051L2.48763 14.1847C2.55881 14.2163 2.63263 14.2408 2.70804 14.2581L3.0213 12.8936ZM3.82102 14.2729C3.69145 14.0166 3.60205 13.7428 3.55518 13.4611L2.17416 13.6907C2.24421 14.112 2.37788 14.5213 2.57158 14.9045L3.82102 14.2729ZM4.61935 15.2294C4.28869 14.9615 4.0144 14.6308 3.81235 14.2563L2.58025 14.9211C2.87018 15.4585 3.26374 15.933 3.73817 16.3173L4.61935 15.2294ZM6.9558 16.4853C6.10198 16.2369 5.30978 15.8122 4.63038 15.2385L3.72715 16.3081C4.55618 17.0082 5.52286 17.5265 6.56474 17.8296L6.9558 16.4853ZM7.51478 16.6421L6.94935 16.4835L6.57119 17.8314L7.13662 17.9901L7.51478 16.6421ZM11.6213 17.1278C10.2296 17.128 8.8429 16.9628 7.49023 16.6357L7.16117 17.9965C8.62165 18.3496 10.1189 18.528 11.6215 18.5278L11.6213 17.1278ZM11.6777 17.1278H11.6214V18.5278H11.6777V17.1278ZM15.8918 16.6207C14.5124 16.9575 13.0976 17.1278 11.6777 17.1278L11.6777 18.5278C13.2095 18.5278 14.7358 18.3441 16.2239 17.9808L15.8918 16.6207ZM16.342 16.4901L15.8636 16.6282L16.252 17.9733L16.7305 17.8351L16.342 16.4901ZM18.6653 15.237C17.9825 15.8097 17.1898 16.2368 16.3359 16.4919L16.7366 17.8333C17.7734 17.5236 18.736 17.005 19.5651 16.3096L18.6653 15.237ZM19.4381 14.2453C19.248 14.6261 18.9835 14.9648 18.6601 15.2414L19.5703 16.3052C20.0359 15.9068 20.4169 15.419 20.6907 14.8707L19.4381 14.2453ZM19.6979 13.4604C19.6496 13.7324 19.5624 13.9967 19.4382 14.2451L20.6905 14.871C20.875 14.5019 21.0046 14.1092 21.0764 13.7051L19.6979 13.4604ZM20.4591 14.279C20.5848 14.266 20.7083 14.2347 20.8254 14.1858L20.2858 12.8939C20.2953 12.89 20.3051 12.8875 20.3152 12.8864L20.4591 14.279ZM20.8375 14.1805L21.3492 13.9554L20.7854 12.674L20.2737 12.8991L20.8375 14.1805ZM21.3338 13.962C21.5944 13.8547 21.8185 13.6747 21.9795 13.4434L20.8306 12.6435C20.8231 12.6542 20.8128 12.6625 20.8008 12.6674L21.3338 13.962ZM21.976 13.4484C22.0496 13.3446 22.1076 13.2306 22.1481 13.1099L20.8206 12.6649C20.8238 12.6555 20.8283 12.6466 20.8341 12.6385L21.976 13.4484ZM21.5052 13.5871C21.6996 13.5813 21.8902 13.5318 22.0628 13.4421L21.4176 12.1997C21.4318 12.1923 21.4475 12.1882 21.4635 12.1877L21.5052 13.5871ZM22.0854 13.4298C22.2745 13.3226 22.4319 13.1673 22.5416 12.9796L21.3328 12.2733C21.3478 12.2477 21.3692 12.2266 21.395 12.212L22.0854 13.4298ZM22.5759 12.9129C22.9158 12.1549 22.9852 11.3032 22.7725 10.5002L21.4192 10.8587C21.5498 11.3517 21.5072 11.8746 21.2985 12.34L22.5759 12.9129ZM22.7792 10.5278C22.5553 9.51914 22.1534 8.73647 21.4312 8.19892L20.5953 9.32196C20.9572 9.59131 21.2325 10.0201 21.4125 10.8311L22.7792 10.5278ZM19.4313 8.79593C19.4099 8.7542 19.3964 8.71143 19.3894 8.67071L20.7697 8.43618C20.7535 8.34111 20.7231 8.24696 20.677 8.15711L19.4313 8.79593ZM19.4091 8.75387L19.4347 8.80248L20.6736 8.15056L20.6481 8.10195L19.4091 8.75387ZM19.6556 9.0005C19.632 8.99061 19.5286 8.94228 19.4427 8.81098L20.6145 8.04484C20.4999 7.86958 20.3376 7.76837 20.1969 7.70938L19.6556 9.0005ZM20.644 8.22219L20.5503 8.03783L19.3022 8.67205L19.3959 8.85642L20.644 8.22219ZM20.2681 7.87931C20.2305 7.86879 20.1924 7.85977 20.154 7.85228L19.8858 9.22634C19.8875 9.22668 19.8893 9.22709 19.891 9.22758L20.2681 7.87931ZM18.5781 5.50342C18.5902 5.44971 18.6012 5.447 18.5585 5.52629C18.5196 5.59855 18.4469 5.71943 18.3165 5.90722L19.4664 6.70582C19.7455 6.30383 19.8947 6.02981 19.944 5.81071L18.5781 5.50342ZM18.7029 6.44393C18.907 6.38778 19.0364 6.3649 19.1109 6.35612C19.1877 6.34707 19.1913 6.35481 19.1504 6.34827L19.3716 4.96586C19.1389 4.92862 18.8189 4.96004 18.3316 5.09405L18.7029 6.44393ZM19.1924 5.47168C19.1421 5.41388 19.0868 5.35259 19.0262 5.28845L18.0082 6.24953C18.0554 6.29948 18.0979 6.34656 18.1358 6.39018L19.1924 5.47168ZM19.5213 6.00122C19.453 5.86027 19.3526 5.66253 19.2004 5.48113L18.1277 6.38073C18.1617 6.42127 18.2004 6.48571 18.2615 6.61181L19.5213 6.00122ZM16.2553 3.21776C16.1996 3.54847 16.122 3.87498 16.023 4.19511L17.3605 4.60882C17.4779 4.22929 17.5699 3.84221 17.6359 3.45015L16.2553 3.21776ZM16.0854 4.55058C16.4302 4.3335 16.68 4.1981 16.8504 4.11663C17.0327 4.02952 17.0954 4.01807 17.0746 4.02197L16.8166 2.64595C16.5377 2.69824 16.068 2.90721 15.3395 3.36585L16.0854 4.55058ZM17.0209 3.78418C16.7013 3.6139 16.3487 3.45129 15.9613 3.30395L15.4636 4.61248C15.7948 4.73845 16.0938 4.87654 16.3626 5.01975L17.0209 3.78418ZM13.0886 2.35373C13.1841 2.71541 13.2301 3.08821 13.2252 3.46191L14.6251 3.47999C14.6316 2.97964 14.5701 2.48047 14.4422 1.9962L13.0886 2.35373ZM13.5075 3.63004C13.7246 3.28166 13.9789 2.95786 14.2659 2.66434L13.2649 1.68559C12.9071 2.05151 12.5901 2.45518 12.3194 2.88949L13.5075 3.63004ZM13.4626 3.69562L13.4853 3.66346L12.3416 2.85607L12.3189 2.88822L13.4626 3.69562ZM13.3494 2.69299C13.2414 2.65425 13.1305 2.62434 13.0177 2.60354L12.7637 3.9803C12.8021 3.98739 12.8399 3.99757 12.8766 4.01075L13.3494 2.69299ZM13.3264 2.68355C13.3104 2.67954 13.2944 2.67559 13.2784 2.6717L12.9476 4.03204C12.9603 4.03515 12.9731 4.0383 12.9859 4.0415L13.3264 2.68355ZM14.0469 2.78162C13.7851 2.73538 13.513 2.69663 13.2304 2.66648L13.0819 4.05858C13.3329 4.08536 13.5733 4.11964 13.8034 4.16028L14.0469 2.78162ZM8.19324 3.81579C8.36634 3.90826 8.53197 4.01405 8.68863 4.1322L9.53164 3.01447C9.31698 2.85257 9.09005 2.70763 8.8529 2.58094L8.19324 3.81579ZM7.85761 3.67742C7.96874 3.70553 8.07553 3.74869 8.17502 3.80571L8.87111 2.59102C8.66111 2.47068 8.43565 2.37954 8.20096 2.32017L7.85761 3.67742ZM8.02339 3.68981C7.98831 3.69548 7.95256 3.69548 7.91748 3.68981L8.14109 2.30778C8.02806 2.28949 7.91281 2.28949 7.79978 2.30778L8.02339 3.68981ZM8.61015 2.98176C8.61205 3.02639 8.60928 3.0712 8.6018 3.11543L7.22137 2.88216C7.21246 2.9349 7.20915 2.98833 7.21142 3.04155L8.61015 2.98176ZM8.59712 3.38239C8.58738 3.29431 8.58925 3.20537 8.60269 3.11782L7.21888 2.9055C7.18685 3.11427 7.18239 3.32632 7.2056 3.53624L8.59712 3.38239ZM8.65689 3.76117C8.63296 3.63262 8.61252 3.50171 8.59568 3.37031L7.20704 3.54833C7.22711 3.70486 7.25158 3.86188 7.28054 4.01743L8.65689 3.76117ZM8.96002 2.88962C8.52752 2.98458 8.12249 3.09857 7.74481 3.22607L8.19262 4.55252C8.52243 4.44118 8.8782 4.34093 9.26024 4.25705L8.96002 2.88962ZM7.21984 2.89928L7.21904 2.90446L8.60253 3.11886L8.60333 3.11368L7.21984 2.89928ZM8.61159 3.01927V3.00648H7.21159V3.01927H8.61159ZM7.21143 3.04164C7.21277 3.07307 7.21608 3.10458 7.22139 3.13599L8.60179 2.90255C8.60625 2.92891 8.60901 2.95534 8.61014 2.98167L7.21143 3.04164ZM6.1131 5.1537C6.16915 5.16695 6.2247 5.18201 6.27969 5.19885L6.68959 3.8602C6.60563 3.83449 6.5208 3.8115 6.43523 3.79127L6.1131 5.1537ZM5.70754 5.10314C5.846 5.10692 5.98378 5.12431 6.11887 5.15504L6.42946 3.78993C6.20495 3.73885 5.97594 3.70995 5.74576 3.70366L5.70754 5.10314ZM5.8146 5.08413C5.77764 5.09804 5.73818 5.10443 5.69854 5.10284L5.75475 3.70397C5.60701 3.69803 5.45967 3.72184 5.32144 3.77386L5.8146 5.08413ZM6.25883 4.36964C6.26817 4.42673 6.26817 4.48498 6.25883 4.54207L4.87721 4.31592C4.86204 4.4086 4.86204 4.50311 4.87721 4.59579L6.25883 4.36964ZM6.28309 4.71765C6.26639 4.66087 6.26041 4.60145 6.26547 4.54244L4.87057 4.42298C4.85069 4.65513 4.8742 4.88897 4.93993 5.11254L6.28309 4.71765ZM6.3139 4.82079C6.30418 4.79163 6.29529 4.76216 6.28725 4.73241L4.93577 5.09779C4.95084 5.15351 4.96749 5.20872 4.9857 5.26337L6.3139 4.82079ZM6.1533 3.91291C5.81495 4.09472 5.51327 4.28293 5.248 4.46888L6.05159 5.61528C6.27208 5.46073 6.52673 5.30157 6.81597 5.14614L6.1533 3.91291ZM10.0194 1.70666C9.83187 1.94538 9.71154 2.36863 9.71123 3.30746L11.1112 3.30792C11.1114 2.87187 11.1424 2.64074 11.1651 2.53276C11.1879 2.42464 11.1947 2.4769 11.1203 2.57163L10.0194 1.70666ZM12.0165 3.03369C11.8582 2.60791 11.6911 2.24238 11.5079 1.97927C11.4174 1.84928 11.2942 1.70185 11.1289 1.59282C10.9503 1.47497 10.6876 1.38307 10.389 1.46291L10.7507 2.81538C10.5622 2.86581 10.4152 2.79917 10.3579 2.76135C10.3139 2.73235 10.3175 2.71972 10.3591 2.77939C10.44 2.89558 10.5582 3.12873 10.7043 3.52166L12.0165 3.03369ZM10.4583 4.0061C10.7529 3.98623 11.0557 3.97067 11.3439 3.97748L11.377 2.57787C11.0226 2.5695 10.6679 2.58879 10.3641 2.60927L10.4583 4.0061Z" fill="#90939E" mask="url(#path-1-outside-1_8598_951)"/>
</g>
</svg>
