<svg width="19" height="19" viewBox="0 0 19 19" fill="none" xmlns="http://www.w3.org/2000/svg">
<path fill-rule="evenodd" clip-rule="evenodd" d="M3.31548 5.49561C3.29362 5.68875 3.22629 5.87438 3.11874 6.03802C3.01119 6.20166 2.86631 6.33892 2.6954 6.43908C2.64245 6.44882 2.58812 6.44882 2.53517 6.43908C2.46155 6.44143 2.38961 6.41728 2.33312 6.37122L2.27737 6.3305C2.12996 6.16047 2.05515 5.9418 2.06837 5.71961C2.06837 5.71961 2.06837 5.66531 2.06837 5.63816C2.06892 5.41477 2.1281 5.19521 2.24029 5.00038C2.35248 4.80555 2.51395 4.6419 2.70935 4.525C3.00196 4.40282 3.25974 4.59968 3.33638 4.9662C3.34392 5.04749 3.34392 5.12926 3.33638 5.21054C3.34664 5.29623 3.34664 5.38279 3.33638 5.46847L3.31548 5.49561ZM9.66247 0.506794L1.37166 3.95487C1.14915 4.09258 0.96768 4.2848 0.845408 4.51232C0.723137 4.73984 0.664359 4.99466 0.674953 5.25127V7.34183C0.674953 7.89841 0.981503 8.23778 1.37166 8.09524L9.66944 4.93227V0.5L9.66247 0.506794Z" fill="#90939E"/>
<path fill-rule="evenodd" clip-rule="evenodd" d="M5.49615 7.58621L1.15566 9.20164C1.0004 9.29356 0.873663 9.42481 0.788997 9.58141C0.704331 9.73801 0.66491 9.91408 0.674928 10.0908V12.8058C0.674928 13.1995 0.890908 13.4438 1.15566 13.3556L5.49615 11.8963C5.66139 11.8052 5.79761 11.6715 5.88981 11.5098C5.98201 11.3481 6.02661 11.1648 6.01868 10.98V8.16313C6.01868 7.72194 5.7818 7.47761 5.49615 7.58621Z" fill="#90939E"/>
<path fill-rule="evenodd" clip-rule="evenodd" d="M9.66938 6.03174V10.464L8.22719 10.9459C7.8022 11.0884 7.46081 10.7287 7.46081 10.1382V7.92544C7.45042 7.65277 7.51624 7.38245 7.65121 7.14337C7.78619 6.90429 7.98526 6.70541 8.22719 6.56794L9.66938 6.03849V6.03174Z" fill="#90939E"/>
<path fill-rule="evenodd" clip-rule="evenodd" d="M3.3155 16.0025C3.29775 16.1889 3.23148 16.3677 3.12298 16.5221C3.01447 16.6765 2.86731 16.8014 2.69542 16.885C2.64223 16.8916 2.58839 16.8916 2.53519 16.885C2.46083 16.8741 2.39094 16.8436 2.33314 16.7967L2.27739 16.7492C2.13207 16.5727 2.05777 16.3507 2.06839 16.1248C2.06839 16.1248 2.06839 16.0705 2.06839 16.0433C2.06516 15.8265 2.12325 15.613 2.23632 15.4262C2.34938 15.2394 2.51305 15.0866 2.70937 14.9844C3.00199 14.8894 3.25976 15.0998 3.3364 15.4799C3.34394 15.5612 3.34394 15.643 3.3364 15.7243C3.34666 15.81 3.34666 15.8966 3.3364 15.9822L3.3155 16.0025ZM9.66249 11.5703L1.36471 14.2854C1.14363 14.4094 0.961738 14.5902 0.838883 14.808C0.716028 15.0258 0.656922 15.2723 0.668002 15.5207V17.618C0.668002 18.1746 0.974553 18.5411 1.36471 18.4257L9.66249 15.9957V11.5703Z" fill="#90939E"/>
<path fill-rule="evenodd" clip-rule="evenodd" d="M18.1693 14.36L13.8358 12.9346C13.5431 12.8464 13.3132 13.0975 13.3132 13.5048V16.3216C13.3009 16.5044 13.3438 16.6866 13.4366 16.8459C13.5295 17.0051 13.6683 17.1343 13.8358 17.2175L18.1693 18.4868C18.434 18.5615 18.65 18.3104 18.65 17.9167V15.2017C18.6608 15.0276 18.6216 14.8541 18.5366 14.7006C18.4517 14.5471 18.3245 14.4197 18.1693 14.3329V14.36Z" fill="#90939E"/>
<path fill-rule="evenodd" clip-rule="evenodd" d="M9.66248 11.5703V15.9957L11.1047 16.4166C11.5227 16.5387 11.871 16.1654 11.871 15.5749V13.3962C11.8895 13.1222 11.8272 12.8489 11.6914 12.6083C11.5556 12.3678 11.352 12.1701 11.1047 12.0387L9.66248 11.5703Z" fill="#90939E"/>
<path fill-rule="evenodd" clip-rule="evenodd" d="M17.0685 11.5636C17.0541 11.5811 17.0377 11.5971 17.0197 11.6111C16.9609 11.6586 16.8871 11.6849 16.8107 11.6858C16.7581 11.6987 16.703 11.6987 16.6505 11.6858C16.4772 11.5962 16.3293 11.4663 16.2199 11.3076C16.1105 11.149 16.043 10.9665 16.0234 10.7763C16.0163 10.6905 16.0163 10.6042 16.0234 10.5184C16.0159 10.4393 16.0159 10.3598 16.0234 10.2808C16.0931 9.90746 16.3509 9.69708 16.6505 9.80568C16.8455 9.9162 17.0074 10.0747 17.1199 10.2652C17.2324 10.4558 17.2915 10.6718 17.2914 10.8917V10.9799C17.2957 11.195 17.2161 11.4036 17.0685 11.5636ZM15.2222 10.9188L15.1665 10.9663C15.1044 11.0129 15.0288 11.0391 14.9505 11.041C14.8979 11.0539 14.8429 11.0539 14.7903 11.041C14.6132 10.9503 14.4615 10.8188 14.3486 10.6579C14.2356 10.4969 14.1648 10.3116 14.1423 10.1179C14.1354 10.0298 14.1354 9.94131 14.1423 9.8532C14.1348 9.77192 14.1348 9.6901 14.1423 9.60882C14.219 9.22872 14.4837 9.01829 14.7903 9.13368C14.9895 9.24415 15.1551 9.40417 15.2701 9.59734C15.3852 9.79051 15.4456 10.01 15.4452 10.2333C15.4483 10.2626 15.4483 10.2922 15.4452 10.3215C15.4613 10.5482 15.3864 10.7721 15.2362 10.946L15.2222 10.9188ZM17.9672 9.12693L9.66946 6.03857V10.4641L17.9672 13.2605C18.3504 13.3895 18.664 13.0433 18.664 12.48V10.3894C18.6803 10.1366 18.6237 9.88437 18.5006 9.66127C18.3775 9.43816 18.1927 9.25308 17.9672 9.12693Z" fill="#90939E"/>
<path fill-rule="evenodd" clip-rule="evenodd" d="M18.1693 4.04312L13.8358 2.23766C13.5432 2.12227 13.3133 2.35306 13.3133 2.7671V5.5839C13.3046 5.77158 13.3486 5.95801 13.4407 6.12308C13.5328 6.28815 13.6694 6.4256 13.8358 6.52058L18.1693 8.16994C18.434 8.27176 18.65 8.03421 18.65 7.64054V4.92553C18.6532 4.75083 18.6107 4.57822 18.5266 4.42388C18.4425 4.26954 18.3196 4.1385 18.1693 4.04312Z" fill="#90939E"/>
<path fill-rule="evenodd" clip-rule="evenodd" d="M9.66248 0.5V4.92548L11.1047 5.47527C11.5227 5.63817 11.871 5.29199 11.871 4.70148V2.48194C11.8729 2.21075 11.8034 1.94363 11.6693 1.706C11.5351 1.46837 11.3407 1.26815 11.1047 1.12444L9.66248 0.5Z" fill="#90939E"/>
</svg>
