<svg width="41" height="40" viewBox="0 0 41 40" fill="none" xmlns="http://www.w3.org/2000/svg">
<g id="akar-icons:github-fill">
<path id="Vector" fill-rule="evenodd" clip-rule="evenodd" d="M20.25 3.5C10.9032 3.5 3.33264 11.0705 3.33264 20.4173C3.33264 27.9033 8.17523 34.2261 14.8999 36.4677C15.7457 36.6157 16.0629 36.1082 16.0629 35.6641C16.0629 35.2623 16.0418 33.9301 16.0418 32.5133C11.7913 33.2957 10.6917 31.4771 10.3533 30.5255C10.163 30.0391 9.3383 28.5377 8.61931 28.1359C8.02721 27.8187 7.18134 27.0363 8.59817 27.0151C9.93041 26.994 10.882 28.2416 11.1992 28.7491C12.7218 31.3079 15.1536 30.5889 16.1264 30.1448C16.2744 29.0452 16.7185 28.3051 17.2049 27.8821C13.4408 27.4592 9.50747 26.0001 9.50747 19.5292C9.50747 17.6894 10.163 16.1669 11.2415 14.9826C11.0723 14.5597 10.4802 12.8257 11.4107 10.4996C11.4107 10.4996 12.8275 10.0555 16.0629 12.2336C17.4163 11.8529 18.8543 11.6626 20.2923 11.6626C21.7303 11.6626 23.1682 11.8529 24.5216 12.2336C27.7571 10.0343 29.1739 10.4996 29.1739 10.4996C30.1043 12.8257 29.5122 14.5597 29.3431 14.9826C30.4215 16.1669 31.0771 17.6683 31.0771 19.5292C31.0771 26.0212 27.1227 27.4592 23.3586 27.8821C23.9718 28.4108 24.5005 29.4258 24.5005 31.0118C24.5005 33.2745 24.4793 35.0931 24.4793 35.6641C24.4793 36.1082 24.7965 36.6369 25.6424 36.4677C29.0007 35.3338 31.919 33.1754 33.9864 30.2962C36.0538 27.417 37.1663 23.9619 37.1673 20.4173C37.1673 11.0705 29.5968 3.5 20.25 3.5Z" fill="#90939E"/>
</g>
</svg>
