<svg width="146" height="148" viewBox="0 0 146 148" fill="none" xmlns="http://www.w3.org/2000/svg">
<g clip-path="url(#clip0_3596_19856)">
<g opacity="0.05">
<path d="M40.4084 105.572C34.9566 105.572 29.8652 102.897 26.7789 98.4232L24.1881 94.6917C23.8052 94.1298 23.7601 93.4104 24.0755 92.8035C24.3909 92.1966 25.0217 91.8144 25.6975 91.8144H29.5949V46.924C29.5949 44.4289 31.6224 42.4058 34.1231 42.4058H112.769C115.269 42.4058 117.297 44.4289 117.297 46.924V91.8144H121.194C121.87 91.8144 122.501 92.1966 122.816 92.8035C123.132 93.4104 123.087 94.1298 122.704 94.6917L120.136 98.4232C117.049 102.897 111.935 105.572 106.506 105.572H40.4084ZM64.3558 95.5235C64.5135 95.7707 64.7614 95.9056 65.0317 95.9056H81.3871C81.6575 95.9056 81.9053 95.7707 82.063 95.5235V95.4785H64.3333V95.5235H64.3558ZM113.647 91.8144V46.924C113.647 46.452 113.264 46.0698 112.791 46.0698H34.1231C33.65 46.0698 33.267 46.452 33.267 46.924V91.8144H113.602H113.647Z" fill="url(#paint0_linear_3596_19856)"/>
</g>
<g opacity="0.05">
<path d="M40.4084 106.471C34.6637 106.471 29.302 103.661 26.0355 98.9405L23.4447 95.209C22.859 94.3773 22.8139 93.2983 23.2645 92.3991C23.7376 91.5 24.6612 90.938 25.675 90.938H28.6713V46.9242C28.6713 43.957 31.1043 41.5293 34.078 41.5293H112.724C115.698 41.5293 118.131 43.957 118.131 46.9242V90.938H121.127C122.141 90.938 123.064 91.5 123.537 92.3991C124.01 93.2983 123.943 94.3773 123.357 95.209L120.789 98.9405C117.522 103.661 112.161 106.471 106.416 106.471H40.4084ZM112.724 90.938V46.9692H34.1456V90.938H112.724Z" fill="url(#paint1_linear_3596_19856)"/>
</g>
<g opacity="0.05">
<path d="M40.4084 108.224C34.078 108.224 28.1756 105.122 24.5936 99.9295L22.0029 96.198C21.0567 94.8268 20.9441 93.0509 21.7326 91.5673C22.5211 90.0837 24.0304 89.1621 25.7201 89.1621H26.9591V46.9242C26.9591 42.9679 30.1806 39.7534 34.1456 39.7534H112.791C116.756 39.7534 119.978 42.9679 119.978 46.9242V89.1621H121.217C122.884 89.1621 124.416 90.0837 125.182 91.5673C125.97 93.0509 125.858 94.8268 124.912 96.198L122.343 99.9295C118.761 105.122 112.836 108.224 106.529 108.224H40.4084ZM110.967 89.1621V48.7225H35.9253V89.1621H110.967Z" fill="url(#paint2_linear_3596_19856)"/>
</g>
<g opacity="0.05">
<path d="M40.4084 110C33.5148 110 27.0492 106.606 23.1293 100.941L20.5386 97.2095C19.2094 95.2988 19.0742 92.8261 20.1556 90.758C21.1694 88.8473 23.0392 87.611 25.1794 87.4312V46.9241C25.1794 42.0012 29.1894 38 34.1231 38H112.769C117.703 38 121.713 42.0012 121.713 46.9241V87.4312C123.83 87.611 125.723 88.8473 126.714 90.758C127.795 92.8261 127.66 95.2988 126.331 97.2095L123.763 100.941C119.843 106.606 113.377 110 106.484 110H40.4084ZM109.209 87.4312V50.4983H37.6825V87.4087H109.187L109.209 87.4312Z" fill="url(#paint3_linear_3596_19856)"/>
</g>
<g style="mix-blend-mode:multiply" opacity="0.44">
<path d="M40.4084 105.235C35.0692 105.235 30.0905 102.627 27.0717 98.2436L24.481 94.5121C24.1656 94.0625 24.1206 93.4781 24.3909 92.9835C24.6387 92.489 25.1568 92.1968 25.6975 92.1968H29.9328V46.9242C29.9328 44.6314 31.8027 42.7656 34.1005 42.7656H112.746C115.044 42.7656 116.914 44.6314 116.914 46.9242V92.1743H121.149C121.713 92.1743 122.208 92.489 122.456 92.9611C122.704 93.4556 122.681 94.0401 122.366 94.4896L119.775 98.2211C116.756 102.605 111.755 105.212 106.438 105.212H40.4084V105.235ZM64.063 95.726C64.2657 96.0632 64.6487 96.2655 65.0317 96.2655H81.3871C81.7926 96.2655 82.1531 96.0632 82.3558 95.726L82.7163 95.1415H63.68L64.0404 95.726H64.063ZM113.985 92.1743V46.9242C113.985 46.2723 113.445 45.7328 112.791 45.7328H34.1231C33.4697 45.7328 32.9291 46.2723 32.9291 46.9242V92.1743H113.985Z" fill="url(#paint4_linear_3596_19856)"/>
</g>
<path d="M122.028 93.2084C121.87 92.8937 121.532 92.6914 121.172 92.6914H116.396V46.9243C116.396 44.9237 114.751 43.2827 112.746 43.2827H34.1231C32.1181 43.2827 30.4735 44.9237 30.4735 46.9243V92.6914H25.6975C25.3371 92.6914 25.0217 92.8937 24.8415 93.2084C24.6838 93.5231 24.7063 93.9053 24.909 94.1975L27.4998 97.929C30.4284 102.178 35.2495 104.695 40.4084 104.695H106.484C111.642 104.695 116.464 102.155 119.392 97.929L121.983 94.1975C122.186 93.9053 122.208 93.5231 122.05 93.2084H122.028ZM82.8064 95.9958C82.491 96.4903 81.9729 96.7826 81.3871 96.7826H65.0317C64.446 96.7826 63.9053 96.4903 63.6124 95.9958L62.7564 94.6021H83.7076L82.8515 95.9958H82.8064ZM32.3884 46.9243C32.3884 45.9802 33.1769 45.1934 34.1231 45.1934H112.769C113.715 45.1934 114.504 45.9802 114.504 46.9243V92.6914H32.3884V46.9243Z" fill="url(#paint5_linear_3596_19856)"/>
<g style="mix-blend-mode:screen" opacity="0.5">
<path d="M40.4084 103.908C35.5198 103.908 30.9241 101.503 28.1531 97.4792L25.5624 93.7477C25.5624 93.7477 25.5173 93.6354 25.5624 93.5904C25.5849 93.5454 25.6525 93.5005 25.6975 93.5005H31.262V46.9241C31.262 45.3506 32.5461 44.0918 34.1005 44.0918H112.746C114.323 44.0918 115.585 45.3731 115.585 46.9241V93.5005H121.149C121.149 93.5005 121.262 93.523 121.285 93.5904C121.307 93.6354 121.307 93.7028 121.285 93.7477L118.694 97.4792C115.923 101.503 111.327 103.908 106.438 103.908H40.4084ZM62.9366 96.4227C63.3871 97.1421 64.1756 97.5916 65.0317 97.5916H81.3871C82.2432 97.5916 83.0317 97.1645 83.4823 96.4227L85.1043 93.8152H61.292L62.914 96.4227H62.9366ZM34.1231 44.4065C32.7263 44.4065 31.5999 45.5304 31.5999 46.9241V93.5005H115.315V46.9241C115.315 45.5304 114.188 44.4065 112.791 44.4065H34.1231Z" fill="url(#paint6_linear_3596_19856)"/>
</g>
<g style="mix-blend-mode:screen" opacity="0.5">
<path d="M40.4084 102.312C36.038 102.312 31.9378 100.177 29.4597 96.5803L28.4234 95.0967H60.2107L61.5624 97.2771C62.3058 98.4685 63.5899 99.1878 65.0092 99.1878H81.3646C82.7839 99.1878 84.068 98.4685 84.8114 97.2771L86.1631 95.0967H118.423L117.387 96.5803C114.909 100.177 110.809 102.312 106.438 102.312H40.4084Z" fill="url(#paint7_linear_3596_19856)"/>
</g>
<path d="M122.028 93.2084C121.87 92.8937 121.532 92.6914 121.172 92.6914H116.396V46.9243C116.396 44.9237 114.751 43.2827 112.746 43.2827H34.1231C32.1181 43.2827 30.4735 44.9237 30.4735 46.9243V92.6914H25.6975C25.3371 92.6914 25.0217 92.8937 24.8415 93.2084C24.6838 93.5231 24.7063 93.9053 24.909 94.1975L27.4998 97.929C30.4284 102.178 35.2495 104.695 40.4084 104.695H106.484C111.642 104.695 116.464 102.155 119.392 97.929L121.983 94.1975C122.186 93.9053 122.208 93.5231 122.05 93.2084H122.028ZM82.8064 95.9958C82.491 96.4903 81.9729 96.7826 81.3871 96.7826H65.0317C64.446 96.7826 63.9053 96.4903 63.6124 95.9958L62.7564 94.6021H83.7076L82.8515 95.9958H82.8064ZM32.3884 46.9243C32.3884 45.9802 33.1769 45.1934 34.1231 45.1934H112.769C113.715 45.1934 114.504 45.9802 114.504 46.9243V92.6914H32.3884V46.9243Z" fill="url(#paint8_linear_3596_19856)"/>
<path d="M59.0219 72.344L58.0299 73.736V77H55.6299V65.832H58.0299V70.504H58.1579L59.3739 68.648L61.3419 65.832H64.0299L60.6859 70.552L64.1899 77H61.4859L59.0219 72.344ZM65.4156 77V65.832H72.5516V67.8H67.8156V70.36H72.3916V72.328H67.8156V75.032H72.5516V77H65.4156ZM77.3294 77V73.048L73.7934 65.832H76.4654L77.6494 68.424L78.5134 70.616H78.6414L79.5054 68.424L80.6894 65.832H83.2654L79.7294 73.048V77H77.3294ZM92.2031 77H84.1711V74.808L87.6911 71.88C88.2991 71.3573 88.7364 70.904 89.0031 70.52C89.2698 70.136 89.4031 69.7307 89.4031 69.304V69.144C89.4031 68.6747 89.2644 68.3227 88.9871 68.088C88.7098 67.8427 88.3364 67.72 87.8671 67.72C87.3338 67.72 86.9231 67.8747 86.6351 68.184C86.3471 68.4933 86.1444 68.8613 86.0271 69.288L83.9311 68.488C84.0591 68.104 84.2351 67.7413 84.4591 67.4C84.6831 67.048 84.9658 66.744 85.3071 66.488C85.6591 66.232 86.0644 66.0293 86.5231 65.88C86.9818 65.72 87.5098 65.64 88.1071 65.64C88.7151 65.64 89.2591 65.7253 89.7391 65.896C90.2191 66.0667 90.6244 66.3013 90.9551 66.6C91.2858 66.8987 91.5364 67.256 91.7071 67.672C91.8778 68.0773 91.9631 68.52 91.9631 69C91.9631 69.4693 91.8831 69.9013 91.7231 70.296C91.5738 70.68 91.3604 71.0427 91.0831 71.384C90.8164 71.7253 90.4964 72.056 90.1231 72.376C89.7604 72.696 89.3711 73.016 88.9551 73.336L86.8271 74.984H92.2031V77Z" fill="white"/>
</g>
<path d="M71.049 144.198C32.1179 144.198 0.434692 112.498 0.434692 73.4866C0.434692 34.4752 32.1179 2.80176 71.049 2.80176C109.98 2.80176 141.663 34.5286 141.663 73.5133C141.663 112.498 109.98 144.225 71.049 144.225V144.198ZM71.049 6.13721C33.9565 6.13721 3.76556 36.3431 3.76556 73.4866C3.76556 110.63 33.9299 140.836 71.0224 140.836C108.115 140.836 138.279 110.63 138.279 73.4866C138.279 36.3431 108.142 6.13721 71.049 6.13721Z" fill="#06281B"/>
<path d="M71.0491 147C54.2881 147 37.9003 141.21 24.8966 130.67L30.4924 123.732C41.924 132.991 56.3133 138.088 71.0224 138.088C106.569 138.088 135.508 109.109 135.508 73.5133C135.508 37.9174 106.596 8.91232 71.0491 8.91232V0C111.526 0 144.435 32.9809 144.435 73.4867C144.435 113.992 111.499 146.973 71.0491 146.973V147Z" fill="#06281B"/>
<defs>
<linearGradient id="paint0_linear_3596_19856" x1="73.446" y1="42.4058" x2="73.446" y2="105.572" gradientUnits="userSpaceOnUse">
<stop stop-color="#E3F6FF"/>
<stop offset="1" stop-color="#55B2DD"/>
</linearGradient>
<linearGradient id="paint1_linear_3596_19856" x1="73.4056" y1="41.5293" x2="73.4056" y2="106.471" gradientUnits="userSpaceOnUse">
<stop stop-color="#E3F6FF"/>
<stop offset="1" stop-color="#55B2DD"/>
</linearGradient>
<linearGradient id="paint2_linear_3596_19856" x1="73.4572" y1="39.7534" x2="73.4572" y2="108.224" gradientUnits="userSpaceOnUse">
<stop stop-color="#E3F6FF"/>
<stop offset="1" stop-color="#55B2DD"/>
</linearGradient>
<linearGradient id="paint3_linear_3596_19856" x1="73.4347" y1="38" x2="73.4347" y2="110" gradientUnits="userSpaceOnUse">
<stop stop-color="#E3F6FF"/>
<stop offset="1" stop-color="#55B2DD"/>
</linearGradient>
<linearGradient id="paint4_linear_3596_19856" x1="73.4188" y1="42.7656" x2="73.4188" y2="105.235" gradientUnits="userSpaceOnUse">
<stop stop-color="#E3F6FF"/>
<stop offset="1" stop-color="#55B2DD"/>
</linearGradient>
<linearGradient id="paint5_linear_3596_19856" x1="73.446" y1="43.2827" x2="73.446" y2="104.695" gradientUnits="userSpaceOnUse">
<stop stop-color="#E3F6FF"/>
<stop offset="1" stop-color="#55B2DD"/>
</linearGradient>
<linearGradient id="paint6_linear_3596_19856" x1="73.4219" y1="44.0918" x2="73.4219" y2="103.908" gradientUnits="userSpaceOnUse">
<stop stop-color="#E3F6FF"/>
<stop offset="1" stop-color="#55B2DD"/>
</linearGradient>
<linearGradient id="paint7_linear_3596_19856" x1="73.4234" y1="95.0967" x2="73.4234" y2="102.312" gradientUnits="userSpaceOnUse">
<stop stop-color="#E3F6FF"/>
<stop offset="1" stop-color="#55B2DD"/>
</linearGradient>
<linearGradient id="paint8_linear_3596_19856" x1="73.446" y1="43.2827" x2="73.446" y2="104.695" gradientUnits="userSpaceOnUse">
<stop stop-color="#E3F6FF"/>
<stop offset="1" stop-color="#55B2DD"/>
</linearGradient>
<clipPath id="clip0_3596_19856">
<rect width="108" height="72" fill="white" transform="translate(19.4347 38)"/>
</clipPath>
</defs>
</svg>
