<svg width="41" height="40" viewBox="0 0 41 40" fill="none" xmlns="http://www.w3.org/2000/svg">
<g id="entypo-social:linkedin-with-circle">
<path id="Vector" d="M20.25 3.5C11.1372 3.5 3.75 10.8872 3.75 20C3.75 29.1128 11.1372 36.5 20.25 36.5C29.3628 36.5 36.75 29.1128 36.75 20C36.75 10.8872 29.3628 3.5 20.25 3.5ZM16.2109 26.8389H12.8697V16.0864H16.2109V26.8389ZM14.5197 14.7664C13.4644 14.7664 12.782 14.0187 12.782 13.0941C12.782 12.1505 13.485 11.4252 14.5627 11.4252C15.6403 11.4252 16.3003 12.1505 16.3209 13.0941C16.3209 14.0187 15.6403 14.7664 14.5197 14.7664ZM28.4141 26.8389H25.0728V20.88C25.0728 19.493 24.5881 18.5511 23.3798 18.5511C22.4569 18.5511 21.9086 19.1888 21.6663 19.8023C21.5769 20.0206 21.5545 20.33 21.5545 20.6377V26.8372H18.2116V19.5153C18.2116 18.173 18.1686 17.0506 18.1239 16.0847H21.0269L21.1798 17.5783H21.2469C21.6869 16.877 22.7645 15.8423 24.5675 15.8423C26.7658 15.8423 28.4141 17.3153 28.4141 20.4812V26.8389Z" fill="#90939E"/>
</g>
</svg>
