<svg width="146" height="148" viewBox="0 0 146 148" fill="none" xmlns="http://www.w3.org/2000/svg">
<g opacity="0.05">
<path d="M67.7949 42.1531C66.6413 42.1531 65.712 41.2245 65.712 40.0717C65.712 38.9189 66.6413 37.9902 67.7949 37.9902H79.0745C80.2281 37.9902 81.1573 38.9189 81.1573 40.0717C81.1573 41.2245 80.2281 42.1531 79.0745 42.1531H67.7949Z" fill="#77C9F4"/>
<path d="M56.6756 116.99C51.5805 116.99 47.4468 112.859 47.4468 107.767V40.2322C47.4468 35.1406 51.5805 31.0098 56.6756 31.0098H90.1618C95.2568 31.0098 99.3905 35.1406 99.3905 40.2322V107.735C99.3905 112.827 95.2568 116.958 90.1618 116.958H56.6756V116.99ZM57.4446 36.1974C55.0093 36.1974 53.0225 38.1828 53.0225 40.6164V107.383C53.0225 109.817 55.0093 111.802 57.4446 111.802H89.3927C91.8281 111.802 93.8148 109.817 93.8148 107.383V40.6164C93.8148 38.1828 91.8281 36.1974 89.3927 36.1974H57.4446Z" fill="#77C9F4"/>
</g>
<g opacity="0.05">
<path d="M67.7949 42.9226C66.2248 42.9226 64.943 41.6417 64.943 40.0726C64.943 38.5035 66.2248 37.2227 67.7949 37.2227H79.0745C80.6447 37.2227 81.9264 38.5035 81.9264 40.0726C81.9264 41.6417 80.6447 42.9226 79.0745 42.9226H67.7949Z" fill="#77C9F4"/>
<path d="M56.6756 117.726C51.164 117.726 46.6778 113.243 46.6778 107.735V40.2324C46.7098 34.7245 51.164 30.2734 56.6756 30.2734H90.1618C95.6734 30.2734 100.16 34.7566 100.16 40.2644V107.767C100.16 113.275 95.6734 117.758 90.1618 117.758H56.6756V117.726ZM57.4446 36.9341C55.4259 36.9341 53.7916 38.5672 53.7916 40.5846V107.351C53.7916 109.368 55.4259 111.002 57.4446 111.002H89.3927C91.4115 111.002 93.0457 109.368 93.0457 107.351V40.6166C93.0457 38.5992 91.4115 36.9661 89.3927 36.9661H57.4446V36.9341Z" fill="#77C9F4"/>
</g>
<g opacity="0.05">
<path d="M67.7949 43.6589C65.8082 43.6589 64.174 42.0578 64.174 40.0404C64.174 38.023 65.7762 36.4219 67.7949 36.4219H79.0745C81.0612 36.4219 82.6955 38.023 82.6955 40.0404C82.6955 42.0578 81.0933 43.6589 79.0745 43.6589H67.7949Z" fill="#77C9F4"/>
<path d="M56.6756 118.495C50.7474 118.495 45.9408 113.691 45.9408 107.767V40.2323C45.9408 34.3082 50.7474 29.5049 56.6756 29.5049H90.1618C96.09 29.5049 100.897 34.3082 100.897 40.2323V107.735C100.897 113.659 96.09 118.463 90.1618 118.463H56.6756V118.495ZM57.4447 37.7026C55.8425 37.7026 54.5286 39.0155 54.5286 40.6166V107.383C54.5286 108.984 55.8425 110.297 57.4447 110.297H89.3927C90.9949 110.297 92.3088 108.984 92.3088 107.383V40.6166C92.3088 39.0155 90.9949 37.7026 89.3927 37.7026H57.4447Z" fill="#77C9F4"/>
</g>
<g opacity="0.05">
<path d="M67.7949 45.1641C64.975 45.1641 62.6678 42.8585 62.6678 40.0406C62.6678 37.2226 64.975 34.917 67.7949 34.917H79.0745C81.8944 34.917 84.2015 37.2226 84.2015 40.0406C84.2015 42.8585 81.8944 45.1641 79.0745 45.1641H67.7949Z" fill="#77C9F4"/>
<path d="M56.6756 120C49.9143 120 44.4347 114.492 44.4347 107.767V40.2325C44.4347 33.5078 49.9463 28 56.6756 28H90.1618C96.9231 28 102.403 33.5078 102.403 40.2325V107.735C102.403 114.492 96.891 119.968 90.1618 119.968H56.6756V120ZM57.4446 39.2078C56.6756 39.2078 56.0347 39.8482 56.0347 40.6168V107.383C56.0347 108.152 56.6756 108.792 57.4446 108.792H89.3927C90.1618 108.792 90.8026 108.152 90.8026 107.383V40.6168C90.8026 39.8482 90.1618 39.2078 89.3927 39.2078H57.4446Z" fill="#77C9F4"/>
</g>
<g style="mix-blend-mode:multiply" opacity="0.44">
<path d="M67.7949 41.0969C67.2182 41.0969 66.7375 40.6165 66.7375 40.0401C66.7375 39.4637 67.2182 38.9834 67.7949 38.9834H79.0745C79.6513 38.9834 80.132 39.4637 80.132 40.0401C80.132 40.6165 79.6513 41.0969 79.0745 41.0969H67.7949Z" fill="#202020"/>
<path d="M56.6756 115.933C52.1574 115.933 48.5043 112.25 48.5043 107.767V40.2321C48.5043 35.7169 52.1894 32.0664 56.6756 32.0664H90.1618C94.68 32.0664 98.3331 35.749 98.3331 40.2321V107.735C98.3331 112.25 94.648 115.901 90.1618 115.901H56.6756V115.933ZM57.4447 35.1405C54.4325 35.1405 51.9651 37.6063 51.9651 40.6164V107.383C51.9651 110.393 54.4325 112.859 57.4447 112.859H89.3927C92.4049 112.859 94.8723 110.393 94.8723 107.383V40.6164C94.8723 37.6063 92.4049 35.1405 89.3927 35.1405H57.4447Z" fill="#202020"/>
</g>
<path d="M67.7949 40.6489H79.0745C79.3949 40.6489 79.6513 40.3927 79.6513 40.0725C79.6513 39.7523 79.3949 39.4961 79.0745 39.4961H67.7949C67.4745 39.4961 67.2181 39.7523 67.2181 40.0725C67.2181 40.3927 67.4745 40.6489 67.7949 40.6489Z" fill="#77C9F4"/>
<path d="M90.1618 115.485C94.4237 115.485 97.8844 112.027 97.8844 107.768V40.233C97.8844 35.974 94.4237 32.5156 90.1618 32.5156H56.6756C52.4137 32.5156 48.9529 35.974 48.9529 40.233V107.736C48.9529 111.995 52.4137 115.453 56.6756 115.453H90.1618V115.485ZM51.5165 107.384V40.6173C51.5165 37.351 54.1761 34.6931 57.4447 34.6931H89.3927C92.6612 34.6931 95.3209 37.351 95.3209 40.6173V107.384C95.3209 110.65 92.6612 113.308 89.3927 113.308H57.4447C54.1761 113.308 51.5165 110.65 51.5165 107.384Z" fill="#77C9F4"/>
<g style="mix-blend-mode:screen" opacity="0.5">
<path d="M67.7949 40.6489H79.0745C79.3949 40.6489 79.6513 40.3927 79.6513 40.0725C79.6513 39.7523 79.3949 39.4961 79.0745 39.4961H67.7949C67.4745 39.4961 67.2181 39.7523 67.2181 40.0725C67.2181 40.3927 67.4745 40.6489 67.7949 40.6489Z" fill="#77C9F4"/>
<path d="M56.6756 114.812C52.7982 114.812 49.6259 111.642 49.6259 107.767V40.2324C49.6259 36.3577 52.7982 33.1875 56.6756 33.1875H90.1618C94.0391 33.1875 97.2115 36.3577 97.2115 40.2324V107.735C97.2115 111.61 94.0391 114.78 90.1618 114.78H56.6756V114.812ZM57.4446 34.0201C53.7916 34.0201 50.8435 36.9661 50.8435 40.6167V107.383C50.8435 111.034 53.7916 113.98 57.4446 113.98H89.3927C93.0457 113.98 95.9938 111.034 95.9938 107.383V40.6167C95.9938 36.9661 93.0457 34.0201 89.3927 34.0201H57.4446Z" fill="#77C9F4"/>
</g>
<g style="mix-blend-mode:screen" opacity="0.5">
<path d="M67.7949 40.6489H79.0744C79.3949 40.6489 79.6512 40.3927 79.6512 40.0725C79.6512 39.7523 79.3949 39.4961 79.0744 39.4961H67.7949C67.4744 39.4961 67.2181 39.7523 67.2181 40.0725C67.2181 40.3927 67.4744 40.6489 67.7949 40.6489Z" fill="#77C9F4"/>
<path d="M92.501 113.82C94.9043 112.667 96.5385 110.201 96.5385 107.383V40.6169C96.5385 37.799 94.8722 35.3333 92.501 34.1805C94.9363 35.1091 96.6667 37.4788 96.6667 40.2647V107.768C96.6667 110.522 94.9363 112.891 92.501 113.852V113.82ZM54.3363 113.82C51.901 112.891 50.1706 110.522 50.1706 107.736V40.2327C50.1706 37.4788 51.901 35.1091 54.3363 34.1484C51.933 35.3012 50.2988 37.767 50.2988 40.5849V107.351C50.2988 110.169 51.9651 112.635 54.3363 113.788V113.82Z" fill="#77C9F4"/>
</g>
<g style="mix-blend-mode:screen" opacity="0.5">
<path d="M67.7949 40.6489H79.0745C79.3949 40.6489 79.6513 40.3927 79.6513 40.0725C79.6513 39.7523 79.3949 39.4961 79.0745 39.4961H67.7949C67.4745 39.4961 67.2181 39.7523 67.2181 40.0725C67.2181 40.3927 67.4745 40.6489 67.7949 40.6489Z" fill="#77C9F4"/>
<path d="M90.1618 115.485C94.4237 115.485 97.8844 112.027 97.8844 107.768V40.233C97.8844 35.974 94.4237 32.5156 90.1618 32.5156H56.6756C52.4137 32.5156 48.9529 35.974 48.9529 40.233V107.736C48.9529 111.995 52.4137 115.453 56.6756 115.453H90.1618V115.485ZM51.5165 107.384V40.6173C51.5165 37.351 54.1761 34.6931 57.4447 34.6931H89.3927C92.6612 34.6931 95.3209 37.351 95.3209 40.6173V107.384C95.3209 110.65 92.6612 113.308 89.3927 113.308H57.4447C54.1761 113.308 51.5165 110.65 51.5165 107.384Z" fill="#77C9F4"/>
</g>
<g style="mix-blend-mode:soft-light">
<path d="M67.7949 40.6489H79.0745C79.3949 40.6489 79.6513 40.3927 79.6513 40.0725C79.6513 39.7523 79.3949 39.4961 79.0745 39.4961H67.7949C67.4745 39.4961 67.2181 39.7523 67.2181 40.0725C67.2181 40.3927 67.4745 40.6489 67.7949 40.6489Z" fill="url(#paint0_linear_3596_20014)"/>
<path d="M90.1618 115.485C94.4237 115.485 97.8844 112.027 97.8844 107.768V40.233C97.8844 35.974 94.4237 32.5156 90.1618 32.5156H56.6756C52.4137 32.5156 48.9529 35.974 48.9529 40.233V107.736C48.9529 111.995 52.4137 115.453 56.6756 115.453H90.1618V115.485ZM51.5165 107.384V40.6173C51.5165 37.351 54.1761 34.6931 57.4447 34.6931H89.3927C92.6612 34.6931 95.3209 37.351 95.3209 40.6173V107.384C95.3209 110.65 92.6612 113.308 89.3927 113.308H57.4447C54.1761 113.308 51.5165 110.65 51.5165 107.384Z" fill="url(#paint1_linear_3596_20014)"/>
</g>
<g style="mix-blend-mode:soft-light">
<path d="M67.7949 40.6489H79.0745C79.3949 40.6489 79.6513 40.3927 79.6513 40.0725C79.6513 39.7523 79.3949 39.4961 79.0745 39.4961H67.7949C67.4745 39.4961 67.2181 39.7523 67.2181 40.0725C67.2181 40.3927 67.4745 40.6489 67.7949 40.6489Z" fill="url(#paint2_linear_3596_20014)"/>
<path d="M90.1618 115.485C94.4237 115.485 97.8844 112.027 97.8844 107.768V40.233C97.8844 35.974 94.4237 32.5156 90.1618 32.5156H56.6756C52.4137 32.5156 48.9529 35.974 48.9529 40.233V107.736C48.9529 111.995 52.4137 115.453 56.6756 115.453H90.1618V115.485ZM51.5165 107.384V40.6173C51.5165 37.351 54.1761 34.6931 57.4447 34.6931H89.3927C92.6612 34.6931 95.3209 37.351 95.3209 40.6173V107.384C95.3209 110.65 92.6612 113.308 89.3927 113.308H57.4447C54.1761 113.308 51.5165 110.65 51.5165 107.384Z" fill="url(#paint3_linear_3596_20014)"/>
</g>
<path d="M61.0656 74.926L60.1976 76.144V79H58.0976V69.228H60.1976V73.316H60.3096L61.3736 71.692L63.0956 69.228H65.4476L62.5216 73.358L65.5876 79H63.2216L61.0656 74.926ZM66.6602 79V69.228H72.9042V70.95H68.7602V73.19H72.7642V74.912H68.7602V77.278H72.9042V79H66.6602ZM77.0847 79V75.542L73.9907 69.228H76.3287L77.3647 71.496L78.1207 73.414H78.2327L78.9887 71.496L80.0247 69.228H82.2787L79.1847 75.542V79H77.0847ZM83.6452 79V77.306H86.2772V70.754H86.1512L84.1632 73.358L82.8192 72.308L85.1572 69.228H88.3772V77.306H90.4492V79H83.6452Z" fill="white"/>
<path d="M70.6145 144.198C31.6833 144.198 0.00012207 112.498 0.00012207 73.4866C0.00012207 34.4752 31.6833 2.80176 70.6145 2.80176C109.546 2.80176 141.229 34.5286 141.229 73.5133C141.229 112.498 109.546 144.225 70.6145 144.225V144.198ZM70.6145 6.13721C33.522 6.13721 3.33099 36.3431 3.33099 73.4866C3.33099 110.63 33.4953 140.836 70.5878 140.836C107.68 140.836 137.845 110.63 137.845 73.4866C137.845 36.3431 107.707 6.13721 70.6145 6.13721Z" fill="#451E37"/>
<path d="M70.6145 147C53.8536 147 37.4657 141.21 24.462 130.67L30.0579 123.732C41.4894 132.991 55.8788 138.088 70.5879 138.088C106.135 138.088 135.073 109.109 135.073 73.5133C135.073 37.9174 106.162 8.91232 70.6145 8.91232V0C111.091 0 144 32.9809 144 73.4867C144 113.992 111.065 146.973 70.6145 146.973V147Z" fill="#451E37"/>
<defs>
<linearGradient id="paint0_linear_3596_20014" x1="48.9529" y1="40.0725" x2="97.8844" y2="40.0725" gradientUnits="userSpaceOnUse">
<stop stop-color="white"/>
<stop offset="1"/>
</linearGradient>
<linearGradient id="paint1_linear_3596_20014" x1="48.9529" y1="73.9845" x2="97.8844" y2="73.9845" gradientUnits="userSpaceOnUse">
<stop stop-color="white"/>
<stop offset="1"/>
</linearGradient>
<linearGradient id="paint2_linear_3596_20014" x1="73.4347" y1="32.5152" x2="73.4347" y2="115.485" gradientUnits="userSpaceOnUse">
<stop stop-color="white"/>
<stop offset="1"/>
</linearGradient>
<linearGradient id="paint3_linear_3596_20014" x1="73.4347" y1="32.5156" x2="73.4347" y2="115.485" gradientUnits="userSpaceOnUse">
<stop stop-color="white"/>
<stop offset="1"/>
</linearGradient>
</defs>
</svg>
