<svg width="146" height="148" viewBox="0 0 146 148" fill="none" xmlns="http://www.w3.org/2000/svg">
<g clip-path="url(#clip0_3596_19990)">
<g opacity="0.05">
<path d="M40.4084 105.572C34.9566 105.572 29.8652 102.897 26.7789 98.4237L24.1882 94.6922C23.8052 94.1303 23.7601 93.4109 24.0755 92.804C24.3909 92.1971 25.0217 91.8149 25.6975 91.8149H29.5949V46.9245C29.5949 44.4294 31.6224 42.4062 34.1231 42.4062H112.769C115.27 42.4062 117.297 44.4294 117.297 46.9245V91.8149H121.194C121.87 91.8149 122.501 92.1971 122.816 92.804C123.132 93.4109 123.087 94.1303 122.704 94.6922L120.136 98.4237C117.049 102.897 111.935 105.572 106.506 105.572H40.4084ZM64.3559 95.524C64.5136 95.7712 64.7614 95.9061 65.0317 95.9061H81.3871C81.6575 95.9061 81.9053 95.7712 82.063 95.524V95.479H64.3333V95.524H64.3559ZM113.647 91.8149V46.9245C113.647 46.4525 113.264 46.0703 112.791 46.0703H34.1231C33.65 46.0703 33.267 46.4525 33.267 46.9245V91.8149H113.602H113.647Z" fill="url(#paint0_linear_3596_19990)"/>
</g>
<g opacity="0.05">
<path d="M40.4084 106.471C34.6637 106.471 29.302 103.661 26.0355 98.9405L23.4447 95.209C22.859 94.3773 22.8139 93.2983 23.2645 92.3991C23.7376 91.5 24.6612 90.938 25.675 90.938H28.6713V46.9242C28.6713 43.957 31.1043 41.5293 34.078 41.5293H112.724C115.698 41.5293 118.131 43.957 118.131 46.9242V90.938H121.127C122.141 90.938 123.064 91.5 123.537 92.3991C124.01 93.2983 123.943 94.3773 123.357 95.209L120.789 98.9405C117.522 103.661 112.161 106.471 106.416 106.471H40.4084ZM112.724 90.938V46.9692H34.1456V90.938H112.724Z" fill="url(#paint1_linear_3596_19990)"/>
</g>
<g opacity="0.05">
<path d="M40.4084 108.224C34.078 108.224 28.1756 105.122 24.5936 99.929L22.0029 96.1975C21.0567 94.8263 20.9441 93.0505 21.7326 91.5669C22.5211 90.0832 24.0304 89.1616 25.7201 89.1616H26.9591V46.9237C26.9591 42.9674 30.1806 39.7529 34.1456 39.7529H112.791C116.756 39.7529 119.978 42.9674 119.978 46.9237V89.1616H121.217C122.884 89.1616 124.416 90.0832 125.182 91.5669C125.97 93.0505 125.858 94.8263 124.912 96.1975L122.343 99.929C118.761 105.122 112.836 108.224 106.529 108.224H40.4084ZM110.967 89.1616V48.722H35.9253V89.1616H110.967Z" fill="url(#paint2_linear_3596_19990)"/>
</g>
<g opacity="0.05">
<path d="M40.4084 110C33.5148 110 27.0492 106.606 23.1293 100.941L20.5386 97.2095C19.2094 95.2988 19.0742 92.8261 20.1556 90.758C21.1694 88.8473 23.0392 87.611 25.1794 87.4312V46.9241C25.1794 42.0012 29.1894 38 34.1231 38H112.769C117.703 38 121.713 42.0012 121.713 46.9241V87.4312C123.83 87.611 125.723 88.8473 126.714 90.758C127.795 92.8261 127.66 95.2988 126.331 97.2095L123.763 100.941C119.843 106.606 113.377 110 106.484 110H40.4084ZM109.209 87.4312V50.4983H37.6825V87.4087H109.187L109.209 87.4312Z" fill="url(#paint3_linear_3596_19990)"/>
</g>
<g style="mix-blend-mode:multiply" opacity="0.44">
<path d="M40.4084 105.235C35.0692 105.235 30.0905 102.627 27.0717 98.2436L24.481 94.5121C24.1656 94.0625 24.1206 93.4781 24.3909 92.9835C24.6387 92.489 25.1568 92.1968 25.6975 92.1968H29.9328V46.9242C29.9328 44.6314 31.8027 42.7656 34.1005 42.7656H112.746C115.044 42.7656 116.914 44.6314 116.914 46.9242V92.1743H121.149C121.713 92.1743 122.208 92.489 122.456 92.9611C122.704 93.4556 122.681 94.0401 122.366 94.4896L119.775 98.2211C116.756 102.605 111.755 105.212 106.438 105.212H40.4084V105.235ZM64.063 95.726C64.2657 96.0632 64.6487 96.2655 65.0317 96.2655H81.3871C81.7926 96.2655 82.1531 96.0632 82.3558 95.726L82.7163 95.1415H63.68L64.0404 95.726H64.063ZM113.985 92.1743V46.9242C113.985 46.2723 113.445 45.7328 112.791 45.7328H34.1231C33.4697 45.7328 32.9291 46.2723 32.9291 46.9242V92.1743H113.985Z" fill="url(#paint4_linear_3596_19990)"/>
</g>
<path d="M122.028 93.2079C121.87 92.8932 121.532 92.6909 121.172 92.6909H116.396V46.9238C116.396 44.9232 114.751 43.2822 112.746 43.2822H34.1231C32.1181 43.2822 30.4735 44.9232 30.4735 46.9238V92.6909H25.6975C25.3371 92.6909 25.0217 92.8932 24.8415 93.2079C24.6838 93.5226 24.7063 93.9048 24.909 94.197L27.4998 97.9285C30.4284 102.177 35.2495 104.695 40.4084 104.695H106.484C111.642 104.695 116.464 102.155 119.392 97.9285L121.983 94.197C122.186 93.9048 122.208 93.5226 122.05 93.2079H122.028ZM82.8064 95.9953C82.491 96.4898 81.9729 96.7821 81.3871 96.7821H65.0317C64.446 96.7821 63.9053 96.4898 63.6124 95.9953L62.7564 94.6016H83.7076L82.8515 95.9953H82.8064ZM32.3884 46.9238C32.3884 45.9797 33.1769 45.1929 34.1231 45.1929H112.769C113.715 45.1929 114.504 45.9797 114.504 46.9238V92.6909H32.3884V46.9238Z" fill="url(#paint5_linear_3596_19990)"/>
<g style="mix-blend-mode:screen" opacity="0.5">
<path d="M40.4084 103.908C35.5198 103.908 30.9241 101.503 28.1531 97.4792L25.5624 93.7477C25.5624 93.7477 25.5173 93.6354 25.5624 93.5904C25.5849 93.5454 25.6525 93.5005 25.6975 93.5005H31.262V46.9241C31.262 45.3506 32.5461 44.0918 34.1005 44.0918H112.746C114.323 44.0918 115.585 45.3731 115.585 46.9241V93.5005H121.149C121.149 93.5005 121.262 93.523 121.285 93.5904C121.307 93.6354 121.307 93.7028 121.285 93.7477L118.694 97.4792C115.923 101.503 111.327 103.908 106.438 103.908H40.4084ZM62.9366 96.4227C63.3871 97.1421 64.1756 97.5916 65.0317 97.5916H81.3871C82.2432 97.5916 83.0317 97.1645 83.4823 96.4227L85.1043 93.8152H61.292L62.914 96.4227H62.9366ZM34.1231 44.4065C32.7263 44.4065 31.5999 45.5304 31.5999 46.9241V93.5005H115.315V46.9241C115.315 45.5304 114.188 44.4065 112.791 44.4065H34.1231Z" fill="url(#paint6_linear_3596_19990)"/>
</g>
<g style="mix-blend-mode:screen" opacity="0.5">
<path d="M40.4084 102.312C36.038 102.312 31.9378 100.177 29.4597 96.5803L28.4234 95.0967H60.2107L61.5624 97.2771C62.3058 98.4685 63.5899 99.1878 65.0092 99.1878H81.3646C82.7839 99.1878 84.068 98.4685 84.8114 97.2771L86.1631 95.0967H118.423L117.387 96.5803C114.909 100.177 110.809 102.312 106.438 102.312H40.4084Z" fill="url(#paint7_linear_3596_19990)"/>
</g>
<path d="M122.028 93.2079C121.87 92.8932 121.532 92.6909 121.172 92.6909H116.396V46.9238C116.396 44.9232 114.751 43.2822 112.746 43.2822H34.1231C32.1181 43.2822 30.4735 44.9232 30.4735 46.9238V92.6909H25.6975C25.3371 92.6909 25.0217 92.8932 24.8415 93.2079C24.6838 93.5226 24.7063 93.9048 24.909 94.197L27.4998 97.9285C30.4284 102.177 35.2495 104.695 40.4084 104.695H106.484C111.642 104.695 116.464 102.155 119.392 97.9285L121.983 94.197C122.186 93.9048 122.208 93.5226 122.05 93.2079H122.028ZM82.8064 95.9953C82.491 96.4898 81.9729 96.7821 81.3871 96.7821H65.0317C64.446 96.7821 63.9053 96.4898 63.6124 95.9953L62.7564 94.6016H83.7076L82.8515 95.9953H82.8064ZM32.3884 46.9238C32.3884 45.9797 33.1769 45.1929 34.1231 45.1929H112.769C113.715 45.1929 114.504 45.9797 114.504 46.9238V92.6909H32.3884V46.9238Z" fill="url(#paint8_linear_3596_19990)"/>
<path d="M60.0656 69.926L59.1976 71.144V74H57.0976V64.228H59.1976V68.316H59.3096L60.3736 66.692L62.0956 64.228H64.4476L61.5216 68.358L64.5876 74H62.2216L60.0656 69.926ZM65.6602 74V64.228H71.9042V65.95H67.7602V68.19H71.7642V69.912H67.7602V72.278H71.9042V74H65.6602ZM76.0847 74V70.542L72.9907 64.228H75.3287L76.3647 66.496L77.1207 68.414H77.2327L77.9887 66.496L79.0247 64.228H81.2787L78.1847 70.542V74H76.0847ZM89.0992 74H82.0712V72.082L85.1512 69.52C85.6832 69.0627 86.0659 68.666 86.2992 68.33C86.5326 67.994 86.6492 67.6393 86.6492 67.266V67.126C86.6492 66.7153 86.5279 66.4073 86.2852 66.202C86.0426 65.9873 85.7159 65.88 85.3052 65.88C84.8386 65.88 84.4792 66.0153 84.2272 66.286C83.9752 66.5567 83.7979 66.8787 83.6952 67.252L81.8612 66.552C81.9732 66.216 82.1272 65.8987 82.3232 65.6C82.5192 65.292 82.7666 65.026 83.0652 64.802C83.3732 64.578 83.7279 64.4007 84.1292 64.27C84.5306 64.13 84.9926 64.06 85.5152 64.06C86.0472 64.06 86.5232 64.1347 86.9432 64.284C87.3632 64.4333 87.7179 64.6387 88.0072 64.9C88.2966 65.1613 88.5159 65.474 88.6652 65.838C88.8146 66.1927 88.8892 66.58 88.8892 67C88.8892 67.4107 88.8192 67.7887 88.6792 68.134C88.5486 68.47 88.3619 68.7873 88.1192 69.086C87.8859 69.3847 87.6059 69.674 87.2792 69.954C86.9619 70.234 86.6212 70.514 86.2572 70.794L84.3952 72.236H89.0992V74Z" fill="white"/>
</g>
<path d="M70.6145 144.198C31.6833 144.198 0.00012207 112.498 0.00012207 73.4866C0.00012207 34.4752 31.6833 2.80176 70.6145 2.80176C109.546 2.80176 141.229 34.5286 141.229 73.5133C141.229 112.498 109.546 144.225 70.6145 144.225V144.198ZM70.6145 6.13721C33.522 6.13721 3.33099 36.3431 3.33099 73.4866C3.33099 110.63 33.4953 140.836 70.5878 140.836C107.68 140.836 137.845 110.63 137.845 73.4866C137.845 36.3431 107.707 6.13721 70.6145 6.13721Z" fill="#451E37"/>
<path d="M70.6145 147C53.8536 147 37.4657 141.21 24.462 130.67L30.0579 123.732C41.4894 132.991 55.8788 138.088 70.5879 138.088C106.135 138.088 135.073 109.109 135.073 73.5133C135.073 37.9174 106.162 8.91232 70.6145 8.91232V0C111.091 0 144 32.9809 144 73.4867C144 113.992 111.065 146.973 70.6145 146.973V147Z" fill="#451E37"/>
<defs>
<linearGradient id="paint0_linear_3596_19990" x1="73.446" y1="42.4062" x2="73.446" y2="105.572" gradientUnits="userSpaceOnUse">
<stop stop-color="#E3F6FF"/>
<stop offset="1" stop-color="#55B2DD"/>
</linearGradient>
<linearGradient id="paint1_linear_3596_19990" x1="73.4056" y1="41.5293" x2="73.4056" y2="106.471" gradientUnits="userSpaceOnUse">
<stop stop-color="#E3F6FF"/>
<stop offset="1" stop-color="#55B2DD"/>
</linearGradient>
<linearGradient id="paint2_linear_3596_19990" x1="73.4572" y1="39.7529" x2="73.4572" y2="108.224" gradientUnits="userSpaceOnUse">
<stop stop-color="#E3F6FF"/>
<stop offset="1" stop-color="#55B2DD"/>
</linearGradient>
<linearGradient id="paint3_linear_3596_19990" x1="73.4347" y1="38" x2="73.4347" y2="110" gradientUnits="userSpaceOnUse">
<stop stop-color="#E3F6FF"/>
<stop offset="1" stop-color="#55B2DD"/>
</linearGradient>
<linearGradient id="paint4_linear_3596_19990" x1="73.4188" y1="42.7656" x2="73.4188" y2="105.235" gradientUnits="userSpaceOnUse">
<stop stop-color="#E3F6FF"/>
<stop offset="1" stop-color="#55B2DD"/>
</linearGradient>
<linearGradient id="paint5_linear_3596_19990" x1="73.446" y1="43.2822" x2="73.446" y2="104.695" gradientUnits="userSpaceOnUse">
<stop stop-color="#E3F6FF"/>
<stop offset="1" stop-color="#55B2DD"/>
</linearGradient>
<linearGradient id="paint6_linear_3596_19990" x1="73.4219" y1="44.0918" x2="73.4219" y2="103.908" gradientUnits="userSpaceOnUse">
<stop stop-color="#E3F6FF"/>
<stop offset="1" stop-color="#55B2DD"/>
</linearGradient>
<linearGradient id="paint7_linear_3596_19990" x1="73.4234" y1="95.0967" x2="73.4234" y2="102.312" gradientUnits="userSpaceOnUse">
<stop stop-color="#E3F6FF"/>
<stop offset="1" stop-color="#55B2DD"/>
</linearGradient>
<linearGradient id="paint8_linear_3596_19990" x1="73.446" y1="43.2822" x2="73.446" y2="104.695" gradientUnits="userSpaceOnUse">
<stop stop-color="#E3F6FF"/>
<stop offset="1" stop-color="#55B2DD"/>
</linearGradient>
<clipPath id="clip0_3596_19990">
<rect width="108" height="72" fill="white" transform="translate(19.4347 38)"/>
</clipPath>
</defs>
</svg>
