<svg width="146" height="148" viewBox="0 0 146 148" fill="none" xmlns="http://www.w3.org/2000/svg">
<g clip-path="url(#clip0_3596_19948)">
<g opacity="0.05">
<path d="M66.7949 42.1531C65.6413 42.1531 64.712 41.2245 64.712 40.0717C64.712 38.9189 65.6413 37.9902 66.7949 37.9902H78.0745C79.2281 37.9902 80.1573 38.9189 80.1573 40.0717C80.1573 41.2245 79.2281 42.1531 78.0745 42.1531H66.7949Z" fill="#77C9F4"/>
<path d="M55.6756 116.99C50.5805 116.99 46.4468 112.859 46.4468 107.767V40.2322C46.4468 35.1406 50.5805 31.0098 55.6756 31.0098H89.1618C94.2568 31.0098 98.3905 35.1406 98.3905 40.2322V107.735C98.3905 112.827 94.2568 116.958 89.1618 116.958H55.6756V116.99ZM56.4446 36.1974C54.0093 36.1974 52.0225 38.1828 52.0225 40.6164V107.383C52.0225 109.817 54.0093 111.802 56.4446 111.802H88.3927C90.8281 111.802 92.8148 109.817 92.8148 107.383V40.6164C92.8148 38.1828 90.8281 36.1974 88.3927 36.1974H56.4446Z" fill="#77C9F4"/>
</g>
<g opacity="0.05">
<path d="M66.7949 42.9226C65.2248 42.9226 63.943 41.6417 63.943 40.0726C63.943 38.5035 65.2248 37.2227 66.7949 37.2227H78.0745C79.6447 37.2227 80.9264 38.5035 80.9264 40.0726C80.9264 41.6417 79.6447 42.9226 78.0745 42.9226H66.7949Z" fill="#77C9F4"/>
<path d="M55.6756 117.726C50.164 117.726 45.6778 113.243 45.6778 107.735V40.2324C45.7098 34.7245 50.164 30.2734 55.6756 30.2734H89.1618C94.6734 30.2734 99.1596 34.7566 99.1596 40.2644V107.767C99.1596 113.275 94.6734 117.758 89.1618 117.758H55.6756V117.726ZM56.4446 36.9341C54.4259 36.9341 52.7916 38.5672 52.7916 40.5846V107.351C52.7916 109.368 54.4259 111.002 56.4446 111.002H88.3927C90.4115 111.002 92.0457 109.368 92.0457 107.351V40.6166C92.0457 38.5992 90.4115 36.9661 88.3927 36.9661H56.4446V36.9341Z" fill="#77C9F4"/>
</g>
<g opacity="0.05">
<path d="M66.7949 43.6589C64.8082 43.6589 63.1739 42.0578 63.1739 40.0404C63.1739 38.023 64.7761 36.4219 66.7949 36.4219H78.0745C80.0612 36.4219 81.6955 38.023 81.6955 40.0404C81.6955 42.0578 80.0933 43.6589 78.0745 43.6589H66.7949Z" fill="#77C9F4"/>
<path d="M55.6756 118.495C49.7474 118.495 44.9408 113.691 44.9408 107.767V40.2323C44.9408 34.3082 49.7474 29.5049 55.6756 29.5049H89.1618C95.0899 29.5049 99.8966 34.3082 99.8966 40.2323V107.735C99.8966 113.659 95.0899 118.463 89.1618 118.463H55.6756V118.495ZM56.4446 37.7026C54.8424 37.7026 53.5286 39.0155 53.5286 40.6166V107.383C53.5286 108.984 54.8424 110.297 56.4446 110.297H88.3927C89.9949 110.297 91.3087 108.984 91.3087 107.383V40.6166C91.3087 39.0155 89.9949 37.7026 88.3927 37.7026H56.4446Z" fill="#77C9F4"/>
</g>
<g opacity="0.05">
<path d="M66.7949 45.1641C63.975 45.1641 61.6678 42.8585 61.6678 40.0406C61.6678 37.2226 63.975 34.917 66.7949 34.917H78.0745C80.8944 34.917 83.2015 37.2226 83.2015 40.0406C83.2015 42.8585 80.8944 45.1641 78.0745 45.1641H66.7949Z" fill="#77C9F4"/>
<path d="M55.6756 120C48.9143 120 43.4347 114.492 43.4347 107.767V40.2325C43.4347 33.5078 48.9463 28 55.6756 28H89.1618C95.9231 28 101.403 33.5078 101.403 40.2325V107.735C101.403 114.492 95.891 119.968 89.1618 119.968H55.6756V120ZM56.4446 39.2078C55.6756 39.2078 55.0347 39.8482 55.0347 40.6168V107.383C55.0347 108.152 55.6756 108.792 56.4446 108.792H88.3927C89.1618 108.792 89.8026 108.152 89.8026 107.383V40.6168C89.8026 39.8482 89.1618 39.2078 88.3927 39.2078H56.4446Z" fill="#77C9F4"/>
</g>
<g style="mix-blend-mode:multiply" opacity="0.44">
<path d="M66.7949 41.0969C66.2181 41.0969 65.7375 40.6165 65.7375 40.0401C65.7375 39.4637 66.2181 38.9834 66.7949 38.9834H78.0745C78.6513 38.9834 79.1319 39.4637 79.1319 40.0401C79.1319 40.6165 78.6513 41.0969 78.0745 41.0969H66.7949Z" fill="#202020"/>
<path d="M55.6756 115.933C51.1573 115.933 47.5043 112.25 47.5043 107.767V40.2321C47.5043 35.7169 51.1894 32.0664 55.6756 32.0664H89.1618C93.68 32.0664 97.333 35.749 97.333 40.2321V107.735C97.333 112.25 93.6479 115.901 89.1618 115.901H55.6756V115.933ZM56.4446 35.1405C53.4325 35.1405 50.9651 37.6063 50.9651 40.6164V107.383C50.9651 110.393 53.4325 112.859 56.4446 112.859H88.3927C91.4049 112.859 93.8723 110.393 93.8723 107.383V40.6164C93.8723 37.6063 91.4049 35.1405 88.3927 35.1405H56.4446Z" fill="#202020"/>
</g>
<path d="M66.7949 40.6489H78.0745C78.3949 40.6489 78.6513 40.3927 78.6513 40.0725C78.6513 39.7523 78.3949 39.4961 78.0745 39.4961H66.7949C66.4745 39.4961 66.2181 39.7523 66.2181 40.0725C66.2181 40.3927 66.4745 40.6489 66.7949 40.6489Z" fill="#77C9F4"/>
<path d="M89.1618 115.485C93.4236 115.485 96.8844 112.027 96.8844 107.768V40.233C96.8844 35.974 93.4236 32.5156 89.1618 32.5156H55.6756C51.4137 32.5156 47.9529 35.974 47.9529 40.233V107.736C47.9529 111.995 51.4137 115.453 55.6756 115.453H89.1618V115.485ZM50.5164 107.384V40.6173C50.5164 37.351 53.1761 34.6931 56.4446 34.6931H88.3927C91.6612 34.6931 94.3209 37.351 94.3209 40.6173V107.384C94.3209 110.65 91.6612 113.308 88.3927 113.308H56.4446C53.1761 113.308 50.5164 110.65 50.5164 107.384Z" fill="#77C9F4"/>
<g style="mix-blend-mode:screen" opacity="0.5">
<path d="M66.7949 40.6489H78.0745C78.3949 40.6489 78.6513 40.3927 78.6513 40.0725C78.6513 39.7523 78.3949 39.4961 78.0745 39.4961H66.7949C66.4745 39.4961 66.2181 39.7523 66.2181 40.0725C66.2181 40.3927 66.4745 40.6489 66.7949 40.6489Z" fill="#77C9F4"/>
<path d="M55.6756 114.812C51.7982 114.812 48.6259 111.642 48.6259 107.767V40.2324C48.6259 36.3577 51.7982 33.1875 55.6756 33.1875H89.1618C93.0391 33.1875 96.2115 36.3577 96.2115 40.2324V107.735C96.2115 111.61 93.0391 114.78 89.1618 114.78H55.6756V114.812ZM56.4446 34.0201C52.7916 34.0201 49.8435 36.9661 49.8435 40.6167V107.383C49.8435 111.034 52.7916 113.98 56.4446 113.98H88.3927C92.0457 113.98 94.9938 111.034 94.9938 107.383V40.6167C94.9938 36.9661 92.0457 34.0201 88.3927 34.0201H56.4446Z" fill="#77C9F4"/>
</g>
<g style="mix-blend-mode:screen" opacity="0.5">
<path d="M66.7949 40.6489H78.0745C78.3949 40.6489 78.6513 40.3927 78.6513 40.0725C78.6513 39.7523 78.3949 39.4961 78.0745 39.4961H66.7949C66.4745 39.4961 66.2181 39.7523 66.2181 40.0725C66.2181 40.3927 66.4745 40.6489 66.7949 40.6489Z" fill="#77C9F4"/>
<path d="M91.501 113.82C93.9043 112.667 95.5385 110.201 95.5385 107.383V40.6169C95.5385 37.799 93.8722 35.3333 91.501 34.1805C93.9363 35.1091 95.6667 37.4788 95.6667 40.2647V107.768C95.6667 110.522 93.9363 112.891 91.501 113.852V113.82ZM53.3363 113.82C50.901 112.891 49.1706 110.522 49.1706 107.736V40.2327C49.1706 37.4788 50.901 35.1091 53.3363 34.1484C50.933 35.3012 49.2988 37.767 49.2988 40.5849V107.351C49.2988 110.169 50.9651 112.635 53.3363 113.788V113.82Z" fill="#77C9F4"/>
</g>
<g style="mix-blend-mode:screen" opacity="0.5">
<path d="M66.7949 40.6489H78.0745C78.3949 40.6489 78.6513 40.3927 78.6513 40.0725C78.6513 39.7523 78.3949 39.4961 78.0745 39.4961H66.7949C66.4745 39.4961 66.2181 39.7523 66.2181 40.0725C66.2181 40.3927 66.4745 40.6489 66.7949 40.6489Z" fill="#77C9F4"/>
<path d="M89.1618 115.485C93.4236 115.485 96.8844 112.027 96.8844 107.768V40.233C96.8844 35.974 93.4236 32.5156 89.1618 32.5156H55.6756C51.4137 32.5156 47.9529 35.974 47.9529 40.233V107.736C47.9529 111.995 51.4137 115.453 55.6756 115.453H89.1618V115.485ZM50.5164 107.384V40.6173C50.5164 37.351 53.1761 34.6931 56.4446 34.6931H88.3927C91.6612 34.6931 94.3209 37.351 94.3209 40.6173V107.384C94.3209 110.65 91.6612 113.308 88.3927 113.308H56.4446C53.1761 113.308 50.5164 110.65 50.5164 107.384Z" fill="#77C9F4"/>
</g>
<g style="mix-blend-mode:soft-light">
<path d="M66.7949 40.6489H78.0745C78.3949 40.6489 78.6513 40.3927 78.6513 40.0725C78.6513 39.7523 78.3949 39.4961 78.0745 39.4961H66.7949C66.4745 39.4961 66.2181 39.7523 66.2181 40.0725C66.2181 40.3927 66.4745 40.6489 66.7949 40.6489Z" fill="url(#paint0_linear_3596_19948)"/>
<path d="M89.1618 115.485C93.4236 115.485 96.8844 112.027 96.8844 107.768V40.233C96.8844 35.974 93.4236 32.5156 89.1618 32.5156H55.6756C51.4137 32.5156 47.9529 35.974 47.9529 40.233V107.736C47.9529 111.995 51.4137 115.453 55.6756 115.453H89.1618V115.485ZM50.5164 107.384V40.6173C50.5164 37.351 53.1761 34.6931 56.4446 34.6931H88.3927C91.6612 34.6931 94.3209 37.351 94.3209 40.6173V107.384C94.3209 110.65 91.6612 113.308 88.3927 113.308H56.4446C53.1761 113.308 50.5164 110.65 50.5164 107.384Z" fill="url(#paint1_linear_3596_19948)"/>
</g>
<g style="mix-blend-mode:soft-light">
<path d="M66.7949 40.6489H78.0745C78.3949 40.6489 78.6513 40.3927 78.6513 40.0725C78.6513 39.7523 78.3949 39.4961 78.0745 39.4961H66.7949C66.4745 39.4961 66.2181 39.7523 66.2181 40.0725C66.2181 40.3927 66.4745 40.6489 66.7949 40.6489Z" fill="url(#paint2_linear_3596_19948)"/>
<path d="M89.1618 115.485C93.4236 115.485 96.8844 112.027 96.8844 107.768V40.233C96.8844 35.974 93.4236 32.5156 89.1618 32.5156H55.6756C51.4137 32.5156 47.9529 35.974 47.9529 40.233V107.736C47.9529 111.995 51.4137 115.453 55.6756 115.453H89.1618V115.485ZM50.5164 107.384V40.6173C50.5164 37.351 53.1761 34.6931 56.4446 34.6931H88.3927C91.6612 34.6931 94.3209 37.351 94.3209 40.6173V107.384C94.3209 110.65 91.6612 113.308 88.3927 113.308H56.4446C53.1761 113.308 50.5164 110.65 50.5164 107.384Z" fill="url(#paint3_linear_3596_19948)"/>
</g>
<path d="M60.0656 69.926L59.1976 71.144V74H57.0976V64.228H59.1976V68.316H59.3096L60.3736 66.692L62.0956 64.228H64.4476L61.5216 68.358L64.5876 74H62.2216L60.0656 69.926ZM65.6602 74V64.228H71.9042V65.95H67.7602V68.19H71.7642V69.912H67.7602V72.278H71.9042V74H65.6602ZM76.0847 74V70.542L72.9907 64.228H75.3287L76.3647 66.496L77.1207 68.414H77.2327L77.9887 66.496L79.0247 64.228H81.2787L78.1847 70.542V74H76.0847ZM82.6452 74V72.306H85.2772V65.754H85.1512L83.1632 68.358L81.8192 67.308L84.1572 64.228H87.3772V72.306H89.4492V74H82.6452ZM60.0656 83.926L59.1976 85.144V88H57.0976V78.228H59.1976V82.316H59.3096L60.3736 80.692L62.0956 78.228H64.4476L61.5216 82.358L64.5876 88H62.2216L60.0656 83.926ZM65.6602 88V78.228H71.9042V79.95H67.7602V82.19H71.7642V83.912H67.7602V86.278H71.9042V88H65.6602ZM76.0847 88V84.542L72.9907 78.228H75.3287L76.3647 80.496L77.1207 82.414H77.2327L77.9887 80.496L79.0247 78.228H81.2787L78.1847 84.542V88H76.0847ZM89.0992 88H82.0712V86.082L85.1512 83.52C85.6832 83.0627 86.0659 82.666 86.2992 82.33C86.5326 81.994 86.6492 81.6393 86.6492 81.266V81.126C86.6492 80.7153 86.5279 80.4073 86.2852 80.202C86.0426 79.9873 85.7159 79.88 85.3052 79.88C84.8386 79.88 84.4792 80.0153 84.2272 80.286C83.9752 80.5567 83.7979 80.8787 83.6952 81.252L81.8612 80.552C81.9732 80.216 82.1272 79.8987 82.3232 79.6C82.5192 79.292 82.7666 79.026 83.0652 78.802C83.3732 78.578 83.7279 78.4007 84.1292 78.27C84.5306 78.13 84.9926 78.06 85.5152 78.06C86.0472 78.06 86.5232 78.1347 86.9432 78.284C87.3632 78.4333 87.7179 78.6387 88.0072 78.9C88.2966 79.1613 88.5159 79.474 88.6652 79.838C88.8146 80.1927 88.8892 80.58 88.8892 81C88.8892 81.4107 88.8192 81.7887 88.6792 82.134C88.5486 82.47 88.3619 82.7873 88.1192 83.086C87.8859 83.3847 87.6059 83.674 87.2792 83.954C86.9619 84.234 86.6212 84.514 86.2572 84.794L84.3952 86.236H89.0992V88Z" fill="white"/>
</g>
<path d="M70.6145 144.198C31.6833 144.198 0.00012207 112.498 0.00012207 73.4866C0.00012207 34.4752 31.6833 2.80176 70.6145 2.80176C109.546 2.80176 141.229 34.5286 141.229 73.5133C141.229 112.498 109.546 144.225 70.6145 144.225V144.198ZM70.6145 6.13721C33.522 6.13721 3.33099 36.3431 3.33099 73.4866C3.33099 110.63 33.4953 140.836 70.5878 140.836C107.68 140.836 137.845 110.63 137.845 73.4866C137.845 36.3431 107.707 6.13721 70.6145 6.13721Z" fill="#451E37"/>
<path d="M70.6145 147C53.8536 147 37.4657 141.21 24.462 130.67L30.0579 123.732C41.4894 132.991 55.8788 138.088 70.5879 138.088C106.135 138.088 135.073 109.109 135.073 73.5133C135.073 37.9174 106.162 8.91232 70.6145 8.91232V0C111.091 0 144 32.9809 144 73.4867C144 113.992 111.065 146.973 70.6145 146.973V147Z" fill="#451E37"/>
<defs>
<linearGradient id="paint0_linear_3596_19948" x1="47.9529" y1="40.0725" x2="96.8844" y2="40.0725" gradientUnits="userSpaceOnUse">
<stop stop-color="white"/>
<stop offset="1"/>
</linearGradient>
<linearGradient id="paint1_linear_3596_19948" x1="47.9529" y1="73.9845" x2="96.8844" y2="73.9845" gradientUnits="userSpaceOnUse">
<stop stop-color="white"/>
<stop offset="1"/>
</linearGradient>
<linearGradient id="paint2_linear_3596_19948" x1="72.4347" y1="32.5152" x2="72.4347" y2="115.485" gradientUnits="userSpaceOnUse">
<stop stop-color="white"/>
<stop offset="1"/>
</linearGradient>
<linearGradient id="paint3_linear_3596_19948" x1="72.4347" y1="32.5156" x2="72.4347" y2="115.485" gradientUnits="userSpaceOnUse">
<stop stop-color="white"/>
<stop offset="1"/>
</linearGradient>
<clipPath id="clip0_3596_19948">
<rect width="58" height="92" fill="white" transform="translate(43.4347 28)"/>
</clipPath>
</defs>
</svg>
