<svg width="23" height="19" viewBox="0 0 23 19" fill="none" xmlns="http://www.w3.org/2000/svg">
<path d="M18.7116 4.74974C18.9193 4.74974 19.1668 4.73737 19.4543 4.71264C19.7418 4.6879 20.0453 4.67553 20.3647 4.67553C20.6841 4.67553 20.9996 4.6879 21.311 4.71264C21.6225 4.73737 21.906 4.81159 22.1615 4.93528C22.417 5.05897 22.6167 5.23214 22.7604 5.45478C22.9042 5.67743 22.984 5.97016 23 6.33299V17.4157C23 17.6384 22.9601 17.8445 22.8802 18.0342C22.8004 18.2238 22.6925 18.3888 22.5568 18.5289C22.421 18.6691 22.2573 18.7846 22.0657 18.8753C21.874 18.966 21.6744 19.0072 21.4667 18.999H1.53426C1.31865 18.999 1.11901 18.9577 0.935333 18.8753C0.75166 18.7928 0.591945 18.6815 0.456187 18.5413C0.320429 18.4011 0.208628 18.2321 0.120785 18.0342C0.0329413 17.8363 -0.00698754 17.6301 0.000998221 17.4157V6.33299C0.000998221 6.11035 0.040927 5.90419 0.120785 5.71453C0.200642 5.52487 0.30845 5.35995 0.444208 5.21977C0.579966 5.07959 0.743674 4.96414 0.935333 4.87343C1.12699 4.78273 1.32664 4.7415 1.53426 4.74974H11.9557L15.8487 0.729778C16.0723 0.498888 16.3279 0.321597 16.6154 0.197906C16.9029 0.0742147 17.2103 0.00824608 17.5377 0C17.8652 0 18.1726 0.0659686 18.4601 0.197906C18.7476 0.329843 18.9991 0.507134 19.2147 0.729778C19.4304 0.952422 19.6021 1.21217 19.7298 1.50903C19.8576 1.80589 19.9215 2.12749 19.9215 2.47382C19.9215 2.74594 19.8935 2.98096 19.8376 3.17886C19.7817 3.37677 19.6979 3.56643 19.5861 3.74784C19.4743 3.92926 19.3465 4.09418 19.2028 4.24261C19.059 4.39104 18.8953 4.56008 18.7116 4.74974ZM17.5377 1.58325C17.3062 1.58325 17.1065 1.66983 16.9388 1.843L7.11631 11.9857L6.70904 13.6555L8.32616 13.235L16.4836 4.82396C16.4676 4.80746 16.4676 4.78685 16.4836 4.76211C16.4996 4.73737 16.5196 4.73325 16.5435 4.74974C16.6393 4.65079 16.7911 4.51061 16.9987 4.32919C17.2063 4.14778 17.414 3.954 17.6216 3.74784C17.8292 3.54169 18.0089 3.32317 18.1606 3.09228C18.3124 2.86139 18.3922 2.65524 18.4002 2.47382C18.4002 2.22644 18.3163 2.01617 18.1486 1.843C17.9809 1.66983 17.7773 1.58325 17.5377 1.58325ZM21.4667 6.33299H17.1784L9.11675 14.6698L4.6008 15.8325L5.72679 11.1693L10.4224 6.33299H1.53426V17.4157H21.4667V6.33299Z" fill="#CFD1DC"/>
</svg>
