<svg width="308" height="90" viewBox="0 0 308 90" fill="none" xmlns="http://www.w3.org/2000/svg">
<g filter="url(#filter0_d_8498_364)">
<rect x="24.6757" y="14.6753" width="56.6487" height="56.6487" rx="2" fill="#061A3D"/>
<rect x="25.1757" y="15.1753" width="55.6487" height="55.6487" rx="1.5" stroke="url(#paint0_linear_8498_364)" stroke-opacity="0.3"/>
</g>
<g clip-path="url(#clip0_8498_364)">
<path d="M44.5806 33.0728H39.6171C39.1621 33.0728 38.7899 33.445 38.7899 33.9V52.0995C38.7899 52.5545 39.1621 52.9268 39.6171 52.9268H44.5806C45.0356 52.9268 45.4079 52.5545 45.4079 52.0995V33.9C45.4079 33.445 45.0356 33.0728 44.5806 33.0728ZM43.7534 38.0363H40.4444V36.3818H43.7534V38.0363ZM52.8531 33.0728H47.8896C47.4347 33.0728 47.0624 33.445 47.0624 33.9V52.0995C47.0624 52.5545 47.4347 52.9268 47.8896 52.9268H52.8531C53.3081 52.9268 53.6804 52.5545 53.6804 52.0995V33.9C53.6804 33.445 53.3081 33.0728 52.8531 33.0728ZM52.0259 38.0363H48.7169V36.3818H52.0259V38.0363Z" fill="white"/>
<path d="M54.3614 37.0316C54.3616 37.0315 54.3618 37.0314 54.3621 37.0313L58.7905 34.7997C58.7908 34.7996 58.7911 34.7994 58.7914 34.7992C58.8693 34.7609 58.9591 34.7546 59.0415 34.7819C59.124 34.8092 59.1925 34.8679 59.232 34.9453C59.2321 34.9455 59.2322 34.9457 59.2323 34.9459L66.6756 49.7166C66.6757 49.7169 66.6759 49.7172 66.676 49.7175C66.7145 49.7953 66.7207 49.8852 66.6934 49.9676L67.1681 50.1247L66.6934 49.9676C66.6661 50.0502 66.6074 50.1186 66.53 50.1582C66.5298 50.1583 66.5296 50.1584 66.5294 50.1585L62.101 52.39C62.1007 52.3902 62.1004 52.3903 62.1001 52.3905C62.0222 52.4289 61.9324 52.4351 61.85 52.4079C61.7674 52.3806 61.699 52.3218 61.6594 52.2444C61.6593 52.2442 61.6592 52.244 61.6591 52.2439L54.2159 37.4731C54.2157 37.4728 54.2156 37.4725 54.2154 37.4722C54.177 37.3944 54.1708 37.3045 54.198 37.2221C54.2253 37.1396 54.284 37.0712 54.3614 37.0316Z" fill="white" stroke="white"/>
</g>
<path d="M292.11 35.5005L300.009 27.6021V34.5035C300.009 35.055 300.461 35.5076 301.013 35.5076C301.564 35.5076 302.01 35.0621 302.01 34.5105V25.1909C302.01 24.6393 301.564 24.1938 301.013 24.1938L291.693 24.1938C291.141 24.1938 290.696 24.6393 290.696 25.1909C290.696 25.7424 291.141 26.1879 291.693 26.1879L298.594 26.1879L290.696 34.0863C290.307 34.4752 290.307 35.1116 290.696 35.5005C291.085 35.8894 291.721 35.8894 292.11 35.5005Z" fill="#8B8B8B" fill-opacity="0.6"/>
<defs>
<filter id="filter0_d_8498_364" x="0.675659" y="0.675293" width="88.6487" height="88.6484" filterUnits="userSpaceOnUse" color-interpolation-filters="sRGB">
<feFlood flood-opacity="0" result="BackgroundImageFix"/>
<feColorMatrix in="SourceAlpha" type="matrix" values="0 0 0 0 0 0 0 0 0 0 0 0 0 0 0 0 0 0 127 0" result="hardAlpha"/>
<feOffset dx="-8" dy="2"/>
<feGaussianBlur stdDeviation="8"/>
<feColorMatrix type="matrix" values="0 0 0 0 0 0 0 0 0 0 0 0 0 0 0 0 0 0 0.24 0"/>
<feBlend mode="normal" in2="BackgroundImageFix" result="effect1_dropShadow_8498_364"/>
<feBlend mode="normal" in="SourceGraphic" in2="effect1_dropShadow_8498_364" result="shape"/>
</filter>
<linearGradient id="paint0_linear_8498_364" x1="-3.64868" y1="42.9996" x2="53" y2="99.6483" gradientUnits="userSpaceOnUse">
<stop stop-color="#FFEE92"/>
<stop offset="0.732292" stop-color="#E66000" stop-opacity="0"/>
</linearGradient>
<clipPath id="clip0_8498_364">
<rect width="29.781" height="29.781" fill="white" transform="translate(38.1095 28.1094)"/>
</clipPath>
</defs>
</svg>
