<svg width="308" height="90" viewBox="0 0 308 90" fill="none" xmlns="http://www.w3.org/2000/svg">
<g filter="url(#filter0_d_8498_383)">
<rect x="24.6757" y="14.6753" width="56.6487" height="56.6487" rx="2" fill="#061A3D"/>
<rect x="25.1757" y="15.1753" width="55.6487" height="55.6487" rx="1.5" stroke="url(#paint0_linear_8498_383)" stroke-opacity="0.3"/>
</g>
<path d="M62.927 35.5548H61.6861V45.4818C61.6861 46.1643 61.1277 46.7227 60.4453 46.7227H45.5548V47.9636C45.5548 49.3285 46.6715 50.4453 48.0365 50.4453H60.4453L65.4088 55.4088V38.0366C65.4088 36.6716 64.292 35.5548 62.927 35.5548ZM59.2044 41.7592V33.0731C59.2044 31.7081 58.0876 30.5913 56.7226 30.5913H43.073C41.708 30.5913 40.5912 31.7081 40.5912 33.0731V49.2044L45.5548 44.2409H56.7226C58.0876 44.2409 59.2044 43.1242 59.2044 41.7592Z" fill="white"/>
<path d="M292.11 35.5005L300.009 27.6021V34.5035C300.009 35.055 300.461 35.5076 301.013 35.5076C301.564 35.5076 302.01 35.0621 302.01 34.5105V25.1909C302.01 24.6393 301.564 24.1938 301.013 24.1938L291.693 24.1938C291.141 24.1938 290.696 24.6393 290.696 25.1909C290.696 25.7424 291.141 26.1879 291.693 26.1879L298.594 26.1879L290.696 34.0863C290.307 34.4752 290.307 35.1116 290.696 35.5005C291.085 35.8894 291.721 35.8894 292.11 35.5005Z" fill="#8B8B8B" fill-opacity="0.6"/>
<defs>
<filter id="filter0_d_8498_383" x="0.675659" y="0.675293" width="88.6487" height="88.6484" filterUnits="userSpaceOnUse" color-interpolation-filters="sRGB">
<feFlood flood-opacity="0" result="BackgroundImageFix"/>
<feColorMatrix in="SourceAlpha" type="matrix" values="0 0 0 0 0 0 0 0 0 0 0 0 0 0 0 0 0 0 127 0" result="hardAlpha"/>
<feOffset dx="-8" dy="2"/>
<feGaussianBlur stdDeviation="8"/>
<feColorMatrix type="matrix" values="0 0 0 0 0 0 0 0 0 0 0 0 0 0 0 0 0 0 0.24 0"/>
<feBlend mode="normal" in2="BackgroundImageFix" result="effect1_dropShadow_8498_383"/>
<feBlend mode="normal" in="SourceGraphic" in2="effect1_dropShadow_8498_383" result="shape"/>
</filter>
<linearGradient id="paint0_linear_8498_383" x1="-3.64868" y1="42.9996" x2="53" y2="99.6483" gradientUnits="userSpaceOnUse">
<stop stop-color="#FFEE92"/>
<stop offset="0.732292" stop-color="#E66000" stop-opacity="0"/>
</linearGradient>
</defs>
</svg>
