<svg width="61" height="60" viewBox="0 0 61 60" fill="none" xmlns="http://www.w3.org/2000/svg">
<g id="telegram-fill 1" clip-path="url(#clip0_1532_19656)">
<path id="Vector" d="M30.499 55C16.6915 55 5.49902 43.8075 5.49902 30C5.49902 16.1925 16.6915 5 30.499 5C44.3065 5 55.499 16.1925 55.499 30C55.499 43.8075 44.3065 55 30.499 55ZM22.724 32.925L22.7565 32.9075L24.9315 40.0825C25.2115 40.86 25.5965 41 26.064 40.935C26.534 40.8725 26.7815 40.62 27.089 40.325L30.059 37.455L36.434 42.175C37.599 42.8175 38.4365 42.485 38.7265 41.095L42.869 21.54C43.3265 19.72 42.5265 18.99 41.114 19.57L16.7815 28.97C15.1215 29.635 15.1315 30.565 16.4815 30.9775L22.724 32.9275V32.925Z" fill="white"/>
</g>
<defs>
<clipPath id="clip0_1532_19656">
<rect width="60" height="60" fill="white" transform="translate(0.5)"/>
</clipPath>
</defs>
</svg>
