<svg width="41" height="40" viewBox="0 0 41 40" fill="none" xmlns="http://www.w3.org/2000/svg">
<g id="telegram-fill 1" clip-path="url(#clip0_8799_1343)">
<path id="Vector" d="M20.2499 37C10.8608 37 3.24988 29.3891 3.24988 20C3.24988 10.6109 10.8608 3 20.2499 3C29.639 3 37.2499 10.6109 37.2499 20C37.2499 29.3891 29.639 37 20.2499 37ZM14.9629 21.989L14.985 21.9771L16.464 26.8561C16.6544 27.3848 16.9162 27.48 17.2341 27.4358C17.5537 27.3933 17.722 27.2216 17.9311 27.021L19.9507 25.0694L24.2857 28.279C25.0779 28.7159 25.6474 28.4898 25.8446 27.5446L28.6615 14.2472C28.9726 13.0096 28.4286 12.5132 27.4681 12.9076L10.922 19.2996C9.79318 19.7518 9.79998 20.3842 10.718 20.6647L14.9629 21.9907V21.989Z" fill="#90939E"/>
</g>
<defs>
<clipPath id="clip0_8799_1343">
<rect width="40" height="40" fill="white" transform="translate(0.25)"/>
</clipPath>
</defs>
</svg>
