<svg width="41" height="40" viewBox="0 0 41 40" fill="none" xmlns="http://www.w3.org/2000/svg">
<g id="twitter">
<path id="twitter_2" d="M14.108 33.6124C10.2954 33.6124 6.7413 32.4987 3.74988 30.577C6.28969 30.7421 10.7719 30.3468 13.5598 27.676C9.36586 27.4827 7.47447 24.2521 7.22777 22.8716C7.58412 23.0096 9.28363 23.1753 10.243 22.7887C5.41862 21.5738 4.67851 17.3216 4.84298 16.0239C5.74755 16.659 7.28259 16.8798 7.88564 16.8246C3.39017 13.5941 5.00744 8.73443 5.80238 7.68519C9.02849 12.1741 13.8634 14.6953 19.8449 14.8355C19.7321 14.3388 19.6726 13.8216 19.6726 13.2903C19.6726 9.47798 22.7407 6.38745 26.5254 6.38745C28.5029 6.38745 30.2847 7.23113 31.5355 8.58065C32.8569 8.26965 34.8457 7.54163 35.8179 6.91207C35.3278 8.67921 33.8022 10.1534 32.8793 10.6997C32.8718 10.6811 32.887 10.7183 32.8793 10.6997C33.69 10.5766 35.8834 10.1532 36.7499 9.56278C36.3214 10.5555 34.7039 12.2062 33.3765 13.1303C33.6234 24.0696 25.29 33.6124 14.108 33.6124Z" fill="#90939E"/>
</g>
</svg>
