<svg width="65" height="64" viewBox="0 0 65 64" fill="none" xmlns="http://www.w3.org/2000/svg">
<g id="twitter">
<path id="twitter_2" d="M24.2505 53.7595C18.3351 53.7595 12.8209 52.0315 8.17969 49.05C12.1202 49.3061 19.0744 48.6928 23.3999 44.549C16.893 44.2491 13.9585 39.2369 13.5757 37.0949C14.1286 37.3091 16.7654 37.5661 18.2539 36.9663C10.7688 35.0814 9.62047 28.4841 9.87565 26.4706C11.2791 27.4559 13.6607 27.7986 14.5964 27.713C7.62159 22.7007 10.1308 15.1609 11.3642 13.533C16.3695 20.4977 23.871 24.4093 33.1514 24.6269C32.9764 23.8561 32.884 23.0537 32.884 22.2295C32.884 16.3145 37.6442 11.5195 43.5163 11.5195C46.5843 11.5195 49.3489 12.8285 51.2895 14.9223C53.3397 14.4398 56.4253 13.3103 57.9337 12.3335C57.1734 15.0752 54.8063 17.3624 53.3745 18.2101C53.3628 18.1812 53.3864 18.239 53.3745 18.2101C54.6322 18.019 58.0353 17.3622 59.3797 16.4461C58.7149 17.9864 56.2053 20.5474 54.1458 21.9811C54.529 38.9536 41.5995 53.7595 24.2505 53.7595Z" fill="white"/>
</g>
</svg>
