<svg width="23" height="23" viewBox="0 0 23 23" fill="none" xmlns="http://www.w3.org/2000/svg">
<path d="M22.5903 12.0873L17.6094 9.78842V3.20154C17.6071 3.06335 17.5652 2.92873 17.4887 2.81373C17.4123 2.69873 17.3045 2.6082 17.1781 2.55294L11.7875 0.0666441C11.6929 0.0227404 11.5899 0 11.4856 0C11.3814 0 11.2784 0.0227404 11.1837 0.0666441L5.79312 2.55294C5.66836 2.61083 5.56278 2.70338 5.48889 2.81962C5.415 2.93586 5.37591 3.07091 5.37625 3.20874V9.79563L0.416877 12.0873C0.292116 12.1452 0.186531 12.2378 0.112643 12.354C0.0387542 12.4703 -0.000337974 12.6053 2.20134e-06 12.7431V19.7913C-0.000337974 19.9291 0.0387542 20.0641 0.112643 20.1804C0.186531 20.2966 0.292116 20.3892 0.416877 20.4471L5.8075 22.9334C5.90211 22.9773 6.00512 23 6.10937 23C6.21363 23 6.31663 22.9773 6.41125 22.9334L11.5 20.584L16.5887 22.9334C16.6834 22.9773 16.7864 23 16.8906 23C16.9949 23 17.0979 22.9773 17.1925 22.9334L22.5831 20.4471C22.7079 20.3892 22.8135 20.2966 22.8873 20.1804C22.9612 20.0641 23.0003 19.9291 23 19.7913V12.7431C23.001 12.6061 22.9629 12.4716 22.8904 12.3554C22.8178 12.2393 22.7137 12.1463 22.5903 12.0873ZM20.5706 12.7431L16.8978 14.4223L13.225 12.7431L16.8978 11.0496L20.5706 12.7431ZM11.5 1.50797L15.1728 3.20154L11.5 4.8951L7.83437 3.20154L11.5 1.50797ZM6.10937 11.0424L9.78218 12.7359L6.10937 14.4223L2.43656 12.7431L6.10937 11.0424ZM10.7812 19.3228L6.10937 21.4848L1.4375 19.3228V13.8674L5.8075 15.8636C5.90016 15.9054 6.00059 15.927 6.10218 15.927C6.20378 15.927 6.30421 15.9054 6.39687 15.8636L10.7669 13.8458L10.7812 19.3228ZM6.82812 9.78842V4.33298L11.1981 6.35085C11.2927 6.39475 11.3957 6.41749 11.5 6.41749C11.6042 6.41749 11.7073 6.39475 11.8019 6.35085L16.1719 4.33298V9.79563L11.5 11.9576L6.82812 9.78842ZM21.5697 19.33L16.8978 21.492L12.2187 19.33V13.8602L16.5959 15.8636C16.6876 15.9043 16.7868 15.9254 16.887 15.9254C16.9873 15.9254 17.0864 15.9043 17.1781 15.8636L21.5481 13.8458L21.5697 19.33Z" fill="#0C5338"/>
</svg>
