<svg width="41" height="40" viewBox="0 0 41 40" fill="none" xmlns="http://www.w3.org/2000/svg">
<g id="akar-icons:youtube-fill" clip-path="url(#clip0_8799_1332)">
<g id="Group">
<g id="Group_2">
<path id="Vector" d="M39.9167 10.845C39.6902 10.0371 39.249 9.30562 38.64 8.72838C38.0139 8.13338 37.2464 7.70777 36.41 7.49171C33.28 6.66671 20.7401 6.66671 20.7401 6.66671C15.5123 6.60723 10.2858 6.86884 5.09005 7.45005C4.2537 7.68207 3.48766 8.11719 2.86005 8.71671C2.24339 9.31005 1.79672 10.0417 1.56339 10.8434C1.00287 13.863 0.730539 16.929 0.750052 20C0.730052 23.0684 1.00172 26.1334 1.56339 29.1567C1.79172 29.955 2.23672 30.6834 2.85505 31.2717C3.47339 31.86 4.24339 32.285 5.09005 32.51C8.26172 33.3334 20.7401 33.3334 20.7401 33.3334C25.9745 33.3929 31.2076 33.1313 36.41 32.55C37.2464 32.334 38.0139 31.9084 38.64 31.3134C39.2488 30.7363 39.6895 30.0047 39.9151 29.1967C40.4902 26.1783 40.7699 23.111 40.75 20.0384C40.7933 16.9527 40.514 13.871 39.9167 10.8434V10.845ZM16.7534 25.7067V14.295L27.1867 20.0017L16.7534 25.7067Z" fill="#90939E"/>
</g>
</g>
</g>
<defs>
<clipPath id="clip0_8799_1332">
<rect width="40" height="40" fill="white" transform="translate(0.75)"/>
</clipPath>
</defs>
</svg>
