<svg width="110" height="91" viewBox="0 0 110 91" fill="none" xmlns="http://www.w3.org/2000/svg">
<g filter="url(#filter0_d_1350_17996)">
<path d="M30.0856 58.9526C29.0531 58.9526 28.0697 58.7068 27.1356 58.2151C26.2014 57.7235 25.4639 57.0351 24.9231 56.1501C23.6447 53.9376 22.6614 51.5904 21.9731 49.1085C21.2847 46.6246 20.9406 44.006 20.9406 41.2526C20.9406 37.1718 21.7154 33.3486 23.2652 29.783C24.8129 26.2194 26.9271 23.0973 29.6077 20.4168C32.2863 17.7382 35.4201 15.624 39.0093 14.0743C42.5985 12.5265 46.4089 11.7526 50.4406 11.7526C54.5214 11.7526 58.3436 12.5265 61.9072 14.0743C65.4728 15.624 68.5949 17.7382 71.2735 20.4168C73.954 23.0973 76.0682 26.2194 77.616 29.783C79.1657 33.3486 79.9406 37.1718 79.9406 41.2526C79.9406 44.006 79.6092 46.599 78.9464 49.0318C78.2817 51.4665 77.2856 53.8393 75.958 56.1501C75.4172 57.0351 74.6797 57.7235 73.7455 58.2151C72.8114 58.7068 71.828 58.9526 70.7955 58.9526H30.0856Z" fill="url(#paint0_linear_1350_17996)" fill-opacity="0.12"/>
</g>
<path d="M37.8681 64.6882C39.0481 65.8682 40.5722 66.4454 42.4406 66.4198C44.3089 66.3962 45.6856 65.7207 46.5706 64.3932L58.5739 46.3348C59.0164 45.6465 58.9544 45.0201 58.388 44.4556C57.8236 43.8892 57.1972 43.8273 56.5089 44.2698L38.3106 56.1332C36.9831 57.0182 36.2829 58.3703 36.2102 60.1894C36.1354 62.0086 36.6881 63.5082 37.8681 64.6882ZM22.0856 77.9632C21.0531 77.9632 20.0697 77.7174 19.1356 77.2257C18.2014 76.734 17.4639 76.0457 16.9231 75.1607C15.6447 72.9482 14.6614 70.601 13.9731 68.119C13.2847 65.6351 12.9406 63.0165 12.9406 60.2632C12.9406 56.1824 13.7154 52.3592 15.2652 48.7936C16.8129 45.23 18.9271 42.1079 21.6077 39.4273C24.2863 36.7487 27.4201 34.6346 31.0093 33.0848C34.5985 31.5371 38.4089 30.7632 42.4406 30.7632C46.5214 30.7632 50.3436 31.5371 53.9072 33.0848C57.4728 34.6346 60.5949 36.7487 63.2735 39.4273C65.954 42.1079 68.0682 45.23 69.616 48.7936C71.1657 52.3592 71.9406 56.1824 71.9406 60.2632C71.9406 63.0165 71.6092 65.6096 70.9464 68.0423C70.2817 70.4771 69.2855 72.8498 67.958 75.1607C67.4172 76.0457 66.6797 76.734 65.7456 77.2257C64.8114 77.7174 63.8281 77.9632 62.7956 77.9632H22.0856Z" fill="url(#paint1_linear_1350_17996)"/>
<defs>
<filter id="filter0_d_1350_17996" x="10.9406" y="1.75262" width="99" height="87.2" filterUnits="userSpaceOnUse" color-interpolation-filters="sRGB">
<feFlood flood-opacity="0" result="BackgroundImageFix"/>
<feColorMatrix in="SourceAlpha" type="matrix" values="0 0 0 0 0 0 0 0 0 0 0 0 0 0 0 0 0 0 127 0" result="hardAlpha"/>
<feOffset dx="10" dy="10"/>
<feGaussianBlur stdDeviation="10"/>
<feColorMatrix type="matrix" values="0 0 0 0 0.441333 0 0 0 0 1 0 0 0 0 0.301667 0 0 0 0.2 0"/>
<feBlend mode="normal" in2="BackgroundImageFix" result="effect1_dropShadow_1350_17996"/>
<feBlend mode="normal" in="SourceGraphic" in2="effect1_dropShadow_1350_17996" result="shape"/>
</filter>
<linearGradient id="paint0_linear_1350_17996" x1="20.9406" y1="58.9526" x2="66.9893" y2="1.39165" gradientUnits="userSpaceOnUse">
<stop stop-color="#00784D"/>
<stop offset="1" stop-color="#64A305"/>
</linearGradient>
<linearGradient id="paint1_linear_1350_17996" x1="12.9406" y1="77.9632" x2="58.9893" y2="20.4022" gradientUnits="userSpaceOnUse">
<stop stop-color="#03C17D"/>
<stop offset="1" stop-color="#97E81C"/>
</linearGradient>
</defs>
</svg>
