<svg width="18" height="19" viewBox="0 0 18 19" fill="none" xmlns="http://www.w3.org/2000/svg">
<path d="M14.25 3.77734H3.75C3.15326 3.77734 2.58097 4.0144 2.15901 4.43635C1.73705 4.85831 1.5 5.43061 1.5 6.02734V13.5273C1.5 14.1241 1.73705 14.6964 2.15901 15.1183C2.58097 15.5403 3.15326 15.7773 3.75 15.7773H14.25C14.8467 15.7773 15.419 15.5403 15.841 15.1183C16.2629 14.6964 16.5 14.1241 16.5 13.5273V6.02734C16.5 5.43061 16.2629 4.85831 15.841 4.43635C15.419 4.0144 14.8467 3.77734 14.25 3.77734ZM3.75 5.27734H14.25C14.4489 5.27734 14.6397 5.35636 14.7803 5.49701C14.921 5.63767 15 5.82843 15 6.02734L9 9.68734L3 6.02734C3 5.82843 3.07902 5.63767 3.21967 5.49701C3.36032 5.35636 3.55109 5.27734 3.75 5.27734ZM15 13.5273C15 13.7263 14.921 13.917 14.7803 14.0577C14.6397 14.1983 14.4489 14.2773 14.25 14.2773H3.75C3.55109 14.2773 3.36032 14.1983 3.21967 14.0577C3.07902 13.917 3 13.7263 3 13.5273V7.73734L8.61 11.1648C8.72401 11.2307 8.85335 11.2653 8.985 11.2653C9.11665 11.2653 9.24599 11.2307 9.36 11.1648L15 7.73734V13.5273Z" fill="#202127"/>
</svg>
