<svg width="31" height="41" viewBox="0 0 31 41" fill="none" xmlns="http://www.w3.org/2000/svg">
<rect width="31" height="41" fill="#CCCCCC"/>
<g id="Landing Page-03" clip-path="url(#clip0_1302_18066)">
<rect width="1440" height="1365" transform="translate(-170 -89.7227)" fill="white"/>
<g id="All">
<g id="Text Side">
<g id="Bolt Logo">
<g id="Group 1160443937">
<g id="Frame 116045102">
<path id="Subtract" fill-rule="evenodd" clip-rule="evenodd" d="M29.0125 0.0595551L18.4288 10.6984C17.3692 10.4602 16.267 10.3346 15.1355 10.3346C6.87645 10.3346 0.181152 17.0299 0.181152 25.2889C0.181152 33.548 6.87645 40.2433 15.1355 40.2433C23.3946 40.2433 30.0899 33.548 30.0899 25.2889C30.0899 21.6195 28.7683 18.2588 26.5751 15.6567L15.9346 26.3526L22.8402 12.4695C22.8401 12.4694 22.8399 12.4694 22.8398 12.4693L29.0125 0.0595551Z" fill="url(#paint0_linear_1302_18066)"/>
</g>
</g>
</g>
</g>
</g>
</g>
<defs>
<linearGradient id="paint0_linear_1302_18066" x1="0.181152" y1="40.2433" x2="38.6742" y2="11.593" gradientUnits="userSpaceOnUse">
<stop stop-color="#03C17D"/>
<stop offset="1" stop-color="#97E81C"/>
</linearGradient>
<clipPath id="clip0_1302_18066">
<rect width="1440" height="1365" fill="white" transform="translate(-170 -89.7227)"/>
</clipPath>
</defs>
</svg>
