<svg width="96" height="21" viewBox="0 0 96 21" fill="none" xmlns="http://www.w3.org/2000/svg">
<g clip-path="url(#clip0_1606_19604)">
<g clip-path="url(#clip1_1606_19604)">
<path fill-rule="evenodd" clip-rule="evenodd" d="M0 10.2781C0 4.75516 4.47708 0.278076 10 0.278076C15.5229 0.278076 20.0012 4.75427 20.0012 10.2772C20.0012 15.8001 15.5241 20.2772 10.0012 20.2772C8.68176 20.2789 7.37511 20.0187 6.15706 19.5114L9.36288 13.0998L4.1055 18.3572C1.61672 16.5379 0 13.5968 0 10.2781ZM16.2876 12.1576V9.53782C16.2876 8.18273 15.6283 7.67693 14.6795 7.67853C14.412 7.67494 14.147 7.73042 13.9035 7.841C13.6599 7.95159 13.4437 8.11456 13.2704 8.31828H13.2524V7.7493H12.0689V12.1576H13.2524V9.93526C13.2524 9.14916 13.659 8.73372 14.2552 8.73372C14.8062 8.73372 15.1041 8.99602 15.1041 9.8357V12.1576H16.2876ZM11.6987 11.4344C11.3192 11.877 10.6419 12.2293 9.75624 12.2293C8.44634 12.2293 7.48911 11.3096 7.48911 9.95296C7.48911 8.59628 8.44634 7.67662 9.81102 7.67662C10.5151 7.67662 11.2381 7.95652 11.6807 8.5163L10.8854 9.20284C10.7591 9.05363 10.6014 8.93418 10.4235 8.85303C10.2457 8.77188 10.0521 8.73104 9.8566 8.73342C9.15247 8.73342 8.68265 9.23043 8.68265 9.94416C8.68265 10.6667 9.17046 11.1725 9.8658 11.1725C10.0597 11.1747 10.2519 11.1356 10.4295 11.0577C10.6072 10.9798 10.7661 10.8649 10.8958 10.7207L11.6987 11.4344ZM5.26738 11.1904V11.1724L7.42616 8.54381V7.74891H3.86711V8.71535H5.83636V8.72454L3.71357 11.3531V12.1572H7.38097V11.1904H5.26738Z" fill="#202127"/>
</g>
</g>
<path d="M28.88 17.2773H31.62V3.53734H29.44L25.28 6.51734L26.58 8.53734L28.88 6.81734V17.2773ZM39.5227 17.4373C42.8627 17.4373 44.8827 14.6173 44.8827 10.4173C44.8827 5.97734 42.7227 3.37734 39.5227 3.37734C36.2027 3.37734 34.1827 6.21734 34.1827 10.4173C34.1827 14.8573 36.3627 17.4373 39.5227 17.4373ZM39.5427 14.9173C37.9227 14.9173 36.9627 13.1773 36.9627 10.4173C36.9627 7.49734 37.9627 5.91734 39.5427 5.91734C41.1627 5.91734 42.1027 7.63734 42.1027 10.4173C42.1027 13.3173 41.1427 14.9173 39.5427 14.9173ZM52.1398 17.4373C55.4798 17.4373 57.4998 14.6173 57.4998 10.4173C57.4998 5.97734 55.3398 3.37734 52.1398 3.37734C48.8198 3.37734 46.7998 6.21734 46.7998 10.4173C46.7998 14.8573 48.9798 17.4373 52.1398 17.4373ZM52.1598 14.9173C50.5398 14.9173 49.5798 13.1773 49.5798 10.4173C49.5798 7.49734 50.5798 5.91734 52.1598 5.91734C53.7798 5.91734 54.7198 7.63734 54.7198 10.4173C54.7198 13.3173 53.7598 14.9173 52.1598 14.9173ZM64.757 17.4373C68.097 17.4373 70.117 14.6173 70.117 10.4173C70.117 5.97734 67.957 3.37734 64.757 3.37734C61.437 3.37734 59.417 6.21734 59.417 10.4173C59.417 14.8573 61.597 17.4373 64.757 17.4373ZM64.777 14.9173C63.157 14.9173 62.197 13.1773 62.197 10.4173C62.197 7.49734 63.197 5.91734 64.777 5.91734C66.397 5.91734 67.337 7.63734 67.337 10.4173C67.337 13.3173 66.377 14.9173 64.777 14.9173ZM77.9022 10.2813V8.75734H71.6742V10.5453H75.2262V10.5813L71.5422 15.7173V17.2773H77.9022V15.4893H74.1102V15.4533L77.9022 10.2813ZM82.9295 17.3853C84.4415 17.3853 85.6295 16.6653 86.3615 15.7533L84.8855 14.4933C84.4295 15.0573 83.6975 15.4653 82.9295 15.4653C81.5495 15.4653 80.6375 14.3853 80.6375 13.0413C80.6375 11.4693 81.6815 10.5453 82.9295 10.5453C83.7695 10.5453 84.4775 11.0373 84.8855 11.5293L86.3615 10.2813C85.4135 9.12934 84.0935 8.63734 82.9295 8.63734C80.1215 8.63734 78.5375 10.6053 78.5375 13.0413C78.5375 15.8613 80.5775 17.3853 82.9295 17.3853ZM92.6616 8.75734V14.0013L89.3496 8.75734H87.3456V17.2773H89.3496V12.1653H89.3616L92.6016 17.2773H94.6656V8.75734H92.6616Z" fill="#202127"/>
<defs>
<clipPath id="clip0_1606_19604">
<rect width="20" height="20" fill="white" transform="translate(0 0.277344)"/>
</clipPath>
<clipPath id="clip1_1606_19604">
<rect width="20" height="20" fill="white" transform="translate(0 0.277344)"/>
</clipPath>
</defs>
</svg>
